<svg width="120" height="36" viewBox="0 0 120 36" fill="none" xmlns="http://www.w3.org/2000/svg">
<rect width="118" height="34" fill="white" rx="6" ry="6" x="1" y="1" stroke-width="2" stroke="black" />
<path d="M6 0H36V36H6C2.68629 36 0 33.3137 0 30V6C0 2.68629 2.68629 0 6 0Z" fill="black"/>
<path d="M23.806 18.5411C25.1104 17.7923 26.4051 17.0386 27.7143 16.2995C28.951 15.599 30.41 16.2463 30.6902 17.6135C30.8545 18.401 30.5018 19.2561 29.7868 19.6715C27.4486 21.0387 25.1056 22.3962 22.748 23.7344C22.0186 24.145 21.2697 24.0726 20.6031 23.5653C19.9316 23.0484 19.719 22.3382 19.8736 21.5121C20.0572 20.8793 20.4678 20.459 21.033 20.145C21.9654 19.6232 22.8833 19.0773 23.806 18.5411Z" fill="#FABC05"/>
<path d="M24.7626 18C23.463 17.2464 22.1635 16.4975 20.8688 15.7342C19.6417 15.0144 19.4726 13.425 20.5161 12.5023C21.12 11.9661 22.0379 11.8453 22.7529 12.2511C25.1056 13.5989 27.4534 14.9468 29.7868 16.3188C30.5114 16.7439 30.8206 17.4299 30.7143 18.2609C30.6032 19.1015 30.096 19.6425 29.2989 19.9179C28.666 20.0773 28.0959 19.9276 27.5404 19.599C26.6225 19.0483 25.6901 18.5314 24.7626 18Z" fill="#109D58"/>
<path d="M12.9314 17.4637C12.1005 17.9372 11.2647 18.4106 10.4338 18.8841C9.94588 19.1643 9.46278 19.4493 8.97485 19.7247C7.98932 20.2754 6.82022 19.9517 6.25982 18.9807C5.72841 18.058 6.03277 16.8599 6.98447 16.3043C9.30335 14.9468 11.6319 13.6038 13.9653 12.2753C14.6851 11.8646 15.4242 11.9178 16.0861 12.4057C16.7866 12.9178 17.0185 13.6424 16.859 14.4927C16.7624 14.7004 16.7044 14.9371 16.5595 15.1014C16.3228 15.3623 16.0523 15.6183 15.7527 15.8019C14.8204 16.3719 13.8735 16.913 12.9314 17.4637Z" fill="#E94436"/>
<path d="M11.9749 17.9952C12.801 18.4783 13.6271 18.9662 14.458 19.4493C14.9411 19.7343 15.4291 20.0049 15.9122 20.2947C16.8784 20.8696 17.1876 22.0484 16.6272 23.0146C16.0909 23.9421 14.9025 24.2755 13.946 23.7296C11.6126 22.3962 9.28404 21.0532 6.96515 19.6957C6.25017 19.2802 5.92649 18.6087 6.01828 17.7923C6.11007 16.9275 6.62698 16.3671 7.43859 16.0821C7.66565 16.0628 7.90237 15.9903 8.11493 16.0386C8.46277 16.1111 8.81543 16.2174 9.12461 16.3864C10.086 16.9034 11.028 17.4541 11.9749 17.9952Z" fill="#4385F3"/>
<path d="M96.5586 23.96V12.04H104.319V13.48H98.1266V17.256H103.999V18.696H98.1266V22.52H104.319V23.96H96.5586Z" fill="black"/>
<path d="M84.6992 23.96V12.04H88.6032C89.8086 12.04 90.8592 12.2853 91.7552 12.776C92.6512 13.2667 93.3446 13.96 93.8352 14.856C94.3259 15.7413 94.5712 16.7867 94.5712 17.992C94.5712 19.1867 94.3259 20.232 93.8352 21.128C93.3446 22.024 92.6512 22.7227 91.7552 23.224C90.8592 23.7147 89.8086 23.96 88.6032 23.96H84.6992ZM86.2672 22.52H88.6192C89.5046 22.52 90.2672 22.3333 90.9072 21.96C91.5579 21.5867 92.0592 21.064 92.4112 20.392C92.7632 19.7093 92.9392 18.9093 92.9392 17.992C92.9392 17.064 92.7579 16.264 92.3952 15.592C92.0432 14.92 91.5419 14.4027 90.8912 14.04C90.2512 13.6667 89.4939 13.48 88.6192 13.48H86.2672V22.52Z" fill="black"/>
<path d="M77.1251 24.152C76.2824 24.152 75.5038 24.0027 74.7891 23.704C74.0744 23.3947 73.4558 22.9627 72.9331 22.408C72.4104 21.8533 71.9998 21.2027 71.7011 20.456C71.4131 19.7093 71.2691 18.8933 71.2691 18.008C71.2691 17.112 71.4131 16.2907 71.7011 15.544C71.9891 14.7973 72.3944 14.1467 72.9171 13.592C73.4398 13.0373 74.0584 12.6107 74.7731 12.312C75.4878 12.0027 76.2664 11.848 77.1091 11.848C77.9304 11.848 78.6664 11.992 79.3171 12.28C79.9784 12.568 80.5331 12.9413 80.9811 13.4C81.4398 13.8587 81.7651 14.3493 81.9571 14.872L80.5491 15.56C80.2718 14.8667 79.8398 14.3173 79.2531 13.912C78.6664 13.5067 77.9518 13.304 77.1091 13.304C76.2771 13.304 75.5358 13.5013 74.8851 13.896C74.2451 14.2907 73.7438 14.84 73.3811 15.544C73.0184 16.248 72.8371 17.0693 72.8371 18.008C72.8371 18.936 73.0184 19.752 73.3811 20.456C73.7544 21.16 74.2611 21.7093 74.9011 22.104C75.5518 22.4987 76.2931 22.696 77.1251 22.696C77.8504 22.696 78.5064 22.5413 79.0931 22.232C79.6798 21.9227 80.1438 21.496 80.4851 20.952C80.8264 20.408 80.9971 19.7787 80.9971 19.064V18.328L81.7171 19H77.1091V17.64H82.5811V18.696C82.5811 19.528 82.4371 20.28 82.1491 20.952C81.8611 21.624 81.4664 22.2 80.9651 22.68C80.4638 23.1493 79.8824 23.512 79.2211 23.768C78.5598 24.024 77.8611 24.152 77.1251 24.152Z" fill="black"/>
<path d="M64.6367 23.96V12.04H66.2047V23.96H64.6367Z" fill="black"/>
<path d="M52.7347 23.96L57.0067 12.04H58.8627L63.1347 23.96H61.4547L60.4787 21.16H55.3907L54.4147 23.96H52.7347ZM55.8867 19.72H59.9827L57.7107 13.176H58.1587L55.8867 19.72Z" fill="black"/>
</svg>
