<svg width="80" height="36" viewBox="0 0 80 36" fill="none" xmlns="http://www.w3.org/2000/svg">
<g clip-path="url(#clip0_9_14)">
<rect width="80" height="36" rx="6" fill="white"/>
<rect width="34" height="36" fill="black"/>
<path d="M27.4025 15.5131C27.4025 14.4061 26.9866 13.3512 26.2313 12.5426C25.6643 11.9355 24.9459 11.5097 24.157 11.303C24.1679 11.1849 24.1741 11.0658 24.1741 10.9458C24.1741 8.77005 22.4041 7 20.2284 7C18.8949 7 17.7146 7.66559 17 8.68132C16.2854 7.66559 15.1051 7 13.7716 7C11.5959 7 9.82589 8.77005 9.82589 10.9457C9.82589 11.0658 9.83212 11.1849 9.84295 11.3029C9.05408 11.5095 8.33582 11.9354 7.76867 12.5425C7.01337 13.3511 6.59747 14.4061 6.59747 15.513C6.59747 16.4362 6.8867 17.2931 7.37886 17.9982C6.87166 18.7242 6.59747 19.5881 6.59747 20.4869C6.59747 22.5043 7.9772 24.2053 9.84256 24.6964C9.83186 24.8151 9.8258 24.9343 9.8258 25.0542C9.8258 27.2299 11.5959 29 13.7715 29C15.1051 29 16.2853 28.3344 16.9999 27.3186C17.7146 28.3344 18.8949 29 20.2284 29C22.4041 29 24.1741 27.2299 24.1741 25.0543C24.1741 24.9345 24.1681 24.8151 24.1573 24.6965C26.0227 24.2054 27.4024 22.5044 27.4024 20.4869C27.4024 19.5881 27.1282 18.7242 26.621 17.9982C27.1133 17.2931 27.4025 16.4363 27.4025 15.5131ZM16.2826 21.7421V25.0543C16.2826 26.4388 15.1561 27.5652 13.7716 27.5652C12.387 27.5652 11.2607 26.4388 11.2607 25.0543C11.2607 24.9782 11.2644 24.9025 11.2712 24.8272C12.3801 24.7447 13.4249 24.2379 14.1766 23.408L13.1131 22.4448C12.5607 23.0547 11.7722 23.4046 10.9499 23.4046C9.34111 23.4046 8.03229 22.0957 8.03229 20.4869C8.03229 19.976 8.16441 19.4818 8.41187 19.0467C9.12683 19.5617 10.0035 19.8654 10.9499 19.8654V18.4307C9.34111 18.4307 8.03229 17.1218 8.03229 15.5131C8.03229 14.1639 8.96565 13.0069 10.2335 12.6851C10.6697 13.5688 11.4299 14.2825 12.3859 14.6411L12.8899 13.2978C11.9154 12.9322 11.2607 11.987 11.2607 10.9458C11.2607 9.5612 12.3871 8.43481 13.7716 8.43481C15.1561 8.43481 16.2826 9.56128 16.2826 10.9458V14.258V15.2553H15.69V14.258H14.2553V15.2553H13.2579V16.6901H14.2553V17.2826H13.2579V18.7174H14.2553V19.3099H13.2579V20.7447H14.2553V21.742H15.69V20.7447H16.2826V21.7421ZM15.6901 19.3099V16.6901H18.3099V19.3099H15.6901ZM25.5881 19.0467C25.8356 19.4819 25.9677 19.976 25.9677 20.4869C25.9677 22.0958 24.6588 23.4046 23.05 23.4046C22.2277 23.4046 21.4393 23.0548 20.8869 22.4448L19.8235 23.408C20.5752 24.2379 21.6199 24.7447 22.7288 24.8273C22.7356 24.9025 22.7394 24.9782 22.7394 25.0543C22.7394 26.4389 21.6129 27.5653 20.2284 27.5653C18.8439 27.5653 17.7174 26.4389 17.7174 25.0543V21.7421V20.7448H18.3099V21.7421H19.7447V20.7448H20.742V19.31H19.7447V18.7175H20.742V17.2827H19.7447V16.6902H20.742V15.2554H19.7447V14.2581H18.3099V15.2554H17.7174V14.2581V10.9457C17.7174 9.56115 18.8439 8.43477 20.2284 8.43477C21.6129 8.43477 22.7393 9.56115 22.7393 10.9457C22.7393 11.987 22.0846 12.9321 21.1101 13.2977L21.6141 14.6411C22.5702 14.2824 23.3303 13.5687 23.7665 12.685C25.0344 13.0069 25.9677 14.1638 25.9677 15.513C25.9677 17.1218 24.6589 18.4306 23.0501 18.4306V19.8654C23.9965 19.8654 24.8732 19.5616 25.5881 19.0467Z" fill="white"/>
<rect width="45.47" height="36" transform="translate(34)" fill="#181818"/>
<path d="M61.902 23.96V12.04H63.47V23.96H61.902Z" fill="white"/>
<path d="M50 23.96L54.272 12.04H56.128L60.4 23.96H58.72L57.744 21.16H52.656L51.68 23.96H50ZM53.152 19.72H57.248L54.976 13.176H55.424L53.152 19.72Z" fill="white"/>
</g>
<rect x="1" y="1" width="78" height="34" rx="5" stroke="black" stroke-width="2"/>
<defs>
<clipPath id="clip0_9_14">
<rect width="80" height="36" rx="6"/>
</clipPath>
</defs>
</svg>
