<svg width="152" height="36" viewBox="0 0 152 36" fill="none" xmlns="http://www.w3.org/2000/svg">
<g clip-path="url(#clip0_6_30)">
<rect width="151.269" height="36" rx="6" fill="white"/>
<rect width="36.7347" height="36" fill="black"/>
<path d="M23.806 18.5411C25.1104 17.7923 26.4051 17.0386 27.7143 16.2995C28.951 15.599 30.41 16.2463 30.6902 17.6135C30.8545 18.401 30.5018 19.2561 29.7868 19.6715C27.4486 21.0387 25.1056 22.3962 22.748 23.7344C22.0186 24.145 21.2697 24.0726 20.6031 23.5653C19.9316 23.0484 19.719 22.3382 19.8736 21.5121C20.0572 20.8793 20.4678 20.459 21.033 20.145C21.9654 19.6232 22.8833 19.0773 23.806 18.5411Z" fill="#FABC05"/>
<path d="M24.7626 18C23.463 17.2464 22.1635 16.4976 20.8688 15.7343C19.6417 15.0144 19.4726 13.425 20.5161 12.5023C21.12 11.9661 22.0379 11.8453 22.7529 12.2511C25.1056 13.599 27.4534 14.9468 29.7868 16.3188C30.5114 16.7439 30.8206 17.4299 30.7143 18.2609C30.6032 19.1015 30.096 19.6425 29.2989 19.9179C28.666 20.0773 28.0959 19.9276 27.5404 19.5991C26.6225 19.0483 25.6901 18.5314 24.7626 18Z" fill="#109D58"/>
<path d="M12.9314 17.4637C12.1005 17.9372 11.2647 18.4106 10.4338 18.8841C9.94588 19.1643 9.46278 19.4493 8.97485 19.7247C7.98932 20.2754 6.82022 19.9517 6.25982 18.9807C5.72841 18.058 6.03277 16.8599 6.98447 16.3043C9.30335 14.9468 11.6319 13.6038 13.9653 12.2753C14.6851 11.8646 15.4242 11.9178 16.0861 12.4057C16.7866 12.9178 17.0185 13.6424 16.859 14.4927C16.7624 14.7004 16.7044 14.9371 16.5595 15.1014C16.3228 15.3623 16.0523 15.6183 15.7527 15.8019C14.8204 16.3719 13.8735 16.913 12.9314 17.4637Z" fill="#E94436"/>
<path d="M11.9749 17.9952C12.801 18.4783 13.6271 18.9662 14.458 19.4493C14.9411 19.7343 15.4291 20.0049 15.9122 20.2947C16.8784 20.8696 17.1876 22.0484 16.6272 23.0146C16.0909 23.9421 14.9025 24.2755 13.946 23.7296C11.6126 22.3962 9.28404 21.0532 6.96515 19.6957C6.25017 19.2802 5.92649 18.6087 6.01828 17.7923C6.11007 16.9275 6.62698 16.3671 7.43859 16.0821C7.66565 16.0628 7.90237 15.9903 8.11493 16.0386C8.46277 16.1111 8.81543 16.2174 9.12461 16.3864C10.086 16.9034 11.028 17.4541 11.9749 17.9952Z" fill="#4385F3"/>
<path d="M127.509 23.96V12.04H135.269V13.48H129.077V17.256H134.949V18.696H129.077V22.52H135.269V23.96H127.509Z" fill="black"/>
<path d="M115.649 23.96V12.04H119.553C120.759 12.04 121.809 12.2853 122.705 12.776C123.601 13.2667 124.295 13.96 124.785 14.856C125.276 15.7413 125.521 16.7867 125.521 17.992C125.521 19.1867 125.276 20.232 124.785 21.128C124.295 22.024 123.601 22.7227 122.705 23.224C121.809 23.7147 120.759 23.96 119.553 23.96H115.649ZM117.217 22.52H119.569C120.455 22.52 121.217 22.3333 121.857 21.96C122.508 21.5867 123.009 21.064 123.361 20.392C123.713 19.7093 123.889 18.9093 123.889 17.992C123.889 17.064 123.708 16.264 123.345 15.592C122.993 14.92 122.492 14.4027 121.841 14.04C121.201 13.6667 120.444 13.48 119.569 13.48H117.217V22.52Z" fill="black"/>
<path d="M108.075 24.152C107.232 24.152 106.454 24.0027 105.739 23.704C105.024 23.3947 104.406 22.9627 103.883 22.408C103.36 21.8533 102.95 21.2027 102.651 20.456C102.363 19.7093 102.219 18.8933 102.219 18.008C102.219 17.112 102.363 16.2907 102.651 15.544C102.939 14.7973 103.344 14.1467 103.867 13.592C104.39 13.0373 105.008 12.6107 105.723 12.312C106.438 12.0027 107.216 11.848 108.059 11.848C108.88 11.848 109.616 11.992 110.267 12.28C110.928 12.568 111.483 12.9413 111.931 13.4C112.39 13.8587 112.715 14.3493 112.907 14.872L111.499 15.56C111.222 14.8667 110.79 14.3173 110.203 13.912C109.616 13.5067 108.902 13.304 108.059 13.304C107.227 13.304 106.486 13.5013 105.835 13.896C105.195 14.2907 104.694 14.84 104.331 15.544C103.968 16.248 103.787 17.0693 103.787 18.008C103.787 18.936 103.968 19.752 104.331 20.456C104.704 21.16 105.211 21.7093 105.851 22.104C106.502 22.4987 107.243 22.696 108.075 22.696C108.8 22.696 109.456 22.5413 110.043 22.232C110.63 21.9227 111.094 21.496 111.435 20.952C111.776 20.408 111.947 19.7787 111.947 19.064V18.328L112.667 19H108.059V17.64H113.531V18.696C113.531 19.528 113.387 20.28 113.099 20.952C112.811 21.624 112.416 22.2 111.915 22.68C111.414 23.1493 110.832 23.512 110.171 23.768C109.51 24.024 108.811 24.152 108.075 24.152Z" fill="black"/>
<path d="M92.8464 24.152C92.0357 24.152 91.305 23.9547 90.6544 23.56C90.0144 23.1653 89.5077 22.6267 89.1344 21.944C88.761 21.2613 88.5744 20.4987 88.5744 19.656C88.5744 18.792 88.761 18.024 89.1344 17.352C89.5077 16.6693 90.0144 16.1307 90.6544 15.736C91.305 15.3413 92.0357 15.144 92.8464 15.144C93.561 15.144 94.1957 15.2987 94.7504 15.608C95.305 15.9067 95.7424 16.312 96.0624 16.824L95.8224 17.192V11.848H97.3264V23.96H95.8704V22.12L96.0624 22.376C95.7637 22.9413 95.3264 23.3787 94.7504 23.688C94.185 23.9973 93.5504 24.152 92.8464 24.152ZM92.9744 22.712C93.5184 22.712 94.0037 22.5787 94.4304 22.312C94.857 22.0453 95.193 21.6827 95.4384 21.224C95.6944 20.7547 95.8224 20.232 95.8224 19.656C95.8224 19.0693 95.6944 18.5467 95.4384 18.088C95.193 17.6187 94.857 17.2507 94.4304 16.984C94.0037 16.7173 93.5184 16.584 92.9744 16.584C92.441 16.584 91.9557 16.7227 91.5184 17C91.0917 17.2667 90.7557 17.6293 90.5104 18.088C90.265 18.536 90.1424 19.0587 90.1424 19.656C90.1424 20.232 90.265 20.7547 90.5104 21.224C90.7557 21.6827 91.0917 22.0453 91.5184 22.312C91.945 22.5787 92.4304 22.712 92.9744 22.712Z" fill="black"/>
<path d="M82.7011 24.152C82.0824 24.152 81.5224 24.008 81.0211 23.72C80.5304 23.432 80.1464 23.032 79.8691 22.52C79.6024 21.9973 79.4691 21.4 79.4691 20.728V15.336H80.9571V20.568C80.9571 20.9947 81.0424 21.368 81.2131 21.688C81.3944 22.008 81.6398 22.2587 81.9491 22.44C82.2691 22.6213 82.6318 22.712 83.0371 22.712C83.4425 22.712 83.7998 22.6213 84.1091 22.44C84.4291 22.2587 84.6745 21.9973 84.8451 21.656C85.0265 21.3147 85.1171 20.9093 85.1171 20.44V15.336H86.6211V23.96H85.1651V22.28L85.4051 22.424C85.2024 22.968 84.8558 23.3947 84.3651 23.704C83.8851 24.0027 83.3305 24.152 82.7011 24.152Z" fill="black"/>
<path d="M73.2724 24.152C72.4404 24.152 71.6884 23.96 71.0164 23.576C70.3444 23.1813 69.811 22.6427 69.4164 21.96C69.0217 21.2773 68.8244 20.504 68.8244 19.64C68.8244 18.776 69.0164 18.008 69.4004 17.336C69.795 16.664 70.3284 16.1307 71.0004 15.736C71.6724 15.3413 72.4297 15.144 73.2724 15.144C74.1044 15.144 74.8564 15.3413 75.5284 15.736C76.2004 16.12 76.7284 16.648 77.1124 17.32C77.507 17.992 77.7044 18.7653 77.7044 19.64C77.7044 20.5147 77.5017 21.2933 77.0964 21.976C76.691 22.648 76.1524 23.1813 75.4804 23.576C74.819 23.96 74.083 24.152 73.2724 24.152ZM73.2724 22.712C73.8057 22.712 74.2857 22.5787 74.7124 22.312C75.1497 22.0453 75.491 21.6773 75.7364 21.208C75.9924 20.7387 76.1204 20.216 76.1204 19.64C76.1204 19.0533 75.9924 18.536 75.7364 18.088C75.491 17.6293 75.1497 17.2667 74.7124 17C74.2857 16.7227 73.8057 16.584 73.2724 16.584C72.7284 16.584 72.2377 16.7227 71.8004 17C71.3737 17.2667 71.0324 17.6293 70.7764 18.088C70.5204 18.536 70.3924 19.0533 70.3924 19.64C70.3924 20.216 70.5204 20.7387 70.7764 21.208C71.0324 21.6773 71.3737 22.0453 71.8004 22.312C72.2377 22.5787 72.7284 22.712 73.2724 22.712Z" fill="black"/>
<path d="M65.3795 23.96V11.848H66.8675V23.96H65.3795Z" fill="black"/>
<path d="M58.5747 24.152C57.7321 24.152 56.9534 24.0027 56.2387 23.704C55.5347 23.3947 54.9161 22.9627 54.3827 22.408C53.8601 21.8533 53.4547 21.2027 53.1667 20.456C52.8787 19.7093 52.7347 18.8933 52.7347 18.008C52.7347 17.112 52.8787 16.2907 53.1667 15.544C53.4547 14.7973 53.8601 14.1467 54.3827 13.592C54.9054 13.0373 55.5241 12.6107 56.2387 12.312C56.9534 12.0027 57.7321 11.848 58.5747 11.848C59.3961 11.848 60.1321 11.992 60.7827 12.28C61.4441 12.568 61.9987 12.9413 62.4467 13.4C62.9054 13.8587 63.2307 14.3493 63.4227 14.872L61.9827 15.528C61.7054 14.8667 61.2734 14.3333 60.6867 13.928C60.1001 13.512 59.3961 13.304 58.5747 13.304C57.7427 13.304 57.0014 13.5013 56.3507 13.896C55.7107 14.2907 55.2094 14.84 54.8467 15.544C54.4841 16.248 54.3027 17.0693 54.3027 18.008C54.3027 18.936 54.4841 19.752 54.8467 20.456C55.2094 21.16 55.7107 21.7093 56.3507 22.104C57.0014 22.4987 57.7427 22.696 58.5747 22.696C59.3961 22.696 60.1001 22.4933 60.6867 22.088C61.2734 21.672 61.7054 21.1333 61.9827 20.472L63.4227 21.128C63.2307 21.6507 62.9054 22.1413 62.4467 22.6C61.9987 23.0587 61.4441 23.432 60.7827 23.72C60.1321 24.008 59.3961 24.152 58.5747 24.152Z" fill="black"/>
</g>
<rect x="1" y="1" width="149.269" height="34" rx="5" stroke="black" stroke-width="2"/>
<defs>
<clipPath id="clip0_6_30">
<rect width="151.269" height="36" rx="6" fill="white"/>
</clipPath>
</defs>
</svg>
