<svg width="95" height="36" viewBox="0 0 95 36" fill="none" xmlns="http://www.w3.org/2000/svg">
<g clip-path="url(#clip0_9_35)">
<rect width="94.3951" height="36" rx="6" fill="white"/>
<rect width="32" height="36" fill="black"/>
<path fill-rule="evenodd" clip-rule="evenodd" d="M19.0769 9C19.5018 9 19.8462 9.34538 19.8462 9.77143V26.2286C19.8462 26.6546 19.5018 27 19.0769 27C18.6521 27 18.3077 26.6546 18.3077 26.2286V9.77143C18.3077 9.34538 18.6521 9 19.0769 9ZM16 12.0857C16.4248 12.0857 16.7692 12.4311 16.7692 12.8571V23.1429C16.7692 23.5689 16.4248 23.9143 16 23.9143C15.5752 23.9143 15.2308 23.5689 15.2308 23.1429V12.8571C15.2308 12.4311 15.5752 12.0857 16 12.0857ZM9.84615 13.1143C10.271 13.1143 10.6154 13.4597 10.6154 13.8857V22.1143C10.6154 22.5403 10.271 22.8857 9.84615 22.8857C9.42132 22.8857 9.07692 22.5403 9.07692 22.1143V13.8857C9.07692 13.4597 9.42132 13.1143 9.84615 13.1143ZM22.1538 14.1429C22.5787 14.1429 22.9231 14.4882 22.9231 14.9143V21.0857C22.9231 21.5118 22.5787 21.8571 22.1538 21.8571C21.729 21.8571 21.3846 21.5118 21.3846 21.0857V14.9143C21.3846 14.4882 21.729 14.1429 22.1538 14.1429ZM12.9231 15.1714C13.3479 15.1714 13.6923 15.5168 13.6923 15.9429V20.0571C13.6923 20.4832 13.3479 20.8286 12.9231 20.8286C12.4982 20.8286 12.1538 20.4832 12.1538 20.0571V15.9429C12.1538 15.5168 12.4982 15.1714 12.9231 15.1714ZM6.76923 16.2C7.19407 16.2 7.53846 16.5454 7.53846 16.9714V19.0286C7.53846 19.4546 7.19407 19.8 6.76923 19.8C6.3444 19.8 6 19.4546 6 19.0286V16.9714C6 16.5454 6.3444 16.2 6.76923 16.2ZM25.2308 16.2C25.6556 16.2 26 16.5454 26 16.9714V19.0286C26 19.4546 25.6556 19.8 25.2308 19.8C24.8059 19.8 24.4615 19.4546 24.4615 19.0286V16.9714C24.4615 16.5454 24.8059 16.2 25.2308 16.2Z" fill="white"/>
<rect width="62.3951" height="36" transform="translate(32)" fill="#181818"/>
<path d="M70.2031 23.96V12.04H74.4111C75.2005 12.04 75.8938 12.1893 76.4911 12.488C77.0885 12.7867 77.5525 13.2133 77.8831 13.768C78.2245 14.3227 78.3951 14.9733 78.3951 15.72C78.3951 16.4667 78.2245 17.1173 77.8831 17.672C77.5525 18.216 77.0885 18.6427 76.4911 18.952C75.9045 19.2507 75.2111 19.4 74.4111 19.4H71.7711V23.96H70.2031ZM71.7711 17.96H74.4591C74.9391 17.96 75.3551 17.8693 75.7071 17.688C76.0591 17.5067 76.3311 17.2453 76.5231 16.904C76.7151 16.5627 76.8111 16.168 76.8111 15.72C76.8111 15.2613 76.7151 14.8667 76.5231 14.536C76.3311 14.1947 76.0591 13.9333 75.7071 13.752C75.3551 13.5707 74.9391 13.48 74.4591 13.48H71.7711V17.96Z" fill="white"/>
<path d="M63.9554 24.152C63.198 24.152 62.5047 24.0133 61.8754 23.736C61.246 23.448 60.7127 23.0587 60.2754 22.568C59.838 22.0773 59.5234 21.528 59.3314 20.92L60.6914 20.36C60.9794 21.128 61.406 21.72 61.9714 22.136C62.5474 22.5413 63.2194 22.744 63.9874 22.744C64.4567 22.744 64.8674 22.6693 65.2194 22.52C65.5714 22.3707 65.8434 22.1627 66.0354 21.896C66.238 21.6187 66.3394 21.2987 66.3394 20.936C66.3394 20.4347 66.1954 20.04 65.9074 19.752C65.63 19.4533 65.2194 19.2293 64.6754 19.08L62.4834 18.408C61.6194 18.1413 60.958 17.72 60.4994 17.144C60.0407 16.568 59.8114 15.9067 59.8114 15.16C59.8114 14.5093 59.966 13.9387 60.2754 13.448C60.5954 12.9467 61.0327 12.5573 61.5874 12.28C62.1527 11.992 62.7927 11.848 63.5074 11.848C64.222 11.848 64.8674 11.976 65.4434 12.232C66.03 12.488 66.526 12.8347 66.9314 13.272C67.3367 13.6987 67.6354 14.1893 67.8274 14.744L66.4834 15.304C66.2274 14.632 65.8434 14.1253 65.3314 13.784C64.8194 13.432 64.2167 13.256 63.5234 13.256C63.0967 13.256 62.718 13.3307 62.3874 13.48C62.0674 13.6187 61.8167 13.8267 61.6354 14.104C61.4647 14.3707 61.3794 14.6907 61.3794 15.064C61.3794 15.5013 61.518 15.8907 61.7954 16.232C62.0727 16.5733 62.494 16.8347 63.0594 17.016L65.0594 17.608C65.998 17.896 66.7074 18.3067 67.1874 18.84C67.6674 19.3733 67.9074 20.0347 67.9074 20.824C67.9074 21.4747 67.7367 22.0507 67.3954 22.552C67.0647 23.0533 66.6007 23.448 66.0034 23.736C65.4167 24.0133 64.734 24.152 63.9554 24.152Z" fill="white"/>
<path d="M48 23.96V12.04H51.904C53.1093 12.04 54.16 12.2853 55.056 12.776C55.952 13.2667 56.6453 13.96 57.136 14.856C57.6267 15.7413 57.872 16.7867 57.872 17.992C57.872 19.1867 57.6267 20.232 57.136 21.128C56.6453 22.024 55.952 22.7227 55.056 23.224C54.16 23.7147 53.1093 23.96 51.904 23.96H48ZM49.568 22.52H51.92C52.8053 22.52 53.568 22.3333 54.208 21.96C54.8587 21.5867 55.36 21.064 55.712 20.392C56.064 19.7093 56.24 18.9093 56.24 17.992C56.24 17.064 56.0587 16.264 55.696 15.592C55.344 14.92 54.8427 14.4027 54.192 14.04C53.552 13.6667 52.7947 13.48 51.92 13.48H49.568V22.52Z" fill="white"/>
</g>
<rect x="1" y="1" width="92.3951" height="34" rx="5" stroke="black" stroke-width="2"/>
<defs>
<clipPath id="clip0_9_35">
<rect width="94.3951" height="36" rx="6" fill="white"/>
</clipPath>
</defs>
</svg>
