<svg width="145" height="36" viewBox="0 0 145 36" fill="none" xmlns="http://www.w3.org/2000/svg">
<g clip-path="url(#clip0_7_169)">
<rect width="144.611" height="36" rx="6" fill="white"/>
<rect width="36" height="36" fill="black"/>
<g clip-path="url(#clip1_7_169)">
<path d="M28 18C28 12.4772 23.5228 8 18 8C12.4772 8 8 12.4772 8 18C8 22.6896 11.2288 26.6248 15.5844 27.7056V21.056H13.5224V18H15.5844V16.6832C15.5844 13.2796 17.1248 11.702 20.4664 11.702C21.1 11.702 22.1932 11.8264 22.6404 11.9504V14.7204C22.4044 14.6956 21.9944 14.6832 21.4852 14.6832C19.8456 14.6832 19.212 15.3044 19.212 16.9192V18H22.4784L21.9172 21.056H19.212V27.9268C24.1636 27.3288 28.0004 23.1128 28.0004 18H28Z" fill="white"/>
<path d="M21.9168 21.056L22.478 18H19.2116V16.9192C19.2116 15.3044 19.8452 14.6832 21.4848 14.6832C21.994 14.6832 22.404 14.6956 22.64 14.7204V11.9504C22.1928 11.826 21.0996 11.702 20.466 11.702C17.1244 11.702 15.584 13.2796 15.584 16.6832V18H13.522V21.056H15.584V27.7056C16.3576 27.8976 17.1668 28 17.9996 28C18.4096 28 18.814 27.9748 19.2112 27.9268V21.056H21.9164H21.9168Z" fill="black"/>
</g>
<path d="M121.027 23.96V11.848H122.515V20.152L121.907 20.008L126.483 15.336H128.387L125.075 18.808L128.611 23.96H126.851L123.619 19.288L124.547 19.24L122.035 21.864L122.515 20.776V23.96H121.027Z" fill="black"/>
<path d="M114.654 24.152C113.822 24.152 113.07 23.96 112.398 23.576C111.726 23.1813 111.193 22.6427 110.798 21.96C110.404 21.2773 110.206 20.504 110.206 19.64C110.206 18.776 110.398 18.008 110.782 17.336C111.177 16.664 111.71 16.1307 112.382 15.736C113.054 15.3413 113.812 15.144 114.654 15.144C115.486 15.144 116.238 15.3413 116.91 15.736C117.582 16.12 118.11 16.648 118.494 17.32C118.889 17.992 119.086 18.7653 119.086 19.64C119.086 20.5147 118.884 21.2933 118.478 21.976C118.073 22.648 117.534 23.1813 116.862 23.576C116.201 23.96 115.465 24.152 114.654 24.152ZM114.654 22.712C115.188 22.712 115.668 22.5787 116.094 22.312C116.532 22.0453 116.873 21.6773 117.118 21.208C117.374 20.7387 117.502 20.216 117.502 19.64C117.502 19.0533 117.374 18.536 117.118 18.088C116.873 17.6293 116.532 17.2667 116.094 17C115.668 16.7227 115.188 16.584 114.654 16.584C114.11 16.584 113.62 16.7227 113.182 17C112.756 17.2667 112.414 17.6293 112.158 18.088C111.902 18.536 111.774 19.0533 111.774 19.64C111.774 20.216 111.902 20.7387 112.158 21.208C112.414 21.6773 112.756 22.0453 113.182 22.312C113.62 22.5787 114.11 22.712 114.654 22.712Z" fill="black"/>
<path d="M104.186 24.152C103.354 24.152 102.602 23.96 101.93 23.576C101.258 23.1813 100.724 22.6427 100.33 21.96C99.935 21.2773 99.7376 20.504 99.7376 19.64C99.7376 18.776 99.9296 18.008 100.314 17.336C100.708 16.664 101.242 16.1307 101.914 15.736C102.586 15.3413 103.343 15.144 104.186 15.144C105.018 15.144 105.77 15.3413 106.442 15.736C107.114 16.12 107.642 16.648 108.026 17.32C108.42 17.992 108.618 18.7653 108.618 19.64C108.618 20.5147 108.415 21.2933 108.01 21.976C107.604 22.648 107.066 23.1813 106.394 23.576C105.732 23.96 104.996 24.152 104.186 24.152ZM104.186 22.712C104.719 22.712 105.199 22.5787 105.626 22.312C106.063 22.0453 106.404 21.6773 106.65 21.208C106.906 20.7387 107.034 20.216 107.034 19.64C107.034 19.0533 106.906 18.536 106.65 18.088C106.404 17.6293 106.063 17.2667 105.626 17C105.199 16.7227 104.719 16.584 104.186 16.584C103.642 16.584 103.151 16.7227 102.714 17C102.287 17.2667 101.946 17.6293 101.69 18.088C101.434 18.536 101.306 19.0533 101.306 19.64C101.306 20.216 101.434 20.7387 101.69 21.208C101.946 21.6773 102.287 22.0453 102.714 22.312C103.151 22.5787 103.642 22.712 104.186 22.712Z" fill="black"/>
<path d="M93.8505 24.152C93.1572 24.152 92.5225 23.9973 91.9465 23.688C91.3812 23.3787 90.9438 22.9413 90.6345 22.376L90.8425 22.12V23.96H89.3865V11.848H90.8745V17.192L90.6505 16.824C90.9705 16.312 91.4078 15.9067 91.9625 15.608C92.5172 15.2987 93.1518 15.144 93.8665 15.144C94.6772 15.144 95.4025 15.3413 96.0425 15.736C96.6932 16.1307 97.2052 16.6693 97.5785 17.352C97.9518 18.024 98.1385 18.792 98.1385 19.656C98.1385 20.4987 97.9518 21.2613 97.5785 21.944C97.2052 22.6267 96.6932 23.1653 96.0425 23.56C95.4025 23.9547 94.6718 24.152 93.8505 24.152ZM93.7385 22.712C94.2825 22.712 94.7678 22.5787 95.1945 22.312C95.6212 22.0453 95.9518 21.6827 96.1865 21.224C96.4318 20.7547 96.5545 20.232 96.5545 19.656C96.5545 19.0587 96.4318 18.536 96.1865 18.088C95.9518 17.6293 95.6212 17.2667 95.1945 17C94.7678 16.7227 94.2825 16.584 93.7385 16.584C93.1945 16.584 92.7038 16.7173 92.2665 16.984C91.8398 17.2507 91.4985 17.6187 91.2425 18.088C90.9972 18.5467 90.8745 19.0693 90.8745 19.656C90.8745 20.232 90.9972 20.7547 91.2425 21.224C91.4985 21.6827 91.8398 22.0453 92.2665 22.312C92.7038 22.5787 93.1945 22.712 93.7385 22.712Z" fill="black"/>
<path d="M83.5264 24.152C82.6944 24.152 81.953 23.9547 81.3024 23.56C80.6517 23.1653 80.1397 22.6267 79.7664 21.944C79.393 21.2507 79.2064 20.4773 79.2064 19.624C79.2064 18.76 79.3877 17.992 79.7504 17.32C80.1237 16.648 80.625 16.12 81.2544 15.736C81.8944 15.3413 82.609 15.144 83.3984 15.144C84.0384 15.144 84.6037 15.2613 85.0944 15.496C85.5957 15.72 86.017 16.0293 86.3584 16.424C86.7104 16.808 86.977 17.2507 87.1584 17.752C87.3504 18.2427 87.4464 18.7547 87.4464 19.288C87.4464 19.4053 87.4357 19.5387 87.4144 19.688C87.4037 19.8267 87.3877 19.96 87.3664 20.088H80.2944V18.808H86.5024L85.7984 19.384C85.8944 18.8293 85.841 18.3333 85.6384 17.896C85.4357 17.4587 85.137 17.112 84.7424 16.856C84.3477 16.6 83.8997 16.472 83.3984 16.472C82.897 16.472 82.4384 16.6 82.0224 16.856C81.6064 17.112 81.281 17.48 81.0464 17.96C80.8224 18.4293 80.7317 18.9893 80.7744 19.64C80.7317 20.2693 80.8277 20.824 81.0624 21.304C81.3077 21.7733 81.649 22.1413 82.0864 22.408C82.5344 22.664 83.0197 22.792 83.5424 22.792C84.1184 22.792 84.6037 22.6587 84.9984 22.392C85.393 22.1253 85.713 21.784 85.9584 21.368L87.2064 22.008C87.0357 22.4027 86.769 22.7653 86.4064 23.096C86.0544 23.416 85.633 23.672 85.1424 23.864C84.6624 24.056 84.1237 24.152 83.5264 24.152Z" fill="black"/>
<path d="M73.9178 24.152C73.0751 24.152 72.3231 23.9547 71.6618 23.56C71.0111 23.1653 70.4991 22.6267 70.1258 21.944C69.7524 21.2613 69.5658 20.4933 69.5658 19.64C69.5658 18.776 69.7524 18.008 70.1258 17.336C70.4991 16.664 71.0111 16.1307 71.6618 15.736C72.3231 15.3413 73.0751 15.144 73.9178 15.144C74.4831 15.144 75.0111 15.2453 75.5018 15.448C75.9924 15.6507 76.4244 15.9227 76.7978 16.264C77.1711 16.6053 77.4431 17.0053 77.6138 17.464L76.2858 18.104C76.0831 17.656 75.7738 17.2933 75.3578 17.016C74.9418 16.728 74.4618 16.584 73.9178 16.584C73.3951 16.584 72.9204 16.7173 72.4938 16.984C72.0778 17.2507 71.7471 17.6133 71.5018 18.072C71.2564 18.5307 71.1338 19.0587 71.1338 19.656C71.1338 20.232 71.2564 20.7547 71.5018 21.224C71.7471 21.6827 72.0778 22.0453 72.4938 22.312C72.9204 22.5787 73.3951 22.712 73.9178 22.712C74.4618 22.712 74.9418 22.5733 75.3578 22.296C75.7738 22.008 76.0831 21.6293 76.2858 21.16L77.6138 21.832C77.4431 22.28 77.1711 22.68 76.7978 23.032C76.4244 23.3733 75.9924 23.6453 75.5018 23.848C75.0111 24.0507 74.4831 24.152 73.9178 24.152Z" fill="black"/>
<path d="M63.2426 24.152C62.6773 24.152 62.176 24.0507 61.7386 23.848C61.312 23.6347 60.976 23.3467 60.7306 22.984C60.4853 22.6107 60.3626 22.184 60.3626 21.704C60.3626 21.2453 60.4586 20.8347 60.6506 20.472C60.8533 20.0987 61.1626 19.784 61.5786 19.528C62.0053 19.272 62.5386 19.0907 63.1786 18.984L66.3786 18.456V19.704L63.5146 20.184C62.96 20.28 62.5546 20.456 62.2986 20.712C62.0533 20.968 61.9306 21.2827 61.9306 21.656C61.9306 22.008 62.0693 22.3013 62.3466 22.536C62.6346 22.7707 62.992 22.888 63.4186 22.888C63.9626 22.888 64.432 22.776 64.8266 22.552C65.232 22.3173 65.5466 22.0027 65.7706 21.608C66.0053 21.2133 66.1226 20.776 66.1226 20.296V18.104C66.1226 17.6347 65.9466 17.256 65.5946 16.968C65.2533 16.6693 64.8 16.52 64.2346 16.52C63.744 16.52 63.3066 16.648 62.9226 16.904C62.5493 17.1493 62.272 17.48 62.0906 17.896L60.7946 17.224C60.9546 16.8293 61.2106 16.4773 61.5626 16.168C61.9146 15.848 62.3253 15.5973 62.7946 15.416C63.264 15.2347 63.7546 15.144 64.2666 15.144C64.928 15.144 65.5093 15.272 66.0106 15.528C66.512 15.7733 66.9013 16.12 67.1786 16.568C67.4666 17.0053 67.6106 17.5173 67.6106 18.104V23.96H66.1546V22.328L66.4266 22.424C66.2453 22.7653 66 23.064 65.6906 23.32C65.3813 23.576 65.0186 23.7787 64.6026 23.928C64.1866 24.0773 63.7333 24.152 63.2426 24.152Z" fill="black"/>
<path d="M52 23.96V12.04H59.552V13.48H53.568V17.336H58.992V18.776H53.568V23.96H52Z" fill="black"/>
</g>
<rect x="1" y="1" width="142.611" height="34" rx="5" stroke="black" stroke-width="2"/>
<defs>
<clipPath id="clip0_7_169">
<rect width="144.611" height="36" rx="6" fill="white"/>
</clipPath>
<clipPath id="clip1_7_169">
<rect width="20" height="20" fill="white" transform="translate(8 8)"/>
</clipPath>
</defs>
</svg>
