<svg width="97" height="36" viewBox="0 0 97 36" fill="none" xmlns="http://www.w3.org/2000/svg">
<g clip-path="url(#clip0_9_68)">
<rect width="97" height="36" rx="6" fill="white"/>
<rect width="31" height="36" fill="black"/>
<path fill-rule="evenodd" clip-rule="evenodd" d="M20.211 12.3314L20.2085 12.3277C19.2668 11.5067 18.1331 10.9368 16.9124 10.6709C15.6918 10.4049 14.4238 10.4516 13.226 10.8064C12.0311 11.1674 10.9477 11.8262 10.0774 12.721C9.20714 13.6157 8.57864 14.717 8.25095 15.9214C7.57205 16.3947 7.01446 17.0215 6.62354 17.7509C6.23262 18.4803 6.01942 19.2917 6.00126 20.1191C5.98311 20.9465 6.16053 21.7664 6.51909 22.5123C6.87765 23.2582 7.40721 23.9088 8.0647 24.4114C8.98408 25.1117 10.1065 25.4934 11.2622 25.4989H19.4122C20.5463 25.5096 21.6538 25.1557 22.5716 24.4893C23.4893 23.8229 24.1688 22.8794 24.5097 21.7977C24.8462 20.7171 24.8246 19.5567 24.448 18.4894C24.0713 17.4222 23.3599 16.5052 22.4197 15.8752C22.0445 14.5039 21.2768 13.2722 20.211 12.3314ZM10.426 22.0564C10.6885 22.1752 10.9735 22.2564 11.2635 22.2564L19.4109 22.2589C20.5359 22.2589 21.4484 21.3527 21.4484 20.2352C21.4484 19.1177 20.5359 18.2114 19.4109 18.2114V17.8077C19.4222 17.1967 19.2946 16.5912 19.0375 16.0368C18.7805 15.4825 18.4008 14.9938 17.9272 14.6077H17.9247C16.251 13.2602 13.7935 13.4677 12.3435 15.0502L12.326 15.0689C13.571 15.3189 14.6972 16.0077 15.4822 17.0289L13.121 19.3764C12.9389 18.9756 12.6319 18.6445 12.2459 18.4328C11.86 18.221 11.4158 18.14 10.9799 18.2018C10.5441 18.2636 10.1399 18.4649 9.82801 18.7755C9.51611 19.0862 9.31321 19.4895 9.2497 19.9252C9.18796 20.3599 9.26948 20.803 9.48193 21.1873C9.69438 21.5716 10.0262 21.8762 10.4272 22.0552L10.426 22.0564Z" fill="white"/>
<rect width="68" height="36" transform="translate(30)" fill="#181818"/>
<path d="M72.6461 23.96V12.04H76.8541C77.6434 12.04 78.3367 12.1893 78.9341 12.488C79.5314 12.7867 79.9954 13.2133 80.3261 13.768C80.6674 14.3227 80.8381 14.9733 80.8381 15.72C80.8381 16.4667 80.6674 17.1173 80.3261 17.672C79.9954 18.216 79.5314 18.6427 78.9341 18.952C78.3474 19.2507 77.6541 19.4 76.8541 19.4H74.2141V23.96H72.6461ZM74.2141 17.96H76.9021C77.3821 17.96 77.7981 17.8693 78.1501 17.688C78.5021 17.5067 78.7741 17.2453 78.9661 16.904C79.1581 16.5627 79.2541 16.168 79.2541 15.72C79.2541 15.2613 79.1581 14.8667 78.9661 14.536C78.7741 14.1947 78.5021 13.9333 78.1501 13.752C77.7981 13.5707 77.3821 13.48 76.9021 13.48H74.2141V17.96Z" fill="white"/>
<path d="M65.6653 24.152C64.8227 24.152 64.044 24.0027 63.3293 23.704C62.6253 23.3947 62.0067 22.9627 61.4733 22.408C60.9507 21.8533 60.5453 21.2027 60.2573 20.456C59.9693 19.7093 59.8253 18.8933 59.8253 18.008C59.8253 17.112 59.9693 16.2907 60.2573 15.544C60.5453 14.7973 60.9507 14.1467 61.4733 13.592C61.996 13.0373 62.6147 12.6107 63.3293 12.312C64.044 12.0027 64.8227 11.848 65.6653 11.848C66.4867 11.848 67.2227 11.992 67.8733 12.28C68.5347 12.568 69.0893 12.9413 69.5373 13.4C69.996 13.8587 70.3213 14.3493 70.5133 14.872L69.0733 15.528C68.796 14.8667 68.364 14.3333 67.7773 13.928C67.1907 13.512 66.4867 13.304 65.6653 13.304C64.8333 13.304 64.092 13.5013 63.4413 13.896C62.8013 14.2907 62.3 14.84 61.9373 15.544C61.5747 16.248 61.3933 17.0693 61.3933 18.008C61.3933 18.936 61.5747 19.752 61.9373 20.456C62.3 21.16 62.8013 21.7093 63.4413 22.104C64.092 22.4987 64.8333 22.696 65.6653 22.696C66.4867 22.696 67.1907 22.4933 67.7773 22.088C68.364 21.672 68.796 21.1333 69.0733 20.472L70.5133 21.128C70.3213 21.6507 69.996 22.1413 69.5373 22.6C69.0893 23.0587 68.5347 23.432 67.8733 23.72C67.2227 24.008 66.4867 24.152 65.6653 24.152Z" fill="white"/>
<path d="M52.6032 24.152C51.7605 24.152 50.9819 24.0027 50.2672 23.704C49.5525 23.3947 48.9339 22.9627 48.4112 22.408C47.8885 21.8533 47.4779 21.2027 47.1792 20.456C46.8912 19.7093 46.7472 18.8933 46.7472 18.008C46.7472 17.112 46.8912 16.2907 47.1792 15.544C47.4672 14.7973 47.8725 14.1467 48.3952 13.592C48.9179 13.0373 49.5365 12.6107 50.2512 12.312C50.9659 12.0027 51.7445 11.848 52.5872 11.848C53.4085 11.848 54.1445 11.992 54.7952 12.28C55.4565 12.568 56.0112 12.9413 56.4592 13.4C56.9179 13.8587 57.2432 14.3493 57.4352 14.872L56.0272 15.56C55.7499 14.8667 55.3179 14.3173 54.7312 13.912C54.1445 13.5067 53.4299 13.304 52.5872 13.304C51.7552 13.304 51.0139 13.5013 50.3632 13.896C49.7232 14.2907 49.2219 14.84 48.8592 15.544C48.4965 16.248 48.3152 17.0693 48.3152 18.008C48.3152 18.936 48.4965 19.752 48.8592 20.456C49.2325 21.16 49.7392 21.7093 50.3792 22.104C51.0299 22.4987 51.7712 22.696 52.6032 22.696C53.3285 22.696 53.9845 22.5413 54.5712 22.232C55.1579 21.9227 55.6219 21.496 55.9632 20.952C56.3045 20.408 56.4752 19.7787 56.4752 19.064V18.328L57.1952 19H52.5872V17.64H58.0592V18.696C58.0592 19.528 57.9152 20.28 57.6272 20.952C57.3392 21.624 56.9445 22.2 56.4432 22.68C55.9419 23.1493 55.3605 23.512 54.6992 23.768C54.0379 24.024 53.3392 24.152 52.6032 24.152Z" fill="white"/>
</g>
<rect x="1" y="1" width="95" height="34" rx="5" stroke="black" stroke-width="2"/>
<defs>
<clipPath id="clip0_9_68">
<rect width="97" height="36" rx="6"/>
</clipPath>
</defs>
</svg>
