<svg width="212" height="36" viewBox="0 0 212 36" fill="none" xmlns="http://www.w3.org/2000/svg">
<g clip-path="url(#clip0_6_40)">
<rect width="211.791" height="36" rx="6" fill="white"/>
<rect width="36.7347" height="36" fill="black"/>
<path d="M23.806 18.5411C25.1104 17.7923 26.4051 17.0386 27.7143 16.2995C28.951 15.599 30.41 16.2463 30.6902 17.6135C30.8545 18.401 30.5018 19.2561 29.7868 19.6715C27.4486 21.0387 25.1056 22.3962 22.748 23.7344C22.0186 24.145 21.2697 24.0726 20.6031 23.5653C19.9316 23.0484 19.719 22.3382 19.8736 21.5121C20.0572 20.8793 20.4678 20.459 21.033 20.145C21.9654 19.6232 22.8833 19.0773 23.806 18.5411Z" fill="#FABC05"/>
<path d="M24.7626 18C23.463 17.2464 22.1635 16.4976 20.8688 15.7343C19.6417 15.0144 19.4726 13.425 20.5161 12.5023C21.12 11.9661 22.0379 11.8453 22.7529 12.2511C25.1056 13.599 27.4534 14.9468 29.7868 16.3188C30.5114 16.7439 30.8206 17.4299 30.7143 18.2609C30.6032 19.1015 30.096 19.6425 29.2989 19.9179C28.666 20.0773 28.0959 19.9276 27.5404 19.5991C26.6225 19.0483 25.6901 18.5314 24.7626 18Z" fill="#109D58"/>
<path d="M12.9314 17.4637C12.1005 17.9372 11.2647 18.4106 10.4338 18.8841C9.94588 19.1643 9.46278 19.4493 8.97485 19.7247C7.98932 20.2754 6.82022 19.9517 6.25982 18.9807C5.72841 18.058 6.03277 16.8599 6.98447 16.3043C9.30335 14.9468 11.6319 13.6038 13.9653 12.2753C14.6851 11.8646 15.4242 11.9178 16.0861 12.4057C16.7866 12.9178 17.0185 13.6424 16.859 14.4927C16.7624 14.7004 16.7044 14.9371 16.5595 15.1014C16.3228 15.3623 16.0523 15.6183 15.7527 15.8019C14.8204 16.3719 13.8735 16.913 12.9314 17.4637Z" fill="#E94436"/>
<path d="M11.9749 17.9952C12.801 18.4783 13.6271 18.9662 14.458 19.4493C14.9411 19.7343 15.4291 20.0049 15.9122 20.2947C16.8784 20.8696 17.1876 22.0484 16.6272 23.0146C16.0909 23.9421 14.9025 24.2755 13.946 23.7296C11.6126 22.3962 9.28404 21.0532 6.96515 19.6957C6.25017 19.2802 5.92649 18.6087 6.01828 17.7923C6.11007 16.9275 6.62698 16.3671 7.43859 16.0821C7.66565 16.0628 7.90237 15.9903 8.11493 16.0386C8.46277 16.1111 8.81543 16.2174 9.12461 16.3864C10.086 16.9034 11.028 17.4541 11.9749 17.9952Z" fill="#4385F3"/>
<path d="M191.423 23.488C190.858 23.488 190.356 23.3867 189.919 23.184C189.492 22.9707 189.156 22.6827 188.911 22.32C188.666 21.9467 188.543 21.52 188.543 21.04C188.543 20.5813 188.639 20.1707 188.831 19.808C189.034 19.4347 189.343 19.12 189.759 18.864C190.186 18.608 190.719 18.4267 191.359 18.32L194.559 17.792V19.04L191.695 19.52C191.14 19.616 190.735 19.792 190.479 20.048C190.234 20.304 190.111 20.6187 190.111 20.992C190.111 21.344 190.25 21.6373 190.527 21.872C190.815 22.1067 191.172 22.224 191.599 22.224C192.143 22.224 192.612 22.112 193.007 21.888C193.412 21.6533 193.727 21.3387 193.951 20.944C194.186 20.5493 194.303 20.112 194.303 19.632V17.44C194.303 16.9707 194.127 16.592 193.775 16.304C193.434 16.0053 192.98 15.856 192.415 15.856C191.924 15.856 191.487 15.984 191.103 16.24C190.73 16.4853 190.452 16.816 190.271 17.232L188.975 16.56C189.135 16.1653 189.391 15.8133 189.743 15.504C190.095 15.184 190.506 14.9333 190.975 14.752C191.444 14.5707 191.935 14.48 192.447 14.48C193.108 14.48 193.69 14.608 194.191 14.864C194.692 15.1093 195.082 15.456 195.359 15.904C195.647 16.3413 195.791 16.8533 195.791 17.44V23.296H194.335V21.664L194.607 21.76C194.426 22.1013 194.18 22.4 193.871 22.656C193.562 22.912 193.199 23.1147 192.783 23.264C192.367 23.4133 191.914 23.488 191.423 23.488Z" fill="black"/>
<path d="M183.144 23.488C182.312 23.488 181.571 23.2907 180.92 22.896C180.27 22.5013 179.758 21.9627 179.384 21.28C179.011 20.5867 178.824 19.8133 178.824 18.96C178.824 18.096 179.006 17.328 179.368 16.656C179.742 15.984 180.243 15.456 180.872 15.072C181.512 14.6773 182.227 14.48 183.016 14.48C183.656 14.48 184.222 14.5973 184.712 14.832C185.214 15.056 185.635 15.3653 185.976 15.76C186.328 16.144 186.595 16.5867 186.776 17.088C186.968 17.5787 187.064 18.0907 187.064 18.624C187.064 18.7413 187.054 18.8747 187.032 19.024C187.022 19.1627 187.006 19.296 186.984 19.424H179.912V18.144H186.12L185.416 18.72C185.512 18.1653 185.459 17.6693 185.256 17.232C185.054 16.7947 184.755 16.448 184.36 16.192C183.966 15.936 183.518 15.808 183.016 15.808C182.515 15.808 182.056 15.936 181.64 16.192C181.224 16.448 180.899 16.816 180.664 17.296C180.44 17.7653 180.35 18.3253 180.392 18.976C180.35 19.6053 180.446 20.16 180.68 20.64C180.926 21.1093 181.267 21.4773 181.704 21.744C182.152 22 182.638 22.128 183.16 22.128C183.736 22.128 184.222 21.9947 184.616 21.728C185.011 21.4613 185.331 21.12 185.576 20.704L186.824 21.344C186.654 21.7387 186.387 22.1013 186.024 22.432C185.672 22.752 185.251 23.008 184.76 23.2C184.28 23.392 183.742 23.488 183.144 23.488Z" fill="black"/>
<path d="M173.583 23.296V14.672H175.039V16.256L174.879 16.032C175.081 15.5413 175.391 15.1787 175.807 14.944C176.223 14.6987 176.729 14.576 177.327 14.576H177.855V15.984H177.103C176.495 15.984 176.004 16.176 175.631 16.56C175.257 16.9333 175.071 17.4667 175.071 18.16V23.296H173.583Z" fill="black"/>
<path d="M167.21 23.488C166.378 23.488 165.626 23.296 164.954 22.912C164.282 22.5173 163.749 21.9787 163.354 21.296C162.959 20.6133 162.762 19.84 162.762 18.976C162.762 18.112 162.954 17.344 163.338 16.672C163.733 16 164.266 15.4667 164.938 15.072C165.61 14.6773 166.367 14.48 167.21 14.48C168.042 14.48 168.794 14.6773 169.466 15.072C170.138 15.456 170.666 15.984 171.05 16.656C171.445 17.328 171.642 18.1013 171.642 18.976C171.642 19.8507 171.439 20.6293 171.034 21.312C170.629 21.984 170.09 22.5173 169.418 22.912C168.757 23.296 168.021 23.488 167.21 23.488ZM167.21 22.048C167.743 22.048 168.223 21.9147 168.65 21.648C169.087 21.3813 169.429 21.0133 169.674 20.544C169.93 20.0747 170.058 19.552 170.058 18.976C170.058 18.3893 169.93 17.872 169.674 17.424C169.429 16.9653 169.087 16.6027 168.65 16.336C168.223 16.0587 167.743 15.92 167.21 15.92C166.666 15.92 166.175 16.0587 165.738 16.336C165.311 16.6027 164.97 16.9653 164.714 17.424C164.458 17.872 164.33 18.3893 164.33 18.976C164.33 19.552 164.458 20.0747 164.714 20.544C164.97 21.0133 165.311 21.3813 165.738 21.648C166.175 21.9147 166.666 22.048 167.21 22.048Z" fill="black"/>
<path d="M153.009 23.296V11.376H154.577V18.08L154.193 17.92L159.889 11.376H161.857L157.073 16.896L157.153 15.776L162.097 23.296H160.225L156.449 17.632L154.577 19.776V23.296H153.009Z" fill="black"/>
<path d="M143.632 26.816C143.024 26.816 142.459 26.72 141.936 26.528C141.424 26.336 140.981 26.0693 140.608 25.728C140.245 25.3973 139.968 25.008 139.776 24.56L141.168 23.92C141.317 24.3253 141.6 24.6667 142.016 24.944C142.443 25.232 142.976 25.376 143.616 25.376C144.107 25.376 144.549 25.28 144.944 25.088C145.349 24.9067 145.669 24.6293 145.904 24.256C146.139 23.8933 146.256 23.4507 146.256 22.928V20.992L146.528 21.28C146.229 21.8667 145.797 22.3147 145.232 22.624C144.677 22.9333 144.064 23.088 143.392 23.088C142.581 23.088 141.856 22.9013 141.216 22.528C140.576 22.144 140.075 21.6267 139.712 20.976C139.349 20.3147 139.168 19.584 139.168 18.784C139.168 17.9733 139.349 17.2427 139.712 16.592C140.075 15.9413 140.571 15.4293 141.2 15.056C141.84 14.672 142.565 14.48 143.376 14.48C144.048 14.48 144.656 14.6347 145.2 14.944C145.755 15.2427 146.197 15.6587 146.528 16.192L146.304 16.592V14.672H147.76V22.928C147.76 23.6747 147.584 24.3413 147.232 24.928C146.88 25.5147 146.389 25.9733 145.76 26.304C145.141 26.6453 144.432 26.816 143.632 26.816ZM143.52 21.648C144.032 21.648 144.491 21.52 144.896 21.264C145.312 21.008 145.643 20.6667 145.888 20.24C146.133 19.8027 146.256 19.3173 146.256 18.784C146.256 18.2613 146.133 17.7813 145.888 17.344C145.643 16.9067 145.312 16.56 144.896 16.304C144.491 16.048 144.032 15.92 143.52 15.92C142.997 15.92 142.523 16.048 142.096 16.304C141.669 16.56 141.333 16.9067 141.088 17.344C140.853 17.7707 140.736 18.2507 140.736 18.784C140.736 19.3173 140.853 19.8027 141.088 20.24C141.333 20.6667 141.664 21.008 142.08 21.264C142.507 21.52 142.987 21.648 143.52 21.648Z" fill="black"/>
<path d="M130.239 23.296V14.672H131.695V16.352L131.455 16.208C131.668 15.664 132.01 15.2427 132.479 14.944C132.959 14.6347 133.519 14.48 134.159 14.48C134.778 14.48 135.327 14.6187 135.807 14.896C136.298 15.1733 136.682 15.5573 136.959 16.048C137.247 16.5387 137.391 17.0933 137.391 17.712V23.296H135.887V18.192C135.887 17.712 135.802 17.3067 135.631 16.976C135.46 16.6453 135.215 16.3893 134.895 16.208C134.586 16.016 134.228 15.92 133.823 15.92C133.418 15.92 133.055 16.016 132.735 16.208C132.426 16.3893 132.18 16.6507 131.999 16.992C131.818 17.3227 131.727 17.7227 131.727 18.192V23.296H130.239Z" fill="black"/>
<path d="M123.564 23.488C122.998 23.488 122.497 23.3867 122.06 23.184C121.633 22.9707 121.297 22.6827 121.052 22.32C120.806 21.9467 120.684 21.52 120.684 21.04C120.684 20.5813 120.78 20.1707 120.972 19.808C121.174 19.4347 121.484 19.12 121.9 18.864C122.326 18.608 122.86 18.4267 123.5 18.32L126.7 17.792V19.04L123.836 19.52C123.281 19.616 122.876 19.792 122.62 20.048C122.374 20.304 122.252 20.6187 122.252 20.992C122.252 21.344 122.39 21.6373 122.668 21.872C122.956 22.1067 123.313 22.224 123.74 22.224C124.284 22.224 124.753 22.112 125.148 21.888C125.553 21.6533 125.868 21.3387 126.092 20.944C126.326 20.5493 126.444 20.112 126.444 19.632V17.44C126.444 16.9707 126.268 16.592 125.916 16.304C125.574 16.0053 125.121 15.856 124.556 15.856C124.065 15.856 123.628 15.984 123.244 16.24C122.87 16.4853 122.593 16.816 122.412 17.232L121.116 16.56C121.276 16.1653 121.532 15.8133 121.884 15.504C122.236 15.184 122.646 14.9333 123.116 14.752C123.585 14.5707 124.076 14.48 124.588 14.48C125.249 14.48 125.83 14.608 126.332 14.864C126.833 15.1093 127.222 15.456 127.5 15.904C127.788 16.3413 127.932 16.8533 127.932 17.44V23.296H126.476V21.664L126.748 21.76C126.566 22.1013 126.321 22.4 126.012 22.656C125.702 22.912 125.34 23.1147 124.924 23.264C124.508 23.4133 124.054 23.488 123.564 23.488Z" fill="black"/>
<path d="M117.239 23.296V11.184H118.727V23.296H117.239Z" fill="black"/>
<path d="M110.866 23.488C110.034 23.488 109.282 23.296 108.61 22.912C107.938 22.5173 107.405 21.9787 107.01 21.296C106.615 20.6133 106.418 19.84 106.418 18.976C106.418 18.112 106.61 17.344 106.994 16.672C107.389 16 107.922 15.4667 108.594 15.072C109.266 14.6773 110.023 14.48 110.866 14.48C111.698 14.48 112.45 14.6773 113.122 15.072C113.794 15.456 114.322 15.984 114.706 16.656C115.101 17.328 115.298 18.1013 115.298 18.976C115.298 19.8507 115.095 20.6293 114.69 21.312C114.285 21.984 113.746 22.5173 113.074 22.912C112.413 23.296 111.677 23.488 110.866 23.488ZM110.866 22.048C111.399 22.048 111.879 21.9147 112.306 21.648C112.743 21.3813 113.085 21.0133 113.33 20.544C113.586 20.0747 113.714 19.552 113.714 18.976C113.714 18.3893 113.586 17.872 113.33 17.424C113.085 16.9653 112.743 16.6027 112.306 16.336C111.879 16.0587 111.399 15.92 110.866 15.92C110.322 15.92 109.831 16.0587 109.394 16.336C108.967 16.6027 108.626 16.9653 108.37 17.424C108.114 17.872 107.986 18.3893 107.986 18.976C107.986 19.552 108.114 20.0747 108.37 20.544C108.626 21.0133 108.967 21.3813 109.394 21.648C109.831 21.9147 110.322 22.048 110.866 22.048Z" fill="black"/>
<path d="M99.372 23.488C98.5293 23.488 97.7507 23.3387 97.036 23.04C96.3213 22.7307 95.7027 22.2987 95.18 21.744C94.6573 21.1893 94.2467 20.5387 93.948 19.792C93.66 19.0453 93.516 18.2293 93.516 17.344C93.516 16.448 93.66 15.6267 93.948 14.88C94.236 14.1333 94.6413 13.4827 95.164 12.928C95.6867 12.3733 96.3053 11.9467 97.02 11.648C97.7347 11.3387 98.5133 11.184 99.356 11.184C100.177 11.184 100.913 11.328 101.564 11.616C102.225 11.904 102.78 12.2773 103.228 12.736C103.687 13.1947 104.012 13.6853 104.204 14.208L102.796 14.896C102.519 14.2027 102.087 13.6533 101.5 13.248C100.913 12.8427 100.199 12.64 99.356 12.64C98.524 12.64 97.7827 12.8373 97.132 13.232C96.492 13.6267 95.9907 14.176 95.628 14.88C95.2653 15.584 95.084 16.4053 95.084 17.344C95.084 18.272 95.2653 19.088 95.628 19.792C96.0013 20.496 96.508 21.0453 97.148 21.44C97.7987 21.8347 98.54 22.032 99.372 22.032C100.097 22.032 100.753 21.8773 101.34 21.568C101.927 21.2587 102.391 20.832 102.732 20.288C103.073 19.744 103.244 19.1147 103.244 18.4V17.664L103.964 18.336H99.356V16.976H104.828V18.032C104.828 18.864 104.684 19.616 104.396 20.288C104.108 20.96 103.713 21.536 103.212 22.016C102.711 22.4853 102.129 22.848 101.468 23.104C100.807 23.36 100.108 23.488 99.372 23.488Z" fill="black"/>
<path d="M83.5282 23.488C82.6856 23.488 81.9069 23.3387 81.1922 23.04C80.4776 22.7307 79.8589 22.2987 79.3362 21.744C78.8136 21.1893 78.4029 20.5387 78.1042 19.792C77.8162 19.0453 77.6722 18.2293 77.6722 17.344C77.6722 16.448 77.8162 15.6267 78.1042 14.88C78.3922 14.1333 78.7976 13.4827 79.3202 12.928C79.8429 12.3733 80.4616 11.9467 81.1762 11.648C81.8909 11.3387 82.6696 11.184 83.5122 11.184C84.3336 11.184 85.0696 11.328 85.7202 11.616C86.3816 11.904 86.9362 12.2773 87.3842 12.736C87.8429 13.1947 88.1682 13.6853 88.3602 14.208L86.9522 14.896C86.6749 14.2027 86.2429 13.6533 85.6562 13.248C85.0696 12.8427 84.3549 12.64 83.5122 12.64C82.6802 12.64 81.9389 12.8373 81.2882 13.232C80.6482 13.6267 80.1469 14.176 79.7842 14.88C79.4216 15.584 79.2402 16.4053 79.2402 17.344C79.2402 18.272 79.4216 19.088 79.7842 19.792C80.1576 20.496 80.6642 21.0453 81.3042 21.44C81.9549 21.8347 82.6962 22.032 83.5282 22.032C84.2536 22.032 84.9096 21.8773 85.4962 21.568C86.0829 21.2587 86.5469 20.832 86.8882 20.288C87.2296 19.744 87.4002 19.1147 87.4002 18.4V17.664L88.1202 18.336H83.5122V16.976H88.9842V18.032C88.9842 18.864 88.8402 19.616 88.5522 20.288C88.2642 20.96 87.8696 21.536 87.3682 22.016C86.8669 22.4853 86.2856 22.848 85.6242 23.104C84.9629 23.36 84.2642 23.488 83.5282 23.488Z" fill="black"/>
<path d="M66.1649 23.296V11.376H70.0689C71.2742 11.376 72.3249 11.6213 73.2209 12.112C74.1169 12.6027 74.8102 13.296 75.3009 14.192C75.7915 15.0773 76.0369 16.1227 76.0369 17.328C76.0369 18.5227 75.7915 19.568 75.3009 20.464C74.8102 21.36 74.1169 22.0587 73.2209 22.56C72.3249 23.0507 71.2742 23.296 70.0689 23.296H66.1649ZM67.7329 21.856H70.0849C70.9702 21.856 71.7329 21.6693 72.3729 21.296C73.0235 20.9227 73.5249 20.4 73.8769 19.728C74.2289 19.0453 74.4049 18.2453 74.4049 17.328C74.4049 16.4 74.2235 15.6 73.8609 14.928C73.5089 14.256 73.0075 13.7387 72.3569 13.376C71.7169 13.0027 70.9595 12.816 70.0849 12.816H67.7329V21.856Z" fill="black"/>
<path d="M58.5907 23.488C57.7481 23.488 56.9694 23.3387 56.2547 23.04C55.5401 22.7307 54.9214 22.2987 54.3987 21.744C53.8761 21.1893 53.4654 20.5387 53.1667 19.792C52.8787 19.0453 52.7347 18.2293 52.7347 17.344C52.7347 16.448 52.8787 15.6267 53.1667 14.88C53.4547 14.1333 53.8601 13.4827 54.3827 12.928C54.9054 12.3733 55.5241 11.9467 56.2387 11.648C56.9534 11.3387 57.7321 11.184 58.5747 11.184C59.3961 11.184 60.1321 11.328 60.7827 11.616C61.4441 11.904 61.9987 12.2773 62.4467 12.736C62.9054 13.1947 63.2307 13.6853 63.4227 14.208L62.0147 14.896C61.7374 14.2027 61.3054 13.6533 60.7187 13.248C60.1321 12.8427 59.4174 12.64 58.5747 12.64C57.7427 12.64 57.0014 12.8373 56.3507 13.232C55.7107 13.6267 55.2094 14.176 54.8467 14.88C54.4841 15.584 54.3027 16.4053 54.3027 17.344C54.3027 18.272 54.4841 19.088 54.8467 19.792C55.2201 20.496 55.7267 21.0453 56.3667 21.44C57.0174 21.8347 57.7587 22.032 58.5907 22.032C59.3161 22.032 59.9721 21.8773 60.5587 21.568C61.1454 21.2587 61.6094 20.832 61.9507 20.288C62.2921 19.744 62.4627 19.1147 62.4627 18.4V17.664L63.1827 18.336H58.5747V16.976H64.0467V18.032C64.0467 18.864 63.9027 19.616 63.6147 20.288C63.3267 20.96 62.9321 21.536 62.4307 22.016C61.9294 22.4853 61.3481 22.848 60.6867 23.104C60.0254 23.36 59.3267 23.488 58.5907 23.488Z" fill="black"/>
</g>
<rect x="1" y="1" width="209.791" height="34" rx="5" stroke="black" stroke-width="2"/>
<defs>
<clipPath id="clip0_6_40">
<rect width="211.791" height="36" rx="6" fill="white"/>
</clipPath>
</defs>
</svg>
