<svg width="129" height="36" viewBox="0 0 129 36" fill="none" xmlns="http://www.w3.org/2000/svg">
<g clip-path="url(#clip0_6_20)">
<rect width="128.097" height="36" rx="6" fill="white"/>
<rect width="36.7347" height="36" fill="black"/>
<path d="M23.806 18.5411C25.1104 17.7923 26.4051 17.0386 27.7143 16.2995C28.951 15.599 30.41 16.2463 30.6902 17.6135C30.8545 18.401 30.5018 19.2561 29.7868 19.6715C27.4486 21.0387 25.1056 22.3962 22.748 23.7344C22.0186 24.145 21.2697 24.0726 20.6031 23.5653C19.9316 23.0484 19.719 22.3382 19.8736 21.5121C20.0572 20.8793 20.4678 20.459 21.033 20.145C21.9654 19.6232 22.8833 19.0773 23.806 18.5411Z" fill="#FABC05"/>
<path d="M24.7626 18C23.463 17.2464 22.1635 16.4975 20.8688 15.7342C19.6417 15.0144 19.4726 13.425 20.5161 12.5023C21.12 11.9661 22.0379 11.8453 22.7529 12.2511C25.1056 13.5989 27.4534 14.9468 29.7868 16.3188C30.5114 16.7439 30.8206 17.4299 30.7143 18.2609C30.6032 19.1015 30.096 19.6425 29.2989 19.9179C28.666 20.0773 28.0959 19.9276 27.5404 19.599C26.6225 19.0483 25.6901 18.5314 24.7626 18Z" fill="#109D58"/>
<path d="M12.9314 17.4637C12.1005 17.9372 11.2647 18.4106 10.4338 18.8841C9.94588 19.1643 9.46278 19.4493 8.97485 19.7247C7.98932 20.2754 6.82022 19.9517 6.25982 18.9807C5.72841 18.058 6.03277 16.8599 6.98447 16.3043C9.30335 14.9468 11.6319 13.6038 13.9653 12.2753C14.6851 11.8646 15.4242 11.9178 16.0861 12.4057C16.7866 12.9178 17.0185 13.6424 16.859 14.4927C16.7624 14.7004 16.7044 14.9371 16.5595 15.1014C16.3228 15.3623 16.0523 15.6183 15.7527 15.8019C14.8204 16.3719 13.8735 16.913 12.9314 17.4637Z" fill="#E94436"/>
<path d="M11.9749 17.9952C12.801 18.4783 13.6271 18.9662 14.458 19.4493C14.9411 19.7343 15.4291 20.0049 15.9122 20.2947C16.8784 20.8696 17.1876 22.0484 16.6272 23.0146C16.0909 23.9421 14.9025 24.2755 13.946 23.7296C11.6126 22.3962 9.28404 21.0532 6.96515 19.6957C6.25017 19.2802 5.92649 18.6087 6.01828 17.7923C6.11007 16.9275 6.62698 16.3671 7.43859 16.0821C7.66565 16.0628 7.90237 15.9903 8.11493 16.0386C8.46277 16.1111 8.81543 16.2174 9.12461 16.3864C10.086 16.9034 11.028 17.4541 11.9749 17.9952Z" fill="#4385F3"/>
<path d="M104.337 23.96V12.04H112.097V13.48H105.905V17.256H111.777V18.696H105.905V22.52H112.097V23.96H104.337Z" fill="black"/>
<path d="M92.4774 23.96V12.04H96.3814C97.5867 12.04 98.6374 12.2853 99.5334 12.776C100.429 13.2667 101.123 13.96 101.613 14.856C102.104 15.7413 102.349 16.7867 102.349 17.992C102.349 19.1867 102.104 20.232 101.613 21.128C101.123 22.024 100.429 22.7227 99.5334 23.224C98.6374 23.7147 97.5867 23.96 96.3814 23.96H92.4774ZM94.0454 22.52H96.3974C97.2827 22.52 98.0454 22.3333 98.6854 21.96C99.336 21.5867 99.8374 21.064 100.189 20.392C100.541 19.7093 100.717 18.9093 100.717 17.992C100.717 17.064 100.536 16.264 100.173 15.592C99.8214 14.92 99.32 14.4027 98.6694 14.04C98.0294 13.6667 97.272 13.48 96.3974 13.48H94.0454V22.52Z" fill="black"/>
<path d="M84.9032 24.152C84.0606 24.152 83.2819 24.0027 82.5672 23.704C81.8526 23.3947 81.2339 22.9627 80.7112 22.408C80.1886 21.8533 79.7779 21.2027 79.4792 20.456C79.1912 19.7093 79.0472 18.8933 79.0472 18.008C79.0472 17.112 79.1912 16.2907 79.4792 15.544C79.7672 14.7973 80.1726 14.1467 80.6952 13.592C81.2179 13.0373 81.8366 12.6107 82.5512 12.312C83.2659 12.0027 84.0446 11.848 84.8872 11.848C85.7086 11.848 86.4446 11.992 87.0952 12.28C87.7566 12.568 88.3112 12.9413 88.7592 13.4C89.2179 13.8587 89.5432 14.3493 89.7352 14.872L88.3272 15.56C88.0499 14.8667 87.6179 14.3173 87.0312 13.912C86.4446 13.5067 85.7299 13.304 84.8872 13.304C84.0552 13.304 83.3139 13.5013 82.6632 13.896C82.0232 14.2907 81.5219 14.84 81.1592 15.544C80.7966 16.248 80.6152 17.0693 80.6152 18.008C80.6152 18.936 80.7966 19.752 81.1592 20.456C81.5326 21.16 82.0392 21.7093 82.6792 22.104C83.3299 22.4987 84.0712 22.696 84.9032 22.696C85.6286 22.696 86.2846 22.5413 86.8712 22.232C87.4579 21.9227 87.9219 21.496 88.2632 20.952C88.6046 20.408 88.7752 19.7787 88.7752 19.064V18.328L89.4952 19H84.8872V17.64H90.3592V18.696C90.3592 19.528 90.2152 20.28 89.9272 20.952C89.6392 21.624 89.2446 22.2 88.7432 22.68C88.2419 23.1493 87.6606 23.512 86.9992 23.768C86.3379 24.024 85.6392 24.152 84.9032 24.152Z" fill="black"/>
<path d="M70.0849 24.152C69.2529 24.152 68.5009 23.96 67.8289 23.576C67.1569 23.1813 66.6235 22.6427 66.2289 21.96C65.8342 21.2773 65.6369 20.504 65.6369 19.64C65.6369 18.776 65.8289 18.008 66.2129 17.336C66.6075 16.664 67.1409 16.1307 67.8129 15.736C68.4849 15.3413 69.2422 15.144 70.0849 15.144C70.9169 15.144 71.6689 15.3413 72.3409 15.736C73.0129 16.12 73.5409 16.648 73.9249 17.32C74.3195 17.992 74.5169 18.7653 74.5169 19.64C74.5169 20.5147 74.3142 21.2933 73.9089 21.976C73.5035 22.648 72.9649 23.1813 72.2929 23.576C71.6315 23.96 70.8955 24.152 70.0849 24.152ZM70.0849 22.712C70.6182 22.712 71.0982 22.5787 71.5249 22.312C71.9622 22.0453 72.3035 21.6773 72.5489 21.208C72.8049 20.7387 72.9329 20.216 72.9329 19.64C72.9329 19.0533 72.8049 18.536 72.5489 18.088C72.3035 17.6293 71.9622 17.2667 71.5249 17C71.0982 16.7227 70.6182 16.584 70.0849 16.584C69.5409 16.584 69.0502 16.7227 68.6129 17C68.1862 17.2667 67.8449 17.6293 67.5889 18.088C67.3329 18.536 67.2049 19.0533 67.2049 19.64C67.2049 20.216 67.3329 20.7387 67.5889 21.208C67.8449 21.6773 68.1862 22.0453 68.6129 22.312C69.0502 22.5787 69.5409 22.712 70.0849 22.712Z" fill="black"/>
<path d="M58.5907 24.152C57.7481 24.152 56.9694 24.0027 56.2547 23.704C55.5401 23.3947 54.9214 22.9627 54.3987 22.408C53.8761 21.8533 53.4654 21.2027 53.1667 20.456C52.8787 19.7093 52.7347 18.8933 52.7347 18.008C52.7347 17.112 52.8787 16.2907 53.1667 15.544C53.4547 14.7973 53.8601 14.1467 54.3827 13.592C54.9054 13.0373 55.5241 12.6107 56.2387 12.312C56.9534 12.0027 57.7321 11.848 58.5747 11.848C59.3961 11.848 60.1321 11.992 60.7827 12.28C61.4441 12.568 61.9987 12.9413 62.4467 13.4C62.9054 13.8587 63.2307 14.3493 63.4227 14.872L62.0147 15.56C61.7374 14.8667 61.3054 14.3173 60.7187 13.912C60.1321 13.5067 59.4174 13.304 58.5747 13.304C57.7427 13.304 57.0014 13.5013 56.3507 13.896C55.7107 14.2907 55.2094 14.84 54.8467 15.544C54.4841 16.248 54.3027 17.0693 54.3027 18.008C54.3027 18.936 54.4841 19.752 54.8467 20.456C55.2201 21.16 55.7267 21.7093 56.3667 22.104C57.0174 22.4987 57.7587 22.696 58.5907 22.696C59.3161 22.696 59.9721 22.5413 60.5587 22.232C61.1454 21.9227 61.6094 21.496 61.9507 20.952C62.2921 20.408 62.4627 19.7787 62.4627 19.064V18.328L63.1827 19H58.5747V17.64H64.0467V18.696C64.0467 19.528 63.9027 20.28 63.6147 20.952C63.3267 21.624 62.9321 22.2 62.4307 22.68C61.9294 23.1493 61.3481 23.512 60.6867 23.768C60.0254 24.024 59.3267 24.152 58.5907 24.152Z" fill="black"/>
</g>
<rect x="1" y="1" width="126.097" height="34" rx="5" stroke="black" stroke-width="2"/>
<defs>
<clipPath id="clip0_6_20">
<rect width="128.097" height="36" rx="6" fill="white"/>
</clipPath>
</defs>
</svg>
