<svg width="93" height="36" viewBox="0 0 93 36" fill="none" xmlns="http://www.w3.org/2000/svg">
<g clip-path="url(#clip0_9_85)">
<rect width="91" height="34" fill="#181818" rx="6" ry="6" x="1" y="1" stroke-width="2" stroke="black" />
<rect width="39" height="36" fill="black"/>
<path d="M8.07431 16.0279C8.02078 16.0279 8.0074 16.0018 8.03416 15.9627L8.3152 15.6109C8.34196 15.5718 8.40888 15.5457 8.46241 15.5457H13.24C13.2935 15.5457 13.3069 15.5848 13.2801 15.6239L13.0526 15.9627C13.0258 16.0018 12.9589 16.0409 12.9188 16.0409L8.07431 16.0279Z" fill="white"/>
<path d="M6.05353 17.2268C6 17.2268 5.98662 17.2007 6.01338 17.1617L6.29442 16.8098C6.32118 16.7707 6.38809 16.7446 6.44162 16.7446H12.5441C12.5976 16.7446 12.6243 16.7837 12.611 16.8228L12.5039 17.1356C12.4905 17.1877 12.437 17.2138 12.3835 17.2138L6.05353 17.2268Z" fill="white"/>
<path d="M9.29212 18.4258C9.23859 18.4258 9.2252 18.3867 9.25197 18.3476L9.43932 18.0218C9.46609 17.9827 9.51962 17.9436 9.57315 17.9436H12.2497C12.3032 17.9436 12.3299 17.9827 12.3299 18.0348L12.3032 18.3476C12.3032 18.3997 12.2497 18.4388 12.2095 18.4388L9.29212 18.4258Z" fill="white"/>
<path d="M23.1832 15.7933C22.3401 16.0018 21.7646 16.1582 20.9349 16.3667C20.7342 16.4189 20.7208 16.4319 20.5468 16.2364C20.3461 16.0149 20.1989 15.8715 19.9178 15.7412C19.0747 15.3372 18.2584 15.4545 17.4956 15.9367C16.5856 16.5101 16.1172 17.3572 16.1306 18.4127C16.144 19.4553 16.88 20.3154 17.9372 20.4588C18.8472 20.5761 19.61 20.2633 20.2122 19.5987C20.3327 19.4553 20.4397 19.2989 20.5736 19.1165C20.0918 19.1165 19.4896 19.1165 17.9907 19.1165C17.7097 19.1165 17.6428 18.9471 17.7365 18.7255C17.9104 18.3215 18.2316 17.6439 18.419 17.305C18.4591 17.2268 18.5528 17.0965 18.7535 17.0965C19.4361 17.0965 21.952 17.0965 23.6248 17.0965C23.598 17.4484 23.598 17.8002 23.5445 18.1521C23.3973 19.0904 23.0359 19.9505 22.4471 20.7064C21.4836 21.9444 20.2256 22.7133 18.6331 22.9218C17.3216 23.0912 16.1038 22.8436 15.0332 22.0617C14.0429 21.3319 13.4808 20.3675 13.3336 19.1686C13.1596 17.7481 13.5879 16.471 14.4711 15.3502C15.4213 14.1383 16.6793 13.3694 18.2182 13.0957C19.4762 12.8742 20.6806 13.0175 21.7646 13.7343C22.4739 14.1904 22.9824 14.8159 23.317 15.5718C23.3973 15.6891 23.3437 15.7542 23.1832 15.7933Z" fill="white"/>
<path d="M27.6128 23C26.395 22.9739 25.2842 22.6351 24.3475 21.8532C23.5579 21.1886 23.0627 20.3415 22.9021 19.338C22.6613 17.8654 23.0761 16.5622 23.9861 15.4024C24.9631 14.1513 26.1407 13.4997 27.7332 13.226C29.0983 12.9914 30.383 13.1218 31.5473 13.8907C32.6045 14.5944 33.2602 15.5457 33.4342 16.7968C33.6617 18.5561 33.1398 19.9896 31.8952 21.2146C31.012 22.0878 29.928 22.6351 28.6834 22.8827C28.3221 22.9479 27.9607 22.9609 27.6128 23ZM30.7978 17.7351C30.7844 17.5657 30.7844 17.4354 30.7577 17.305C30.5168 16.0149 29.299 15.2851 28.0277 15.5718C26.7831 15.8455 25.9801 16.6143 25.6857 17.8393C25.4448 18.8558 25.9534 19.8854 26.9169 20.3024C27.6529 20.6152 28.389 20.5761 29.0983 20.2242C30.1555 19.6899 30.7309 18.8558 30.7978 17.7351Z" fill="white"/>
<path d="M72.8362 24.152C72.0042 24.152 71.2522 23.96 70.5802 23.576C69.9082 23.1813 69.3749 22.6427 68.9802 21.96C68.5855 21.2773 68.3882 20.504 68.3882 19.64C68.3882 18.776 68.5802 18.008 68.9642 17.336C69.3589 16.664 69.8922 16.1307 70.5642 15.736C71.2362 15.3413 71.9935 15.144 72.8362 15.144C73.6682 15.144 74.4202 15.3413 75.0922 15.736C75.7642 16.12 76.2922 16.648 76.6762 17.32C77.0709 17.992 77.2682 18.7653 77.2682 19.64C77.2682 20.5147 77.0655 21.2933 76.6602 21.976C76.2549 22.648 75.7162 23.1813 75.0442 23.576C74.3829 23.96 73.6469 24.152 72.8362 24.152ZM72.8362 22.712C73.3695 22.712 73.8495 22.5787 74.2762 22.312C74.7135 22.0453 75.0548 21.6773 75.3002 21.208C75.5562 20.7387 75.6842 20.216 75.6842 19.64C75.6842 19.0533 75.5562 18.536 75.3002 18.088C75.0548 17.6293 74.7135 17.2667 74.2762 17C73.8495 16.7227 73.3695 16.584 72.8362 16.584C72.2922 16.584 71.8015 16.7227 71.3642 17C70.9375 17.2667 70.5962 17.6293 70.3402 18.088C70.0842 18.536 69.9562 19.0533 69.9562 19.64C69.9562 20.216 70.0842 20.7387 70.3402 21.208C70.5962 21.6773 70.9375 22.0453 71.3642 22.312C71.8015 22.5787 72.2922 22.712 72.8362 22.712Z" fill="white"/>
<path d="M61.3421 24.152C60.4994 24.152 59.7207 24.0027 59.0061 23.704C58.2914 23.3947 57.6727 22.9627 57.1501 22.408C56.6274 21.8533 56.2167 21.2027 55.9181 20.456C55.6301 19.7093 55.4861 18.8933 55.4861 18.008C55.4861 17.112 55.6301 16.2907 55.9181 15.544C56.2061 14.7973 56.6114 14.1467 57.1341 13.592C57.6567 13.0373 58.2754 12.6107 58.9901 12.312C59.7047 12.0027 60.4834 11.848 61.3261 11.848C62.1474 11.848 62.8834 11.992 63.5341 12.28C64.1954 12.568 64.7501 12.9413 65.1981 13.4C65.6567 13.8587 65.9821 14.3493 66.1741 14.872L64.7661 15.56C64.4887 14.8667 64.0567 14.3173 63.4701 13.912C62.8834 13.5067 62.1687 13.304 61.3261 13.304C60.4941 13.304 59.7527 13.5013 59.1021 13.896C58.4621 14.2907 57.9607 14.84 57.5981 15.544C57.2354 16.248 57.0541 17.0693 57.0541 18.008C57.0541 18.936 57.2354 19.752 57.5981 20.456C57.9714 21.16 58.4781 21.7093 59.1181 22.104C59.7687 22.4987 60.5101 22.696 61.3421 22.696C62.0674 22.696 62.7234 22.5413 63.3101 22.232C63.8967 21.9227 64.3607 21.496 64.7021 20.952C65.0434 20.408 65.2141 19.7787 65.2141 19.064V18.328L65.9341 19H61.3261V17.64H66.7981V18.696C66.7981 19.528 66.6541 20.28 66.3661 20.952C66.0781 21.624 65.6834 22.2 65.1821 22.68C64.6807 23.1493 64.0994 23.512 63.4381 23.768C62.7767 24.024 62.0781 24.152 61.3421 24.152Z" fill="white"/>
</g>
<defs>
<clipPath id="clip0_9_85">
<rect width="93" height="36" rx="6"/>
</clipPath>
</defs>
</svg>
