<svg width="124" height="36" viewBox="0 0 124 36" fill="none" xmlns="http://www.w3.org/2000/svg">
<rect width="122" height="34" fill="white" rx="6" ry="6" x="1" y="1" stroke-width="2" stroke="black" />
<path d="M6 0H36V36H6C2.68629 36 0 33.3137 0 30V6C0 2.68629 2.68629 0 6 0Z" fill="black"/>
<path d="M17.9998 16.1818V20.0545H23.3817C23.1453 21.3 22.4361 22.3546 21.3725 23.0636L24.618 25.5818C26.5089 23.8365 27.5998 21.2728 27.5998 18.2273C27.5998 17.5183 27.5362 16.8364 27.418 16.1819L17.9998 16.1818Z" fill="#AAAAAA"/>
<path d="M12.3956 19.9034L11.6636 20.4637L9.07264 22.4818C10.7181 25.7454 14.0906 28 17.9996 28C20.6996 28 22.9632 27.1091 24.6177 25.5819L21.3723 23.0636C20.4814 23.6636 19.345 24.0273 17.9996 24.0273C15.3996 24.0273 13.1906 22.2728 12.3996 19.9091L12.3956 19.9034Z" fill="#CACACA"/>
<path d="M9.07265 13.5182C8.39087 14.8636 8 16.3818 8 17.9999C8 19.6181 8.39087 21.1363 9.07265 22.4817C9.07265 22.4907 12.4 19.8999 12.4 19.8999C12.2 19.2999 12.0818 18.6636 12.0818 17.9998C12.0818 17.3361 12.2 16.6998 12.4 16.0998L9.07265 13.5182Z" fill="#DFDFDF"/>
<path d="M17.9998 11.9818C19.4726 11.9818 20.7816 12.4909 21.8271 13.4727L24.6907 10.6091C22.9543 8.99097 20.6999 8 17.9998 8C14.0908 8 10.7181 10.2455 9.07264 13.5182L12.3999 16.1C13.1907 13.7363 15.3998 11.9818 17.9998 11.9818Z" fill="white"/>
<path d="M104.503 22.488C103.671 22.488 102.93 22.2907 102.279 21.896C101.629 21.5013 101.117 20.9627 100.743 20.28C100.37 19.5867 100.183 18.8133 100.183 17.96C100.183 17.096 100.365 16.328 100.727 15.656C101.101 14.984 101.602 14.456 102.231 14.072C102.871 13.6773 103.586 13.48 104.375 13.48C105.015 13.48 105.581 13.5973 106.071 13.832C106.573 14.056 106.994 14.3653 107.335 14.76C107.687 15.144 107.954 15.5867 108.135 16.088C108.327 16.5787 108.423 17.0907 108.423 17.624C108.423 17.7413 108.413 17.8747 108.391 18.024C108.381 18.1627 108.365 18.296 108.343 18.424H101.271V17.144H107.479L106.775 17.72C106.871 17.1653 106.818 16.6693 106.615 16.232C106.413 15.7947 106.114 15.448 105.719 15.192C105.325 14.936 104.877 14.808 104.375 14.808C103.874 14.808 103.415 14.936 102.999 15.192C102.583 15.448 102.258 15.816 102.023 16.296C101.799 16.7653 101.709 17.3253 101.751 17.976C101.709 18.6053 101.805 19.16 102.039 19.64C102.285 20.1093 102.626 20.4773 103.063 20.744C103.511 21 103.997 21.128 104.519 21.128C105.095 21.128 105.581 20.9947 105.975 20.728C106.37 20.4613 106.69 20.12 106.935 19.704L108.183 20.344C108.013 20.7387 107.746 21.1013 107.383 21.432C107.031 21.752 106.61 22.008 106.119 22.2C105.639 22.392 105.101 22.488 104.503 22.488Z" fill="black"/>
<path d="M96.7385 22.296V10.184H98.2265V22.296H96.7385Z" fill="black"/>
<path d="M90.3036 25.816C89.6956 25.816 89.1303 25.72 88.6076 25.528C88.0956 25.336 87.653 25.0693 87.2796 24.728C86.917 24.3973 86.6396 24.008 86.4476 23.56L87.8396 22.92C87.989 23.3253 88.2716 23.6667 88.6876 23.944C89.1143 24.232 89.6476 24.376 90.2876 24.376C90.7783 24.376 91.221 24.28 91.6156 24.088C92.021 23.9067 92.341 23.6293 92.5756 23.256C92.8103 22.8933 92.9276 22.4507 92.9276 21.928V19.992L93.1996 20.28C92.901 20.8667 92.469 21.3147 91.9036 21.624C91.349 21.9333 90.7356 22.088 90.0636 22.088C89.253 22.088 88.5276 21.9013 87.8876 21.528C87.2476 21.144 86.7463 20.6267 86.3836 19.976C86.021 19.3147 85.8396 18.584 85.8396 17.784C85.8396 16.9733 86.021 16.2427 86.3836 15.592C86.7463 14.9413 87.2423 14.4293 87.8716 14.056C88.5116 13.672 89.237 13.48 90.0476 13.48C90.7196 13.48 91.3276 13.6347 91.8716 13.944C92.4263 14.2427 92.869 14.6587 93.1996 15.192L92.9756 15.592V13.672H94.4316V21.928C94.4316 22.6747 94.2556 23.3413 93.9036 23.928C93.5516 24.5147 93.061 24.9733 92.4316 25.304C91.813 25.6453 91.1036 25.816 90.3036 25.816ZM90.1916 20.648C90.7036 20.648 91.1623 20.52 91.5676 20.264C91.9836 20.008 92.3143 19.6667 92.5596 19.24C92.805 18.8027 92.9276 18.3173 92.9276 17.784C92.9276 17.2613 92.805 16.7813 92.5596 16.344C92.3143 15.9067 91.9836 15.56 91.5676 15.304C91.1623 15.048 90.7036 14.92 90.1916 14.92C89.669 14.92 89.1943 15.048 88.7676 15.304C88.341 15.56 88.005 15.9067 87.7596 16.344C87.525 16.7707 87.4076 17.2507 87.4076 17.784C87.4076 18.3173 87.525 18.8027 87.7596 19.24C88.005 19.6667 88.3356 20.008 88.7516 20.264C89.1783 20.52 89.6583 20.648 90.1916 20.648Z" fill="black"/>
<path d="M79.8189 22.488C78.9869 22.488 78.2349 22.296 77.5629 21.912C76.8909 21.5173 76.3575 20.9787 75.9629 20.296C75.5682 19.6133 75.3709 18.84 75.3709 17.976C75.3709 17.112 75.5629 16.344 75.9469 15.672C76.3415 15 76.8749 14.4667 77.5469 14.072C78.2189 13.6773 78.9762 13.48 79.8189 13.48C80.6509 13.48 81.4029 13.6773 82.0749 14.072C82.7469 14.456 83.2749 14.984 83.6589 15.656C84.0535 16.328 84.2509 17.1013 84.2509 17.976C84.2509 18.8507 84.0482 19.6293 83.6429 20.312C83.2375 20.984 82.6989 21.5173 82.0269 21.912C81.3655 22.296 80.6295 22.488 79.8189 22.488ZM79.8189 21.048C80.3522 21.048 80.8322 20.9147 81.2589 20.648C81.6962 20.3813 82.0375 20.0133 82.2829 19.544C82.5389 19.0747 82.6669 18.552 82.6669 17.976C82.6669 17.3893 82.5389 16.872 82.2829 16.424C82.0375 15.9653 81.6962 15.6027 81.2589 15.336C80.8322 15.0587 80.3522 14.92 79.8189 14.92C79.2749 14.92 78.7842 15.0587 78.3469 15.336C77.9202 15.6027 77.5789 15.9653 77.3229 16.424C77.0669 16.872 76.9389 17.3893 76.9389 17.976C76.9389 18.552 77.0669 19.0747 77.3229 19.544C77.5789 20.0133 77.9202 20.3813 78.3469 20.648C78.7842 20.9147 79.2749 21.048 79.8189 21.048Z" fill="black"/>
<path d="M69.3501 22.488C68.5181 22.488 67.7661 22.296 67.0941 21.912C66.4221 21.5173 65.8888 20.9787 65.4941 20.296C65.0995 19.6133 64.9021 18.84 64.9021 17.976C64.9021 17.112 65.0941 16.344 65.4781 15.672C65.8728 15 66.4061 14.4667 67.0781 14.072C67.7501 13.6773 68.5075 13.48 69.3501 13.48C70.1821 13.48 70.9341 13.6773 71.6061 14.072C72.2781 14.456 72.8061 14.984 73.1901 15.656C73.5848 16.328 73.7821 17.1013 73.7821 17.976C73.7821 18.8507 73.5795 19.6293 73.1741 20.312C72.7688 20.984 72.2301 21.5173 71.5581 21.912C70.8968 22.296 70.1608 22.488 69.3501 22.488ZM69.3501 21.048C69.8835 21.048 70.3635 20.9147 70.7901 20.648C71.2275 20.3813 71.5688 20.0133 71.8141 19.544C72.0701 19.0747 72.1981 18.552 72.1981 17.976C72.1981 17.3893 72.0701 16.872 71.8141 16.424C71.5688 15.9653 71.2275 15.6027 70.7901 15.336C70.3635 15.0587 69.8835 14.92 69.3501 14.92C68.8061 14.92 68.3155 15.0587 67.8781 15.336C67.4515 15.6027 67.1101 15.9653 66.8541 16.424C66.5981 16.872 66.4701 17.3893 66.4701 17.976C66.4701 18.552 66.5981 19.0747 66.8541 19.544C67.1101 20.0133 67.4515 20.3813 67.8781 20.648C68.3155 20.9147 68.8061 21.048 69.3501 21.048Z" fill="black"/>
<path d="M57.856 22.488C57.0133 22.488 56.2347 22.3387 55.52 22.04C54.8053 21.7307 54.1867 21.2987 53.664 20.744C53.1413 20.1893 52.7307 19.5387 52.432 18.792C52.144 18.0453 52 17.2293 52 16.344C52 15.448 52.144 14.6267 52.432 13.88C52.72 13.1333 53.1253 12.4827 53.648 11.928C54.1707 11.3733 54.7893 10.9467 55.504 10.648C56.2187 10.3387 56.9973 10.184 57.84 10.184C58.6613 10.184 59.3973 10.328 60.048 10.616C60.7093 10.904 61.264 11.2773 61.712 11.736C62.1707 12.1947 62.496 12.6853 62.688 13.208L61.28 13.896C61.0027 13.2027 60.5707 12.6533 59.984 12.248C59.3973 11.8427 58.6827 11.64 57.84 11.64C57.008 11.64 56.2667 11.8373 55.616 12.232C54.976 12.6267 54.4747 13.176 54.112 13.88C53.7493 14.584 53.568 15.4053 53.568 16.344C53.568 17.272 53.7493 18.088 54.112 18.792C54.4853 19.496 54.992 20.0453 55.632 20.44C56.2827 20.8347 57.024 21.032 57.856 21.032C58.5813 21.032 59.2373 20.8773 59.824 20.568C60.4107 20.2587 60.8747 19.832 61.216 19.288C61.5573 18.744 61.728 18.1147 61.728 17.4V16.664L62.448 17.336H57.84V15.976H63.312V17.032C63.312 17.864 63.168 18.616 62.88 19.288C62.592 19.96 62.1973 20.536 61.696 21.016C61.1947 21.4853 60.6133 21.848 59.952 22.104C59.2907 22.36 58.592 22.488 57.856 22.488Z" fill="black"/>
</svg>
