<svg width="102" height="36" viewBox="0 0 102 36" fill="none" xmlns="http://www.w3.org/2000/svg">
<g clip-path="url(#clip0_9_233)">
<rect width="100" height="34" fill="#181818" rx="6" ry="6" x="1" y="1" stroke-width="2" stroke="black" />
<rect width="32" height="36" fill="black"/>
<path d="M11.3765 12.7374L11.4311 12.789C11.3853 12.8356 11.3396 12.8816 11.2942 12.9272L11.1587 13.0632C11.0239 13.1985 10.8917 13.3323 10.764 13.4703L10.7378 13.4988L10.7118 13.5276L10.686 13.5564L10.6606 13.5853L10.623 13.6287L10.5984 13.6575L10.5742 13.6862L10.5505 13.7148L10.5272 13.7431L10.5045 13.7712L10.4714 13.8127L10.4396 13.8534L10.4192 13.8799L10.3995 13.906L10.3714 13.9439C10.3698 13.946 10.3683 13.9481 10.3668 13.9502C10.3653 13.9522 10.3638 13.9542 10.3623 13.9563L10.3365 13.9923L10.3203 14.0154L10.2976 14.0486L10.277 14.0798L10.2644 14.0994L10.2529 14.1181L10.2424 14.1358L10.2329 14.1523L10.2246 14.1677C10.222 14.1727 10.2196 14.1774 10.2174 14.182L10.2114 14.195C10.2069 14.2053 10.2036 14.2143 10.2017 14.2218L10.7808 14.2214C11.0268 14.2213 11.2727 14.2215 11.5187 14.2232C11.5792 14.2255 11.6372 14.1991 11.6752 14.152C11.8862 13.9194 12.1162 13.7048 12.3628 13.5103L12.3924 13.4868C13.3418 12.7372 14.498 12.2956 15.706 12.2218L15.7572 12.2186C16.1496 12.1956 16.5434 12.2126 16.9325 12.2692C18.3054 12.4652 19.5677 13.1316 20.5041 14.1546C20.5337 14.1965 20.5814 14.2219 20.6326 14.2231C20.9198 14.2213 21.2069 14.2214 21.4941 14.2214C21.6361 14.2214 21.7781 14.2214 21.9201 14.2212C21.9432 14.219 21.9661 14.215 21.9885 14.2092C21.6786 13.7523 21.3172 13.3326 20.9114 12.9583C20.9137 12.9561 20.9159 12.9541 20.9179 12.9522L20.9341 12.9368L20.9471 12.9249C20.9481 12.9239 20.9491 12.923 20.9502 12.9222C20.9518 12.9208 20.9535 12.9195 20.9551 12.9182L20.9861 12.8938C21.3863 12.5751 21.7034 12.1837 21.9715 11.7504L21.9923 11.7172C22.1773 11.4172 22.3168 11.0914 22.4061 10.7504C22.4409 10.6135 22.4515 10.4715 22.4375 10.331C22.4187 10.1403 22.3122 9.98065 22.0585 10.0097C22.0077 10.0156 21.9578 10.0271 21.9095 10.0439C21.7343 10.1069 21.572 10.2014 21.4307 10.3227C20.8253 10.8238 20.3652 11.4778 20.098 12.2168C20.0947 12.2258 20.0908 12.2345 20.0868 12.2429L20.0748 12.2668L20.0694 12.2777C20.0053 12.2413 19.9419 12.2044 19.8789 12.1675L19.7532 12.0941C19.6069 12.0088 19.4612 11.9256 19.3113 11.8508C19.0512 11.7199 18.7838 11.6041 18.5105 11.5037C18.2393 11.407 17.9629 11.3258 17.6825 11.2606C17.5186 11.2216 17.3526 11.1914 17.1855 11.1624L16.97 11.1252C16.922 11.1169 16.874 11.1083 16.8259 11.0995C16.9014 10.8364 16.9488 10.5661 16.9673 10.293C17.0047 9.84557 16.9757 9.3951 16.8813 8.95617C16.84 8.74859 16.7681 8.54827 16.6682 8.36169C16.6145 8.25168 16.533 8.15766 16.4316 8.08902C16.3334 8.02159 16.2036 8.02249 16.1063 8.09129C16.0586 8.12341 16.0155 8.16185 15.9781 8.20557C15.8793 8.32796 15.8041 8.46767 15.7563 8.61756C15.6576 8.90216 15.597 9.19859 15.5763 9.49911C15.5291 10.0006 15.5654 10.5064 15.6837 10.996L15.6865 11.0075C15.6882 11.0151 15.6899 11.0229 15.6915 11.0311L15.699 11.0704L15.7019 11.0851C14.5424 11.1491 13.416 11.4947 12.4202 12.0921C12.4186 12.0908 12.4172 12.0895 12.4159 12.0883L12.4016 12.0761C12.3998 12.0744 12.3985 12.0729 12.3975 12.0711C12.3916 12.0598 12.3863 12.0482 12.3817 12.0362C12.1714 11.5361 11.8734 11.0776 11.5019 10.6822L11.4809 10.6595C11.2775 10.4415 11.0559 10.2437 10.7861 10.1084C10.7123 10.0701 10.6344 10.0403 10.554 10.0194C10.2988 9.95758 10.1241 10.0895 10.106 10.3506C10.1052 10.3622 10.105 10.3738 10.1047 10.3854C10.1045 10.393 10.1043 10.4006 10.1039 10.4082L10.1031 10.4334C10.0992 10.6264 10.1482 10.8098 10.2123 10.9898C10.4512 11.6608 10.8467 12.2285 11.3578 12.7195C11.364 12.7255 11.3702 12.7314 11.3765 12.7374Z" fill="white"/>
<path d="M20.9104 23.075C21.2709 22.7425 21.5963 22.3738 21.8814 21.9747L21.8743 21.9507H21.7717C21.7055 21.9507 21.6393 21.9508 21.5731 21.9509L21.1761 21.9515C20.9775 21.9516 20.779 21.9511 20.5805 21.9487C20.4889 21.9441 20.4 21.9804 20.3378 22.0477C18.9628 23.3904 17.321 23.969 15.4123 23.7835C14.7098 23.7112 14.027 23.5082 13.3991 23.1851L13.3587 23.1646C12.781 22.8689 12.2555 22.4806 11.8031 22.0151C11.7655 21.9717 11.7104 21.9475 11.6531 21.9492L11.3975 21.9505C11.1858 21.9512 10.974 21.9511 10.7622 21.951C10.6333 21.9509 10.5043 21.9509 10.3754 21.951C10.3635 21.951 10.3517 21.9518 10.3387 21.953L10.295 21.9572L10.2822 21.9583C10.615 22.4253 11.0021 22.8511 11.4353 23.2268C11.4313 23.2361 11.4263 23.245 11.4205 23.2533C11.4144 23.2593 11.4082 23.2652 11.402 23.271L11.3646 23.306C10.9048 23.7362 10.5392 24.257 10.2907 24.8356C10.2069 25.0193 10.1482 25.2134 10.1163 25.4128L10.1118 25.4471C10.0956 25.5789 10.0912 25.7112 10.144 25.8388L10.148 25.8488C10.1858 25.9385 10.2665 26.0034 10.3628 26.0206C10.4517 26.0356 10.5431 26.0258 10.6267 25.9922C10.8053 25.929 10.9707 25.8334 11.1147 25.7104L11.1432 25.6864C11.6737 25.2377 12.0925 24.6715 12.3664 24.0326C12.3686 24.0274 12.371 24.0222 12.3733 24.017L12.411 23.9336C13.4055 24.5329 14.5313 24.8804 15.6906 24.9459C15.6911 24.9479 15.6916 24.9498 15.692 24.9515L15.6965 24.967C15.6976 24.9707 15.698 24.9734 15.6975 24.9758C15.6934 24.9977 15.6882 25.0195 15.6825 25.0411L15.6712 25.086C15.6125 25.326 15.5771 25.5712 15.5657 25.8182C15.5433 26.1764 15.5618 26.536 15.6207 26.8901C15.6665 27.1495 15.7306 27.4039 15.8553 27.6379C15.8983 27.7201 15.9514 27.7965 16.0135 27.8654C16.1706 28.0362 16.3631 28.0348 16.5243 27.8684C16.5615 27.833 16.5933 27.7924 16.6191 27.7481C16.6826 27.6336 16.7389 27.5153 16.7878 27.3939C16.8904 27.1004 16.9507 26.7939 16.9669 26.4834C17.0101 25.9881 16.9694 25.4891 16.8466 25.0073L16.8438 24.9959C16.842 24.9883 16.8404 24.9806 16.8388 24.9725L16.8341 24.9474L16.8289 24.9198C17.2161 24.8766 17.5993 24.8036 17.9753 24.7016C18.3454 24.5987 18.7068 24.467 19.0563 24.3077C19.4075 24.1437 19.7461 23.9541 20.0694 23.7403L20.0935 23.8023L20.1111 23.8504C20.3789 24.5758 20.835 25.2171 21.4328 25.7082C21.548 25.7997 21.6727 25.8786 21.8047 25.9437C21.8911 25.9852 21.9835 26.0127 22.0786 26.025C22.2244 26.0508 22.3664 25.9634 22.409 25.8216L22.4149 25.8033C22.4279 25.7606 22.4361 25.7166 22.4393 25.672C22.4514 25.4732 22.421 25.2741 22.3501 25.0879C22.0837 24.3246 21.6116 23.6497 20.9858 23.1378L20.9104 23.075Z" fill="white"/>
<path d="M20.1822 15.8937C20.1575 15.8932 20.1326 15.8928 20.1075 15.8928C20.1073 15.8952 20.1071 15.898 20.1069 15.9012L20.1057 15.9244L20.1046 15.956L20.1035 15.9957L20.1021 16.0694L20.1004 16.1923L20.0987 16.3815L20.0971 16.6531L20.0963 16.9099L20.0957 17.3632L20.0958 17.7254L20.0969 18.2806L20.0987 18.7625L20.1009 19.1558L20.1041 19.552L20.1063 19.7608L20.1083 19.9017L20.1099 19.9903L20.1115 20.0627L20.1127 20.1014L20.1138 20.1321C20.1148 20.1542 20.1158 20.1675 20.1169 20.1711H21.2278L21.2278 18.184L21.2283 18.0036L21.2495 17.9958L22.3617 18.9977L23.465 17.9915L23.4867 18.0018V20.1633L23.4962 20.1648C23.498 20.1651 23.5 20.1653 23.502 20.1656L23.5156 20.167L23.5316 20.1683L23.5602 20.1701L23.5936 20.1717L23.6449 20.1736L23.6878 20.1748L23.734 20.1758L23.7998 20.1768L23.8874 20.1776L23.9603 20.178L24.0716 20.1779L24.1819 20.1772L24.3043 20.1755L24.3843 20.1738L24.4556 20.1717L24.5161 20.1691L24.5462 20.1674L24.5634 20.1662L24.5781 20.165L24.5903 20.1636L24.5997 20.1622C24.6012 20.162 24.6025 20.1617 24.6037 20.1615C24.6046 20.1612 24.6055 20.161 24.6062 20.1608V15.8928C24.5891 15.8928 24.572 15.8929 24.555 15.893L24.4541 15.8937C24.3707 15.8944 24.2891 15.8946 24.2076 15.8913L24.1964 15.891C24.1367 15.8908 24.0792 15.9149 24.0374 15.958C23.5078 16.4416 22.9779 16.9248 22.4476 17.4075C22.4365 17.4176 22.4252 17.4274 22.4137 17.4373L22.3599 17.4831L22.3144 17.443L22.2842 17.4161L22.0171 17.174C21.9758 17.1366 21.9345 17.0992 21.8931 17.0617C21.5054 16.7105 21.1176 16.3593 20.7329 16.0047C20.6444 15.9232 20.5575 15.8798 20.4362 15.8908L20.4005 15.8934C20.3527 15.8961 20.3045 15.896 20.2558 15.8952L20.1822 15.8937Z" fill="white"/>
<path d="M10.9599 15.8977H9.85563L9.85559 17.0422C9.85555 17.073 9.85549 17.1039 9.85542 17.1348L9.85462 17.4098L9.84569 17.4111C9.84398 17.4114 9.84215 17.4116 9.84022 17.4118L9.82732 17.413L9.80331 17.4148L9.77409 17.4164L9.71488 17.4187L9.64417 17.4206L9.56385 17.4221L9.47577 17.4232L9.38183 17.4239L9.22401 17.4242L9.10358 17.4238L8.98497 17.4229L8.90851 17.422L8.78303 17.4198L8.68722 17.4174L8.64446 17.416L8.60567 17.4145L8.56083 17.4123L8.53289 17.4106L8.51027 17.4087L8.49835 17.4073L8.48909 17.406C8.48647 17.4055 8.48431 17.405 8.48263 17.4045V15.8982H7.36719V20.1624C7.36953 20.163 7.3724 20.1635 7.37578 20.164L7.3874 20.1656C7.38847 20.1657 7.38956 20.1658 7.39069 20.1659C7.39186 20.1661 7.39306 20.1662 7.39429 20.1663L7.41907 20.1684L7.43879 20.1696L7.4609 20.1708L7.49819 20.1724L7.55475 20.1742L7.61795 20.1756L7.72243 20.177L7.8156 20.1776L7.91165 20.1777L8.02719 20.177L8.13896 20.1755L8.20923 20.1741L8.25881 20.1728L8.3197 20.1708L8.36076 20.169L8.40835 20.1664L8.42871 20.165L8.45451 20.1626L8.46831 20.161L8.47922 20.1592C8.48116 20.1589 8.48291 20.1585 8.48446 20.1581C8.4854 20.1579 8.48627 20.1577 8.48706 20.1574V18.5477H9.85563L9.85541 19.014L9.85555 19.2444L9.85579 19.3594C9.8559 19.3981 9.85591 19.4367 9.85586 19.4754L9.85525 19.7073C9.85487 19.862 9.855 20.0169 9.85848 20.172H10.9638C10.9645 20.1689 10.9651 20.1622 10.9657 20.1521L10.967 20.1275L10.9682 20.0943L10.9693 20.0528L10.9703 20.0035L10.9713 19.9467L10.9727 19.8483L10.975 19.6089L10.9765 19.3722L10.9778 19.0524L10.9785 18.7632L10.9789 18.3358L10.9787 17.9599L10.9775 17.4031L10.9764 17.1088L10.9739 16.6784L10.9719 16.4441L10.9702 16.2808L10.9677 16.112L10.9661 16.0318L10.9649 15.988L10.9637 15.9523L10.9625 15.9251C10.9617 15.9098 10.9608 15.9005 10.9599 15.8977Z" fill="white"/>
<path d="M12.2836 15.9104V20.1704H14.9354V19.2663L13.5182 19.266C13.493 19.266 13.4678 19.2638 13.4434 19.2617C13.4323 19.2607 13.4214 19.2598 13.4107 19.2591C13.4104 19.2565 13.4101 19.2537 13.4098 19.2509L13.4081 19.2324L13.4066 19.2115L13.4052 19.1883L13.4035 19.1496L13.4021 19.107L13.4014 19.0768L13.4008 19.0453L13.4003 18.9962L13.4001 18.911L13.4005 18.8418L13.4013 18.7904L13.4023 18.7401L13.4042 18.676L13.4059 18.6312L13.408 18.5898L13.4095 18.5645L13.412 18.5305L13.4138 18.5107L13.4157 18.4936C13.4174 18.4804 13.4192 18.4701 13.4211 18.4633H14.7597V17.5239H13.409V16.8178L14.826 16.8174C14.8512 16.8174 14.8764 16.8151 14.9012 16.8128C14.9126 16.8118 14.9239 16.8108 14.9351 16.81V15.9021C14.9335 15.9019 14.9317 15.9016 14.9297 15.9014L14.9148 15.9002L14.8949 15.8991L14.8558 15.8975L14.8066 15.896L14.7684 15.8952L14.6559 15.8933L14.5219 15.8918L14.3376 15.8905L14.0977 15.8897L13.8025 15.8896L13.5363 15.8902L13.1995 15.892L13.0566 15.8931L12.762 15.8962L12.6472 15.8978L12.5449 15.8997L12.4568 15.9017L12.4012 15.9032L12.3553 15.9049L12.3199 15.9066C12.3165 15.9068 12.3134 15.907 12.3105 15.9072L12.2957 15.9085C12.2896 15.9091 12.2855 15.9097 12.2836 15.9104Z" fill="white"/>
<path d="M16.1984 20.1398C16.1991 20.1566 16.1999 20.1675 16.2007 20.1721H18.8511V19.0543L17.4268 19.054C17.4213 19.054 17.4159 19.0539 17.4104 19.0538C17.4065 19.0537 17.4026 19.0536 17.3987 19.0534L17.3697 19.0519L17.3387 19.0499L17.3049 19.0479V15.8981H16.2046C16.204 15.9004 16.2035 15.9063 16.2029 15.9157L16.2018 15.9387L16.2007 15.9705L16.1996 16.0105L16.1981 16.0852L16.1972 16.1442L16.1954 16.2827L16.1934 16.4901L16.1914 16.7815L16.1893 17.225L16.1879 17.7712L16.1874 18.4575L16.1881 18.9928L16.1894 19.3686L16.1908 19.6054L16.1928 19.8451L16.194 19.9438L16.1953 20.0267L16.1963 20.0725L16.1973 20.1104L16.1984 20.1398Z" fill="white"/>
<path d="M73.2146 23.96V15.336H74.6706V17.096L74.4626 16.824C74.676 16.28 75.0173 15.864 75.4866 15.576C75.956 15.288 76.484 15.144 77.0706 15.144C77.7426 15.144 78.3453 15.3306 78.8786 15.704C79.4226 16.0773 79.796 16.568 79.9986 17.176L79.5826 17.192C79.8066 16.52 80.1853 16.0133 80.7186 15.672C81.252 15.32 81.844 15.144 82.4946 15.144C83.092 15.144 83.6306 15.2826 84.1106 15.56C84.6013 15.8373 84.9906 16.2213 85.2786 16.712C85.5666 17.2026 85.7106 17.7573 85.7106 18.376V23.96H84.2066V18.856C84.2066 18.376 84.1213 17.9706 83.9506 17.64C83.78 17.3093 83.5453 17.0533 83.2466 16.872C82.9586 16.68 82.6173 16.584 82.2226 16.584C81.8386 16.584 81.492 16.68 81.1826 16.872C80.884 17.0533 80.644 17.3146 80.4626 17.656C80.292 17.9866 80.2066 18.3866 80.2066 18.856V23.96H78.7026V18.856C78.7026 18.376 78.6173 17.9706 78.4466 17.64C78.276 17.3093 78.0413 17.0533 77.7426 16.872C77.4546 16.68 77.1133 16.584 76.7186 16.584C76.3346 16.584 75.988 16.68 75.6786 16.872C75.38 17.0533 75.14 17.3146 74.9586 17.656C74.788 17.9866 74.7026 18.3866 74.7026 18.856V23.96H73.2146Z" fill="white"/>
<path d="M69.4178 23.96V11.848H70.9058V23.96H69.4178Z" fill="white"/>
<path d="M63.5576 24.152C62.7256 24.152 61.9843 23.9546 61.3336 23.56C60.6829 23.1653 60.1709 22.6266 59.7976 21.944C59.4243 21.2506 59.2376 20.4773 59.2376 19.624C59.2376 18.76 59.4189 17.992 59.7816 17.32C60.1549 16.648 60.6563 16.12 61.2856 15.736C61.9256 15.3413 62.6403 15.144 63.4296 15.144C64.0696 15.144 64.6349 15.2613 65.1256 15.496C65.6269 15.72 66.0483 16.0293 66.3896 16.424C66.7416 16.808 67.0083 17.2506 67.1896 17.752C67.3816 18.2426 67.4776 18.7546 67.4776 19.288C67.4776 19.4053 67.4669 19.5386 67.4456 19.688C67.4349 19.8266 67.4189 19.96 67.3976 20.088H60.3256V18.808H66.5336L65.8296 19.384C65.9256 18.8293 65.8723 18.3333 65.6696 17.896C65.4669 17.4586 65.1683 17.112 64.7736 16.856C64.3789 16.6 63.9309 16.472 63.4296 16.472C62.9283 16.472 62.4696 16.6 62.0536 16.856C61.6376 17.112 61.3123 17.48 61.0776 17.96C60.8536 18.4293 60.7629 18.9893 60.8056 19.64C60.7629 20.2693 60.8589 20.824 61.0936 21.304C61.3389 21.7733 61.6803 22.1413 62.1176 22.408C62.5656 22.664 63.0509 22.792 63.5736 22.792C64.1496 22.792 64.6349 22.6586 65.0296 22.392C65.4243 22.1253 65.7443 21.784 65.9896 21.368L67.2376 22.008C67.0669 22.4026 66.8003 22.7653 66.4376 23.096C66.0856 23.416 65.6643 23.672 65.1736 23.864C64.6936 24.056 64.1549 24.152 63.5576 24.152Z" fill="white"/>
<path d="M48 23.96V12.04H49.568V17.352H55.536V12.04H57.12V23.96H55.536V18.792H49.568V23.96H48Z" fill="white"/>
</g>
<defs>
<clipPath id="clip0_9_233">
<rect width="102" height="36" rx="6"/>
</clipPath>
</defs>
</svg>
