<svg width="106" height="36" viewBox="0 0 106 36" fill="none" xmlns="http://www.w3.org/2000/svg">
<g clip-path="url(#clip0_9_248)">
<rect width="106" height="36" rx="6" fill="white"/>
<rect width="32" height="36" fill="black"/>
<path fill-rule="evenodd" clip-rule="evenodd" d="M19.4601 19.0775C18.7014 19.0775 18.0212 19.4226 17.5554 19.9658L16.3618 19.0984C16.4885 18.7403 16.5613 18.3558 16.5613 17.9534C16.5613 17.5579 16.4911 17.1798 16.3685 16.827L17.5594 15.9688C18.0252 16.5094 18.7036 16.8525 19.4601 16.8525C20.8605 16.8525 22 15.683 22 14.2453C22 12.8076 20.8605 11.6381 19.4601 11.6381C18.0597 11.6381 16.9203 12.8076 16.9203 14.2453C16.9203 14.5026 16.9581 14.7508 17.0261 14.9858L15.8344 15.8444C15.3366 15.2105 14.6198 14.7678 13.8032 14.6327V13.1584C14.9537 12.9103 15.8205 11.861 15.8205 10.6072C15.8205 9.1695 14.681 8 13.2806 8C11.8803 8 10.7408 9.1695 10.7408 10.6072C10.7408 11.8442 11.5852 12.8806 12.7127 13.1464V14.6398C11.1739 14.9171 10 16.2956 10 17.9534C10 19.6193 11.1856 21.0028 12.7354 21.2706V22.8476C11.5964 23.1046 10.7408 24.1473 10.7408 25.3928C10.7408 26.8305 11.8803 28 13.2806 28C14.681 28 15.8205 26.8305 15.8205 25.3928C15.8205 24.1473 14.9649 23.1046 13.8259 22.8476V21.2706C14.6265 21.1322 15.3301 20.6983 15.8228 20.0784L17.0243 20.9514C16.9576 21.1843 16.9203 21.43 16.9203 21.6847C16.9203 23.1224 18.0597 24.2919 19.4601 24.2919C20.8605 24.2919 22 23.1224 22 21.6847C22 20.247 20.8605 19.0775 19.4601 19.0775ZM19.4601 12.9812C20.1392 12.9812 20.6915 13.5484 20.6915 14.2453C20.6915 14.9422 20.1392 15.5094 19.4601 15.5094C18.781 15.5094 18.2287 14.9422 18.2287 14.2453C18.2287 13.5484 18.781 12.9812 19.4601 12.9812ZM12.0492 10.6072C12.0492 9.91033 12.6016 9.34316 13.2806 9.34316C13.9597 9.34316 14.512 9.91033 14.512 10.6072C14.512 11.3041 13.9597 11.8713 13.2806 11.8713C12.6016 11.8713 12.0492 11.3041 12.0492 10.6072ZM14.512 25.3928C14.512 26.0897 13.9597 26.6568 13.2806 26.6568C12.6016 26.6568 12.0492 26.0897 12.0492 25.3928C12.0492 24.6959 12.6016 24.1287 13.2806 24.1287C13.9597 24.1287 14.512 24.6959 14.512 25.3928ZM13.2805 19.7163C12.3334 19.7163 11.563 18.9255 11.563 17.9534C11.563 16.9812 12.3334 16.1902 13.2805 16.1902C14.2276 16.1902 14.9981 16.9812 14.9981 17.9534C14.9981 18.9255 14.2276 19.7163 13.2805 19.7163ZM19.4601 22.9488C18.781 22.9488 18.2287 22.3816 18.2287 21.6847C18.2287 20.9878 18.781 20.4207 19.4601 20.4207C20.1392 20.4207 20.6915 20.9878 20.6915 21.6847C20.6915 22.3816 20.1392 22.9488 19.4601 22.9488Z" fill="white"/>
<rect width="76" height="36" transform="translate(30)" fill="#181818"/>
<path d="M85.227 24.152C84.6617 24.152 84.1603 24.0506 83.723 23.848C83.2963 23.6346 82.9603 23.3466 82.715 22.984C82.4697 22.6106 82.347 22.184 82.347 21.704C82.347 21.2453 82.443 20.8346 82.635 20.472C82.8377 20.0986 83.147 19.784 83.563 19.528C83.9897 19.272 84.523 19.0906 85.163 18.984L88.363 18.456V19.704L85.499 20.184C84.9443 20.28 84.539 20.456 84.283 20.712C84.0377 20.968 83.915 21.2826 83.915 21.656C83.915 22.008 84.0537 22.3013 84.331 22.536C84.619 22.7706 84.9763 22.888 85.403 22.888C85.947 22.888 86.4163 22.776 86.811 22.552C87.2163 22.3173 87.531 22.0026 87.755 21.608C87.9897 21.2133 88.107 20.776 88.107 20.296V18.104C88.107 17.6346 87.931 17.256 87.579 16.968C87.2377 16.6693 86.7843 16.52 86.219 16.52C85.7283 16.52 85.291 16.648 84.907 16.904C84.5337 17.1493 84.2563 17.48 84.075 17.896L82.779 17.224C82.939 16.8293 83.195 16.4773 83.547 16.168C83.899 15.848 84.3097 15.5973 84.779 15.416C85.2483 15.2346 85.739 15.144 86.251 15.144C86.9123 15.144 87.4937 15.272 87.995 15.528C88.4963 15.7733 88.8857 16.12 89.163 16.568C89.451 17.0053 89.595 17.5173 89.595 18.104V23.96H88.139V22.328L88.411 22.424C88.2297 22.7653 87.9843 23.064 87.675 23.32C87.3657 23.576 87.003 23.7786 86.587 23.928C86.171 24.0773 85.7177 24.152 85.227 24.152Z" fill="white"/>
<path d="M73.7771 23.96V11.848H75.2651V20.152L74.6571 20.008L79.2331 15.336H81.1371L77.8251 18.808L81.3611 23.96H79.6011L76.3691 19.288L77.2971 19.24L74.7851 21.864L75.2651 20.776V23.96H73.7771Z" fill="white"/>
<path d="M68.3298 23.96V16.76H66.6818V15.336H68.3298V14.728C68.3298 14.1093 68.4631 13.5867 68.7298 13.16C69.0071 12.7333 69.3698 12.408 69.8178 12.184C70.2764 11.96 70.7831 11.848 71.3378 11.848C71.4551 11.848 71.5831 11.8587 71.7218 11.88C71.8711 11.8907 71.9938 11.9067 72.0898 11.928V13.256C72.0044 13.2347 71.9031 13.224 71.7858 13.224C71.6684 13.2133 71.5778 13.208 71.5138 13.208C71.0231 13.208 70.6178 13.3253 70.2978 13.56C69.9884 13.7947 69.8338 14.184 69.8338 14.728V15.336H71.8818V16.76H69.8338V23.96H68.3298Z" fill="white"/>
<path d="M60.7895 24.152C60.2242 24.152 59.7228 24.0506 59.2855 23.848C58.8588 23.6346 58.5228 23.3466 58.2775 22.984C58.0322 22.6106 57.9095 22.184 57.9095 21.704C57.9095 21.2453 58.0055 20.8346 58.1975 20.472C58.4002 20.0986 58.7095 19.784 59.1255 19.528C59.5522 19.272 60.0855 19.0906 60.7255 18.984L63.9255 18.456V19.704L61.0615 20.184C60.5068 20.28 60.1015 20.456 59.8455 20.712C59.6002 20.968 59.4775 21.2826 59.4775 21.656C59.4775 22.008 59.6162 22.3013 59.8935 22.536C60.1815 22.7706 60.5388 22.888 60.9655 22.888C61.5095 22.888 61.9788 22.776 62.3735 22.552C62.7788 22.3173 63.0935 22.0026 63.3175 21.608C63.5522 21.2133 63.6695 20.776 63.6695 20.296V18.104C63.6695 17.6346 63.4935 17.256 63.1415 16.968C62.8002 16.6693 62.3468 16.52 61.7815 16.52C61.2908 16.52 60.8535 16.648 60.4695 16.904C60.0962 17.1493 59.8188 17.48 59.6375 17.896L58.3415 17.224C58.5015 16.8293 58.7575 16.4773 59.1095 16.168C59.4615 15.848 59.8722 15.5973 60.3415 15.416C60.8108 15.2346 61.3015 15.144 61.8135 15.144C62.4748 15.144 63.0562 15.272 63.5575 15.528C64.0588 15.7733 64.4482 16.12 64.7255 16.568C65.0135 17.0053 65.1575 17.5173 65.1575 18.104V23.96H63.7015V22.328L63.9735 22.424C63.7922 22.7653 63.5468 23.064 63.2375 23.32C62.9282 23.576 62.5655 23.7786 62.1495 23.928C61.7335 24.0773 61.2802 24.152 60.7895 24.152Z" fill="white"/>
<path d="M48 23.96V12.04H49.568V18.744L49.184 18.584L54.88 12.04H56.848L52.064 17.56L52.144 16.44L57.088 23.96H55.216L51.44 18.296L49.568 20.44V23.96H48Z" fill="white"/>
</g>
<rect x="1" y="1" width="103.595" height="34" rx="5" stroke="black" stroke-width="2"/>
<defs>
<clipPath id="clip0_9_248">
<rect width="106" height="36" rx="6"/>
</clipPath>
</defs>
</svg>
