<svg width="93" height="36" viewBox="0 0 93 36" fill="none" xmlns="http://www.w3.org/2000/svg">
<g clip-path="url(#clip0_9_220)">
<rect width="92.7043" height="36" rx="6" fill="white"/>
<rect width="32" height="36" fill="black"/>
<path d="M12.3855 27.4273C11.92 27.4273 11.4803 27.2204 11.1829 26.8454L6.65671 21.22C6.35928 20.845 6.24289 20.3665 6.35928 19.901L7.97576 12.879C8.07922 12.4134 8.38959 12.0384 8.81634 11.8315L15.3599 8.70197C15.5668 8.59851 15.7996 8.54678 16.0323 8.54678C16.2651 8.54678 16.4979 8.59851 16.7048 8.70197L23.2483 11.8186C23.6751 12.0255 23.9855 12.4005 24.0889 12.866L25.7054 19.8881C25.8088 20.3536 25.7054 20.8321 25.408 21.2071L20.8818 26.8325C20.5844 27.1946 20.1447 27.4144 19.6791 27.4144L12.3855 27.4273Z" fill="black"/>
<path d="M16.0194 8.87007C16.2004 8.87007 16.3815 8.90886 16.5496 8.98645L23.0931 12.103C23.4294 12.2712 23.688 12.5815 23.7656 12.9436L25.3821 19.9656C25.4726 20.3407 25.3821 20.7286 25.1364 21.026L20.6102 26.6514C20.3774 26.9489 20.0154 27.117 19.6403 27.117H12.3855C12.0105 27.117 11.6484 26.9489 11.4156 26.6514L6.88948 21.026C6.65671 20.7286 6.56618 20.3407 6.64377 19.9656L8.26026 12.9436C8.35078 12.5686 8.59649 12.2582 8.93272 12.103L15.4763 8.97352C15.6444 8.90886 15.8384 8.87007 16.0194 8.87007ZM16.0194 8.26227C15.7478 8.26227 15.4763 8.32693 15.2176 8.44331L8.67408 11.5728C8.15681 11.8185 7.79471 12.2712 7.66539 12.8272L6.04891 19.8492C5.91959 20.4053 6.04891 20.9743 6.411 21.4269L10.9372 27.0523C11.2863 27.492 11.8165 27.7377 12.3726 27.7377H19.6274C20.1835 27.7377 20.7137 27.492 21.0628 27.0523L25.589 21.4269C25.9511 20.9873 26.0804 20.4053 25.9511 19.8492L24.3346 12.8272C24.2053 12.2712 23.8432 11.8185 23.3259 11.5728L16.8082 8.44331C16.5625 8.32693 16.291 8.26227 16.0194 8.26227Z" fill="white"/>
<path d="M22.5759 19.4096C22.563 19.4096 22.563 19.4096 22.5759 19.4096H22.563C22.55 19.4096 22.5371 19.4096 22.5371 19.3966C22.5112 19.3966 22.4854 19.3837 22.4595 19.3837C22.369 19.3708 22.2914 19.3578 22.2138 19.3578C22.175 19.3578 22.1362 19.3578 22.0845 19.3449H22.0715C21.8 19.319 21.5801 19.2932 21.3732 19.2285C21.2827 19.1897 21.2568 19.138 21.231 19.0863C21.231 19.0733 21.218 19.0733 21.218 19.0604L21.0499 19.0087C21.1275 18.4138 21.1016 17.7931 20.9594 17.1853C20.8171 16.5775 20.5714 16.0085 20.2352 15.4912L20.3645 15.3748V15.349C20.3645 15.2843 20.3775 15.2196 20.4292 15.155C20.5844 15.0127 20.7783 14.8963 21.0111 14.7541C21.0499 14.7282 21.0887 14.7153 21.1275 14.6894C21.2051 14.6506 21.2698 14.6118 21.3474 14.5601C21.3603 14.5472 21.3861 14.5342 21.412 14.5084C21.4249 14.4954 21.4379 14.4954 21.4379 14.4825C21.6189 14.3273 21.6577 14.0687 21.5284 13.9006C21.4637 13.8101 21.3474 13.7583 21.231 13.7583C21.1275 13.7583 21.037 13.7971 20.9465 13.8618C20.9335 13.8747 20.9335 13.8747 20.9206 13.8876C20.8947 13.9006 20.8818 13.9264 20.8559 13.9394C20.7913 14.004 20.7396 14.0558 20.6878 14.1204C20.662 14.1463 20.6361 14.1851 20.5973 14.2109C20.4163 14.4049 20.2481 14.5601 20.08 14.6765C20.0412 14.7024 20.0024 14.7153 19.9636 14.7153C19.9378 14.7153 19.9119 14.7153 19.886 14.7024H19.8602L19.705 14.8058C19.5369 14.6248 19.3558 14.4696 19.1748 14.3144C18.3989 13.7066 17.4549 13.3316 16.472 13.2411L16.4591 13.0729C16.4462 13.06 16.4462 13.06 16.4332 13.0471C16.3944 13.0083 16.3427 12.9695 16.3298 12.879C16.3168 12.6721 16.3427 12.4393 16.3686 12.1806V12.1677C16.3686 12.1289 16.3815 12.0772 16.3944 12.0384C16.4074 11.9608 16.4203 11.8832 16.4332 11.7927V11.7151V11.6763C16.4332 11.4435 16.2522 11.2495 16.0323 11.2495C15.9289 11.2495 15.8254 11.3013 15.7478 11.3789C15.6703 11.4565 15.6315 11.5599 15.6315 11.6763V11.7022V11.7797C15.6315 11.8703 15.6444 11.9479 15.6703 12.0255C15.6832 12.0643 15.6832 12.103 15.6961 12.1548V12.1677C15.722 12.4263 15.7608 12.6591 15.7349 12.866C15.722 12.9566 15.6703 12.9953 15.6315 13.0341C15.6185 13.0471 15.6185 13.0471 15.6056 13.06L15.5927 13.2281C15.3599 13.254 15.1271 13.2798 14.8943 13.3316C13.8986 13.5514 13.0192 14.0558 12.3338 14.7799L12.2045 14.6894H12.1786C12.1528 14.6894 12.1269 14.7024 12.101 14.7024C12.0623 14.7024 12.0235 14.6894 11.9847 14.6636C11.8165 14.5472 11.6484 14.3791 11.4674 14.1851C11.4415 14.1592 11.4157 14.1204 11.3769 14.0946C11.3251 14.0299 11.2734 13.9782 11.2087 13.9135C11.1958 13.9006 11.17 13.8876 11.1441 13.8618C11.1312 13.8489 11.1182 13.8489 11.1182 13.8359C11.0406 13.7713 10.9372 13.7325 10.8337 13.7325C10.7173 13.7325 10.6009 13.7842 10.5363 13.8747C10.407 14.0428 10.4458 14.3015 10.6268 14.4567C10.6397 14.4567 10.6397 14.4696 10.6527 14.4696C10.6785 14.4825 10.6915 14.5084 10.7173 14.5213C10.7949 14.573 10.8596 14.6118 10.9372 14.6506C10.976 14.6636 11.0148 14.6894 11.0536 14.7153C11.2863 14.8575 11.4803 14.9739 11.6355 15.1162C11.7002 15.1808 11.7002 15.2455 11.7002 15.3102V15.336L11.8295 15.4524C11.8036 15.4912 11.7778 15.5171 11.7648 15.5559C11.1182 16.5775 10.8725 17.7801 11.0406 18.9699L10.8725 19.0216C10.8725 19.0345 10.8596 19.0345 10.8596 19.0475C10.8337 19.0992 10.7949 19.1509 10.7173 19.1897C10.5234 19.2544 10.2906 19.2802 10.019 19.3061H10.0061C9.96729 19.3061 9.91556 19.3061 9.87676 19.319C9.79917 19.319 9.72158 19.332 9.63106 19.3449C9.60519 19.3449 9.57933 19.3578 9.55346 19.3578C9.54053 19.3578 9.5276 19.3578 9.51467 19.3708C9.28189 19.4225 9.13964 19.6423 9.17844 19.8493C9.21724 20.0303 9.38535 20.1467 9.59226 20.1467C9.63106 20.1467 9.65692 20.1467 9.69572 20.1338C9.70865 20.1338 9.72158 20.1338 9.72158 20.1208C9.74744 20.1208 9.77331 20.1079 9.79917 20.1079C9.88969 20.082 9.95435 20.0562 10.0319 20.0174C10.0707 20.0044 10.1095 19.9786 10.1483 19.9656H10.1613C10.407 19.8751 10.6268 19.7975 10.8337 19.7717H10.8596C10.9372 19.7717 10.9889 19.8105 11.0277 19.8363C11.0406 19.8363 11.0406 19.8493 11.0536 19.8493L11.2346 19.8234C11.545 20.7803 12.1398 21.6339 12.9287 22.2546C13.1097 22.3968 13.2908 22.5132 13.4848 22.6296L13.4072 22.7977C13.4072 22.8107 13.4201 22.8107 13.4201 22.8236C13.446 22.8753 13.4718 22.94 13.446 23.0305C13.3684 23.2245 13.252 23.4185 13.1097 23.6383V23.6512C13.0839 23.69 13.058 23.7159 13.0321 23.7547C12.9804 23.8193 12.9416 23.884 12.8899 23.9616C12.877 23.9745 12.864 24.0004 12.8511 24.0263C12.8511 24.0392 12.8382 24.0521 12.8382 24.0521C12.7347 24.272 12.8123 24.5177 13.0063 24.6082C13.058 24.6341 13.1097 24.647 13.1615 24.647C13.3166 24.647 13.4718 24.5435 13.5494 24.4013C13.5494 24.3883 13.5624 24.3754 13.5624 24.3754C13.5753 24.3496 13.5882 24.3237 13.6011 24.3108C13.6399 24.2202 13.6529 24.1556 13.6787 24.078C13.6917 24.0392 13.7046 24.0004 13.7175 23.9616C13.8081 23.703 13.8727 23.496 13.9891 23.315C14.0408 23.2374 14.1055 23.2245 14.1572 23.1986C14.1702 23.1986 14.1702 23.1986 14.1831 23.1857L14.2736 23.0176C14.8426 23.2374 15.4633 23.3538 16.0841 23.3538C16.4591 23.3538 16.8471 23.315 17.2091 23.2245C17.4419 23.1728 17.6618 23.1081 17.8816 23.0305L17.9592 23.1728C17.9721 23.1728 17.9721 23.1728 17.9851 23.1857C18.0497 23.1986 18.1014 23.2245 18.1532 23.3021C18.2566 23.4831 18.3342 23.703 18.4247 23.9487V23.9616C18.4377 24.0004 18.4506 24.0392 18.4635 24.078C18.4894 24.1556 18.5023 24.2332 18.5411 24.3108C18.5541 24.3366 18.567 24.3496 18.5799 24.3754C18.5799 24.3883 18.5929 24.4013 18.5929 24.4013C18.6705 24.5565 18.8256 24.647 18.9808 24.647C19.0325 24.647 19.0843 24.6341 19.136 24.6082C19.2265 24.5565 19.3041 24.4789 19.33 24.3754C19.3558 24.272 19.3558 24.1556 19.3041 24.0521C19.3041 24.0392 19.2912 24.0392 19.2912 24.0263C19.2782 24.0004 19.2653 23.9745 19.2524 23.9616C19.2136 23.884 19.1619 23.8193 19.1101 23.7547C19.0843 23.7159 19.0584 23.69 19.0325 23.6512V23.6383C18.8903 23.4185 18.761 23.2245 18.6963 23.0305C18.6705 22.94 18.6963 22.8882 18.7092 22.8236C18.7092 22.8107 18.7222 22.8107 18.7222 22.7977L18.6575 22.6425C19.3429 22.2417 19.9248 21.6726 20.3645 20.9743C20.5973 20.6122 20.7783 20.2113 20.9077 19.8105L21.0629 19.8363C21.0758 19.8363 21.0758 19.8234 21.0887 19.8234C21.1404 19.7975 21.1792 19.7587 21.2568 19.7587H21.2827C21.4896 19.7846 21.7094 19.8622 21.9552 19.9527H21.9681C22.0069 19.9656 22.0457 19.9915 22.0845 20.0044C22.1621 20.0432 22.2267 20.0691 22.3172 20.095C22.3431 20.095 22.369 20.1079 22.3948 20.1079C22.4078 20.1079 22.4207 20.1079 22.4336 20.1208C22.4724 20.1338 22.4983 20.1338 22.5371 20.1338C22.7311 20.1338 22.8992 20.0044 22.9509 19.8363C22.9509 19.6811 22.8087 19.4742 22.5759 19.4096ZM16.5884 18.7759L16.0194 19.0475L15.4504 18.7759L15.3082 18.1681L15.6961 17.6767H16.3298L16.7177 18.1681L16.5884 18.7759ZM19.9636 17.431C20.0671 17.8707 20.093 18.3104 20.0542 18.7371L18.0756 18.1681C17.8945 18.1164 17.7911 17.9353 17.8299 17.7543C17.8428 17.7026 17.8687 17.6508 17.9075 17.612L19.4722 16.2025C19.6921 16.5646 19.8602 16.9784 19.9636 17.431ZM18.8515 15.4265L17.1574 16.6292C17.0152 16.7197 16.8212 16.6939 16.7048 16.5516C16.666 16.5128 16.6531 16.4611 16.6401 16.4094L16.5238 14.3015C17.4161 14.4049 18.2308 14.8058 18.8515 15.4265ZM15.1012 14.3661C15.2435 14.3403 15.3728 14.3144 15.5151 14.2885L15.3987 16.3576C15.3857 16.5387 15.2435 16.6939 15.0495 16.6939C14.9978 16.6939 14.9331 16.6809 14.8943 16.6551L13.1744 15.4265C13.7046 14.8963 14.3641 14.5342 15.1012 14.3661ZM12.5537 16.2025L14.0926 17.5732C14.2348 17.6896 14.2477 17.9095 14.1314 18.0517C14.0926 18.1034 14.0408 18.1422 13.9762 18.1552L11.9717 18.7371C11.8941 17.8577 12.0881 16.9654 12.5537 16.2025ZM12.2045 19.707L14.2607 19.3578C14.4288 19.3449 14.584 19.4613 14.6228 19.6294C14.6357 19.707 14.6357 19.7717 14.6098 19.8363L13.821 21.7373C13.0968 21.2718 12.5149 20.5605 12.2045 19.707ZM16.9246 22.2804C16.6272 22.3451 16.3298 22.3839 16.0194 22.3839C15.5668 22.3839 15.1271 22.3063 14.7133 22.177L15.7349 20.3277C15.8384 20.2113 16.0065 20.1596 16.1487 20.2372C16.2134 20.276 16.2651 20.3277 16.3039 20.3795L17.2997 22.177C17.1833 22.2158 17.054 22.2417 16.9246 22.2804ZM19.4464 20.4829C19.1231 21.0002 18.6963 21.414 18.2049 21.7373L17.3902 19.7846C17.3514 19.6294 17.4161 19.4613 17.5712 19.3837C17.623 19.3578 17.6876 19.3449 17.7523 19.3449L19.8214 19.6941C19.7438 19.9786 19.6145 20.2372 19.4464 20.4829Z" fill="white"/>
<rect width="60.7043" height="36" transform="translate(32)" fill="#181818"/>
<path d="M72.7522 24.152C71.9949 24.152 71.3016 24.0133 70.6722 23.736C70.0429 23.448 69.5096 23.0587 69.0722 22.568C68.6349 22.0773 68.3202 21.528 68.1282 20.92L69.4882 20.36C69.7762 21.128 70.2029 21.72 70.7682 22.136C71.3442 22.5413 72.0162 22.744 72.7842 22.744C73.2536 22.744 73.6642 22.6693 74.0162 22.52C74.3682 22.3707 74.6402 22.1627 74.8322 21.896C75.0349 21.6187 75.1362 21.2987 75.1362 20.936C75.1362 20.4347 74.9922 20.04 74.7042 19.752C74.4269 19.4533 74.0162 19.2293 73.4722 19.08L71.2802 18.408C70.4162 18.1413 69.7549 17.72 69.2962 17.144C68.8376 16.568 68.6082 15.9067 68.6082 15.16C68.6082 14.5093 68.7629 13.9387 69.0722 13.448C69.3922 12.9467 69.8296 12.5573 70.3842 12.28C70.9496 11.992 71.5896 11.848 72.3042 11.848C73.0189 11.848 73.6642 11.976 74.2402 12.232C74.8269 12.488 75.3229 12.8347 75.7282 13.272C76.1336 13.6987 76.4322 14.1893 76.6242 14.744L75.2802 15.304C75.0242 14.632 74.6402 14.1253 74.1282 13.784C73.6162 13.432 73.0136 13.256 72.3202 13.256C71.8936 13.256 71.5149 13.3307 71.1842 13.48C70.8642 13.6187 70.6136 13.8267 70.4322 14.104C70.2616 14.3707 70.1762 14.6907 70.1762 15.064C70.1762 15.5013 70.3149 15.8907 70.5922 16.232C70.8696 16.5733 71.2909 16.8347 71.8562 17.016L73.8562 17.608C74.7949 17.896 75.5042 18.3067 75.9842 18.84C76.4642 19.3733 76.7042 20.0347 76.7042 20.824C76.7042 21.4747 76.5336 22.0507 76.1922 22.552C75.8616 23.0533 75.3976 23.448 74.8002 23.736C74.2136 24.0133 73.5309 24.152 72.7522 24.152Z" fill="white"/>
<path d="M62.3057 24.152C61.5057 24.152 60.7964 23.992 60.1777 23.672C59.5697 23.352 59.0897 22.92 58.7377 22.376C58.3964 21.8213 58.2257 21.2027 58.2257 20.52C58.2257 19.752 58.4391 19.08 58.8657 18.504C59.2924 17.928 59.8791 17.5173 60.6257 17.272L60.5937 17.672C60.0284 17.448 59.5857 17.0907 59.2657 16.6C58.9564 16.0987 58.8017 15.56 58.8017 14.984C58.8017 14.376 58.9511 13.8373 59.2497 13.368C59.5591 12.8987 59.9751 12.5307 60.4977 12.264C61.0311 11.9867 61.6337 11.848 62.3057 11.848C62.9777 11.848 63.5751 11.9813 64.0977 12.248C64.6204 12.5147 65.0311 12.888 65.3297 13.368C65.6391 13.8373 65.7937 14.376 65.7937 14.984C65.7937 15.592 65.6284 16.136 65.2977 16.616C64.9777 17.096 64.5511 17.4533 64.0177 17.688L63.9697 17.272C64.7271 17.5173 65.3191 17.9333 65.7457 18.52C66.1724 19.096 66.3857 19.7627 66.3857 20.52C66.3857 21.2027 66.2097 21.8213 65.8577 22.376C65.5164 22.92 65.0364 23.352 64.4177 23.672C63.8097 23.992 63.1057 24.152 62.3057 24.152ZM62.3057 22.792C62.8071 22.792 63.2444 22.696 63.6177 22.504C63.9911 22.312 64.2791 22.0453 64.4817 21.704C64.6951 21.352 64.8017 20.952 64.8017 20.504C64.8017 20.0453 64.6951 19.6453 64.4817 19.304C64.2791 18.952 63.9911 18.6853 63.6177 18.504C63.2444 18.312 62.8071 18.216 62.3057 18.216C61.8044 18.216 61.3617 18.312 60.9777 18.504C60.6044 18.6853 60.3164 18.952 60.1137 19.304C59.9111 19.6453 59.8097 20.0453 59.8097 20.504C59.8097 20.952 59.9111 21.352 60.1137 21.704C60.3164 22.0453 60.6044 22.312 60.9777 22.504C61.3617 22.696 61.8044 22.792 62.3057 22.792ZM62.3057 16.856C62.6684 16.856 62.9884 16.776 63.2657 16.616C63.5537 16.456 63.7831 16.2427 63.9537 15.976C64.1244 15.6987 64.2097 15.3787 64.2097 15.016C64.2097 14.6533 64.1244 14.3387 63.9537 14.072C63.7831 13.8053 63.5537 13.5973 63.2657 13.448C62.9884 13.288 62.6684 13.208 62.3057 13.208C61.9324 13.208 61.6017 13.288 61.3137 13.448C61.0257 13.5973 60.7964 13.8053 60.6257 14.072C60.4551 14.3387 60.3697 14.6533 60.3697 15.016C60.3697 15.3787 60.4551 15.6987 60.6257 15.976C60.7964 16.2427 61.0257 16.456 61.3137 16.616C61.6017 16.776 61.9324 16.856 62.3057 16.856Z" fill="white"/>
<path d="M48 23.96V12.04H49.568V18.744L49.184 18.584L54.88 12.04H56.848L52.064 17.56L52.144 16.44L57.088 23.96H55.216L51.44 18.296L49.568 20.44V23.96H48Z" fill="white"/>
</g>
<rect x="1" y="1" width="90.7043" height="34" rx="5" stroke="black" stroke-width="2"/>
<defs>
<clipPath id="clip0_9_220">
<rect width="92.7043" height="36" rx="6" fill="white"/>
</clipPath>
</defs>
</svg>
