<svg width="131" height="36" viewBox="0 0 131 36" fill="none" xmlns="http://www.w3.org/2000/svg">
<g clip-path="url(#clip0_7_349)">
<rect width="130" height="36" rx="6" fill="white"/>
<rect width="36" height="36" fill="black"/>
<path d="M26.5236 8H9.47639C9.08483 8 8.7093 8.15555 8.43242 8.43242C8.15555 8.7093 8 9.08483 8 9.47639V26.5236C8 26.9152 8.15555 27.2907 8.43242 27.5676C8.7093 27.8445 9.08483 28 9.47639 28H26.5236C26.9152 28 27.2907 27.8445 27.5676 27.5676C27.8445 27.2907 28 26.9152 28 26.5236V9.47639C28 9.08483 27.8445 8.7093 27.5676 8.43242C27.2907 8.15555 26.9152 8 26.5236 8ZM13.9611 25.0375H10.9542V15.4861H13.9611V25.0375ZM12.4556 14.1625C12.1145 14.1606 11.7816 14.0577 11.4989 13.8667C11.2163 13.6758 10.9965 13.4054 10.8674 13.0897C10.7383 12.774 10.7055 12.4272 10.7734 12.0929C10.8412 11.7586 11.0065 11.4519 11.2485 11.2115C11.4904 10.9711 11.7982 10.8077 12.1329 10.7421C12.4676 10.6764 12.8143 10.7113 13.1291 10.8425C13.444 10.9736 13.7129 11.1951 13.9021 11.479C14.0912 11.7629 14.1919 12.0964 14.1917 12.4375C14.1949 12.6659 14.1521 12.8925 14.0658 13.104C13.9796 13.3155 13.8517 13.5074 13.6896 13.6684C13.5276 13.8294 13.3349 13.9561 13.1229 14.041C12.9108 14.1258 12.6839 14.1672 12.4556 14.1625ZM25.0444 25.0458H22.0389V19.8278C22.0389 18.2889 21.3847 17.8139 20.5403 17.8139C19.6486 17.8139 18.7736 18.4861 18.7736 19.8667V25.0458H15.7667V15.4931H18.6583V16.8167H18.6972C18.9875 16.2292 20.0042 15.225 21.5556 15.225C23.2333 15.225 25.0458 16.2208 25.0458 19.1375L25.0444 25.0458Z" fill="white"/>
<path d="M106.98 23.96V15.336H108.436V17.016L108.196 16.872C108.41 16.328 108.751 15.9067 109.22 15.608C109.7 15.2987 110.26 15.144 110.9 15.144C111.519 15.144 112.068 15.2827 112.548 15.56C113.039 15.8373 113.423 16.2213 113.7 16.712C113.988 17.2027 114.132 17.7573 114.132 18.376V23.96H112.628V18.856C112.628 18.376 112.543 17.9707 112.372 17.64C112.202 17.3093 111.956 17.0533 111.636 16.872C111.327 16.68 110.97 16.584 110.564 16.584C110.159 16.584 109.796 16.68 109.476 16.872C109.167 17.0533 108.922 17.3147 108.74 17.656C108.559 17.9867 108.468 18.3867 108.468 18.856V23.96H106.98Z" fill="black"/>
<path d="M102.938 23.96V12.04H104.506V23.96H102.938Z" fill="black"/>
<path d="M95.9784 24.152C95.1677 24.152 94.437 23.9547 93.7864 23.56C93.1464 23.1653 92.6397 22.6267 92.2664 21.944C91.893 21.2613 91.7064 20.4987 91.7064 19.656C91.7064 18.792 91.893 18.024 92.2664 17.352C92.6397 16.6693 93.1464 16.1307 93.7864 15.736C94.437 15.3413 95.1677 15.144 95.9784 15.144C96.693 15.144 97.3277 15.2987 97.8824 15.608C98.437 15.9067 98.8744 16.312 99.1944 16.824L98.9544 17.192V11.848H100.458V23.96H99.0024V22.12L99.1944 22.376C98.8957 22.9413 98.4584 23.3787 97.8824 23.688C97.317 23.9973 96.6824 24.152 95.9784 24.152ZM96.1064 22.712C96.6504 22.712 97.1357 22.5787 97.5624 22.312C97.989 22.0453 98.325 21.6827 98.5704 21.224C98.8264 20.7547 98.9544 20.232 98.9544 19.656C98.9544 19.0693 98.8264 18.5467 98.5704 18.088C98.325 17.6187 97.989 17.2507 97.5624 16.984C97.1357 16.7173 96.6504 16.584 96.1064 16.584C95.573 16.584 95.0877 16.7227 94.6504 17C94.2237 17.2667 93.8877 17.6293 93.6424 18.088C93.397 18.536 93.2744 19.0587 93.2744 19.656C93.2744 20.232 93.397 20.7547 93.6424 21.224C93.8877 21.6827 94.2237 22.0453 94.6504 22.312C95.077 22.5787 95.5624 22.712 96.1064 22.712Z" fill="black"/>
<path d="M86.1982 24.152C85.3662 24.152 84.6249 23.9547 83.9743 23.56C83.3236 23.1653 82.8116 22.6267 82.4383 21.944C82.0649 21.2507 81.8783 20.4773 81.8783 19.624C81.8783 18.76 82.0596 17.992 82.4223 17.32C82.7956 16.648 83.2969 16.12 83.9263 15.736C84.5663 15.3413 85.2809 15.144 86.0703 15.144C86.7103 15.144 87.2756 15.2613 87.7663 15.496C88.2676 15.72 88.6889 16.0293 89.0303 16.424C89.3823 16.808 89.6489 17.2507 89.8302 17.752C90.0222 18.2427 90.1183 18.7547 90.1183 19.288C90.1183 19.4053 90.1076 19.5387 90.0863 19.688C90.0756 19.8267 90.0596 19.96 90.0382 20.088H82.9663V18.808H89.1743L88.4702 19.384C88.5662 18.8293 88.5129 18.3333 88.3103 17.896C88.1076 17.4587 87.8089 17.112 87.4142 16.856C87.0196 16.6 86.5716 16.472 86.0703 16.472C85.5689 16.472 85.1103 16.6 84.6943 16.856C84.2783 17.112 83.9529 17.48 83.7183 17.96C83.4943 18.4293 83.4036 18.9893 83.4463 19.64C83.4036 20.2693 83.4996 20.824 83.7342 21.304C83.9796 21.7733 84.3209 22.1413 84.7583 22.408C85.2063 22.664 85.6916 22.792 86.2143 22.792C86.7903 22.792 87.2756 22.6587 87.6702 22.392C88.0649 22.1253 88.3849 21.784 88.6303 21.368L89.8783 22.008C89.7076 22.4027 89.4409 22.7653 89.0783 23.096C88.7263 23.416 88.3049 23.672 87.8143 23.864C87.3343 24.056 86.7956 24.152 86.1982 24.152Z" fill="black"/>
<path d="M73.4646 23.96V11.848H74.9526V20.152L74.3446 20.008L78.9206 15.336H80.8246L77.5126 18.808L81.0486 23.96H79.2886L76.0566 19.288L76.9846 19.24L74.4726 21.864L74.9526 20.776V23.96H73.4646Z" fill="black"/>
<path d="M64.1834 23.96V15.336H65.6394V17.016L65.3994 16.872C65.6127 16.328 65.954 15.9067 66.4234 15.608C66.9034 15.2987 67.4634 15.144 68.1034 15.144C68.722 15.144 69.2714 15.2827 69.7514 15.56C70.242 15.8373 70.626 16.2213 70.9034 16.712C71.1914 17.2027 71.3354 17.7573 71.3354 18.376V23.96H69.8314V18.856C69.8314 18.376 69.746 17.9707 69.5754 17.64C69.4047 17.3093 69.1594 17.0533 68.8394 16.872C68.53 16.68 68.1727 16.584 67.7674 16.584C67.362 16.584 66.9994 16.68 66.6794 16.872C66.37 17.0533 66.1247 17.3147 65.9434 17.656C65.762 17.9867 65.6714 18.3867 65.6714 18.856V23.96H64.1834Z" fill="black"/>
<path d="M60.3865 23.96V15.336H61.8745V23.96H60.3865ZM60.3865 13.96V12.04H61.8745V13.96H60.3865Z" fill="black"/>
<path d="M52 23.96V12.04H53.568V22.52H58.8V23.96H52Z" fill="black"/>
</g>
<rect x="1" y="1" width="128.132" height="34" rx="5" stroke="black" stroke-width="2"/>
<defs>
<clipPath id="clip0_7_349">
<rect width="130" height="36" rx="6"/>
</clipPath>
</defs>
</svg>
