<svg width="102" height="36" viewBox="0 0 102 36" fill="none" xmlns="http://www.w3.org/2000/svg">
<g clip-path="url(#clip0_9_59)">
<rect width="101.714" height="36" rx="6" fill="white"/>
<rect width="32.002" height="36" fill="black"/>
<path d="M24.831 8.97698L24.746 9.07198C24.3206 9.54395 23.9232 10.0405 23.556 10.559C23.3899 10.7874 23.2409 11.0277 23.11 11.278C23.0048 11.467 22.9213 11.6673 22.861 11.875C22.8393 11.9315 22.8281 11.9915 22.828 12.052V12.056C22.7662 12.0749 22.7123 12.1134 22.6744 12.1658C22.6365 12.2181 22.6167 12.2814 22.618 12.346C22.6168 12.4067 22.634 12.4663 22.6674 12.517C22.7008 12.5677 22.7488 12.6071 22.805 12.63C22.843 13.001 22.885 13.772 22.875 14.83L22.871 14.972C22.8425 15.7649 22.6962 16.5491 22.437 17.299C22.421 17.289 22.407 17.285 22.397 17.286C22.367 17.289 22.286 17.406 22.207 17.537C22.149 17.627 22.088 17.732 22.053 17.828C22.034 17.8722 22.0238 17.9198 22.023 17.968C22.021 17.9977 22.0244 18.0275 22.033 18.056C22.043 18.093 22.055 18.114 22.055 18.114C22.054 18.1163 22.053 18.1186 22.052 18.121C22.0371 18.1406 22.0275 18.1636 22.024 18.188L22.012 18.217C21.9336 18.3963 21.8475 18.5721 21.754 18.744L21.677 18.886C21.654 18.9245 21.6307 18.9629 21.607 19.001C21.6001 18.9957 21.5927 18.991 21.585 18.987C21.5457 18.9806 21.5054 18.9892 21.472 19.011C21.425 19.046 21.321 19.205 20.974 19.379C20.856 19.438 20.748 19.472 20.654 19.493C20.7876 18.81 20.8705 18.1182 20.902 17.423C20.9176 17.0694 20.8962 16.7151 20.838 16.366C20.841 16.356 20.841 16.349 20.841 16.349L20.836 16.359C20.8096 16.2046 20.7749 16.0517 20.732 15.901C20.5964 15.3913 20.3491 14.9182 20.008 14.516C19.377 13.762 18.512 13.376 17.752 13.351L17.627 13.349C17.627 13.341 17.627 13.334 17.629 13.327C17.65 13.229 17.653 13.2 17.542 13.295C17.5222 13.3121 17.5032 13.3301 17.485 13.349C17.432 13.35 17.384 13.353 17.339 13.356C17.3353 13.3201 17.3343 13.284 17.336 13.248C17.34 13.172 17.36 13.121 17.249 13.216C17.191 13.2616 17.1427 13.3184 17.107 13.383C17.057 13.391 17.027 13.398 17.027 13.398L17.072 13.396L17.025 13.404C17.009 13.362 16.972 13.299 16.977 13.244C16.987 13.126 17.02 13.104 16.94 13.179C16.842 13.269 16.738 13.405 16.72 13.478L16.624 13.508C16.606 13.49 16.55 13.438 16.538 13.33C16.525 13.22 16.526 13.164 16.458 13.279C16.3958 13.3874 16.3519 13.5053 16.328 13.628C16.296 13.643 16.265 13.658 16.235 13.674C16.1965 13.6247 16.1764 13.5635 16.178 13.501C16.173 13.357 16.218 13.24 16.111 13.433C16.0446 13.5613 15.9955 13.6978 15.965 13.839C15.929 13.864 15.894 13.89 15.86 13.918C15.8555 13.8614 15.8529 13.8047 15.852 13.748C15.85 13.606 15.873 13.453 15.785 13.723C15.759 13.802 15.732 13.915 15.715 14.044C15.311 14.429 15.065 14.961 15.071 15.616V15.623C15.07 15.74 15.076 15.851 15.085 15.953C15.105 16.191 15.142 16.391 15.192 16.558C15.097 16.688 15.089 17.247 15.182 17.376C15.255 17.48 15.678 17.726 15.768 17.775C15.8047 17.8 15.8366 17.8315 15.862 17.868C15.977 18.056 15.977 18.435 15.889 18.63C15.782 18.868 15.996 18.915 16.174 18.95C16.352 18.986 16.589 18.927 16.637 18.832C16.684 18.737 16.483 18.523 16.4 18.084C16.316 17.645 16.53 17.61 16.53 17.61C16.53 17.61 16.625 17.634 16.767 17.859C16.877 18.034 16.994 18.172 17.103 18.272C17.0471 18.3411 16.979 18.3994 16.902 18.444C17.022 18.449 17.142 18.393 17.206 18.357C17.2288 18.3733 17.2525 18.3883 17.277 18.402C17.2609 18.4192 17.2442 18.4359 17.227 18.452C17.2637 18.4486 17.2999 18.4412 17.335 18.43C17.3618 18.4414 17.3901 18.4488 17.419 18.452C17.574 18.464 17.989 18.084 17.989 18.013C17.989 17.995 17.974 17.973 17.951 17.95C17.909 17.905 17.831 17.85 17.744 17.773C17.7044 17.7372 17.6676 17.6984 17.634 17.657C17.5528 17.548 17.5039 17.4184 17.493 17.283V17.273L17.49 17.242C17.49 17.242 17.497 17.235 17.506 17.222V17.226L17.51 17.216C17.562 17.136 17.66 16.837 17.04 16.138C16.7802 15.8455 16.4665 15.6058 16.116 15.432C16.074 14.96 16.266 14.519 16.742 14.302L16.737 14.307L16.745 14.301C16.972 14.199 17.262 14.146 17.622 14.165C18.312 14.201 18.842 14.524 19.212 15.01C19.726 15.722 19.95 16.79 19.787 17.866C19.719 17.931 19.732 17.941 19.774 17.943C19.7584 18.0345 19.7401 18.1256 19.719 18.216L19.692 18.231C19.569 18.305 19.621 18.304 19.692 18.323L19.686 18.343C19.666 18.408 19.643 18.473 19.62 18.536C19.5905 18.5446 19.5615 18.5546 19.533 18.566C19.398 18.619 19.453 18.626 19.521 18.657L19.565 18.679C19.533 18.759 19.499 18.839 19.464 18.916C19.437 18.9202 19.4103 18.9259 19.384 18.933C19.242 18.969 19.296 18.983 19.36 19.023C19.3737 19.0314 19.3871 19.0404 19.4 19.05C19.3656 19.1219 19.3299 19.1933 19.293 19.264C19.2413 19.2671 19.19 19.2755 19.14 19.289C19 19.325 19.053 19.339 19.117 19.379C19.151 19.399 19.177 19.42 19.198 19.438C19.167 19.4934 19.1353 19.5484 19.103 19.603L19.08 19.639C19.0105 19.6348 18.9407 19.6429 18.874 19.663C18.732 19.699 18.786 19.713 18.85 19.753C18.8872 19.7759 18.922 19.8023 18.954 19.832C18.9128 19.8925 18.8708 19.9525 18.828 20.012C18.7527 19.993 18.6741 19.9912 18.598 20.007C18.454 20.027 18.506 20.047 18.565 20.093C18.633 20.146 18.666 20.192 18.683 20.211L18.621 20.295C18.577 20.237 18.472 20.171 18.375 20.102C18.2874 20.0408 18.189 19.9967 18.085 19.972C18.037 19.972 17.886 20.24 17.068 20.169C16.249 20.098 16.198 20.019 16.126 20.019C16.056 20.019 15.903 20.076 15.898 20.078L15.864 20.058C15.5282 19.8509 15.2037 19.6259 14.892 19.384C14.428 19.014 14.172 18.737 14.172 18.737C14.172 18.737 14.309 18.612 14.125 18.453C14.0185 18.3533 13.9056 18.2608 13.787 18.176C13.7102 18.1152 13.6293 18.0598 13.545 18.01C13.5148 17.9683 13.4854 17.9259 13.457 17.883C13.3294 17.6775 13.2084 17.4681 13.094 17.255C13.0058 17.0817 12.9224 16.9059 12.844 16.728C12.684 16.368 12.574 16.046 12.498 15.764C12.4231 15.461 12.3736 15.1522 12.35 14.841C12.347 14.7603 12.3483 14.6795 12.354 14.599C12.4031 14.5606 12.4428 14.5116 12.4702 14.4557C12.4976 14.3997 12.5119 14.3383 12.512 14.276C12.5119 14.1763 12.4755 14.08 12.4096 14.0051C12.3437 13.9302 12.2529 13.8818 12.154 13.869C11.95 13.442 11.172 12.392 8.272 10.189L8.145 10.091L8.15 10.095L8.114 10.068C11.068 12.598 11.644 13.587 11.796 14C11.7864 14.0105 11.7774 14.0215 11.769 14.033C11.763 14.0286 11.757 14.0243 11.751 14.02C11.769 14.02 11.776 14.015 11.776 14.015C11.776 14.015 11.104 13.469 9.989 12.785C8.87 12.098 8.24 11.936 8.109 11.908L8.082 11.902C8.082 11.902 8.288 12.092 8.256 12.187C8.246 12.219 8.088 12.209 7.835 12.215C7.59169 12.2159 7.34899 12.2394 7.11 12.285C6.54961 12.384 6.01595 12.5985 5.543 12.915C4.238 13.784 4 14.401 4 14.401C4 14.401 4.55 13.633 5.58 13.096C5.566 13.433 5.533 15.065 6.025 17.216C6.556 19.536 7.556 21.703 7.639 21.881C7.643 22.059 7.655 22.153 7.655 22.153C7.655 22.153 7.803 20.363 8.411 18.506C8.586 18.789 9.169 19.623 10.487 20.602C12.115 21.812 12.857 22.138 12.887 22.15C12.888 22.307 12.892 22.39 12.892 22.39C12.892 22.39 12.897 22.29 12.91 22.127C12.954 22.062 13.208 21.697 13.462 21.457C13.6275 21.2948 13.8083 21.1492 14.002 21.022C14.034 21.132 14.065 21.226 14.095 21.298C14.075 21.201 14.059 21.108 14.043 21.016C14.15 21.026 14.581 21.082 15.249 21.409C15.592 21.577 15.858 21.804 16.047 22.004C16.0422 22.0058 16.0376 22.0078 16.033 22.01C16.033 22.01 16.156 22.122 16.302 22.413C16.0558 22.4036 15.8096 22.4319 15.572 22.497C15.5416 22.4328 15.509 22.3698 15.474 22.308C15.4676 22.2613 15.4545 22.2158 15.435 22.173C15.408 22.112 15.34 22.073 15.271 22.033C15.2405 22.0032 15.2054 21.9786 15.167 21.96C15.1439 21.9397 15.1251 21.9148 15.112 21.887C15.028 21.703 14.314 21.899 14.17 22.067C13.995 22.271 13.961 22.531 14.03 22.675C14.051 22.72 14.1 22.757 14.168 22.785C14.17 23.006 14.305 23.535 14.572 23.919C14.5209 23.6994 14.4848 23.4765 14.464 23.252C14.455 23.092 14.464 22.978 14.479 22.902C14.526 23.23 14.653 23.586 15.056 24.027C14.808 23.487 14.836 23.165 14.861 22.883L14.87 22.839L14.876 22.838C14.912 23.101 15.018 23.372 15.358 23.802C15.353 23.7928 15.3483 23.7835 15.344 23.774L15.358 23.795C15.1907 23.4793 15.132 23.1173 15.191 22.765L15.199 22.762C15.245 22.792 15.29 22.832 15.333 22.888C15.461 23.06 15.521 23.237 15.545 23.358C15.5175 23.4898 15.5415 23.6272 15.612 23.742C15.367 23.921 15.127 24.088 14.892 24.243C14.662 24.392 14.402 24.556 14.135 24.713C13.995 24.793 13.856 24.871 13.721 24.943L13.586 24.866H13.588L13.58 24.862C12.61 24.303 11.89 23.93 11.062 23.78C10.131 23.613 9.275 24.063 9.079 24.862C9.01655 25.1208 9.03613 25.3927 9.13503 25.64C9.23392 25.8872 9.40725 26.0976 9.631 26.242L9.643 26.25C9.656 26.26 9.669 26.267 9.683 26.276L9.743 26.312H9.745C9.937 26.422 10.169 26.503 10.436 26.549L10.464 26.554H10.47C10.6063 26.5768 10.7439 26.5915 10.882 26.598C11.857 26.645 13.038 26.19 14.205 25.616C14.305 25.67 14.407 25.724 14.511 25.782C17.058 27.185 18.609 27.367 20.665 26.51C20.163 26.661 19.457 26.866 18.571 26.854C18.5648 26.8506 18.558 26.8486 18.551 26.848L18.552 26.854C18.3352 26.8502 18.1188 26.8335 17.904 26.804L17.874 26.8V26.797C17.8737 26.7976 17.8733 26.7983 17.873 26.799C17.3377 26.7216 16.8146 26.575 16.317 26.363C16.0624 26.2556 15.8137 26.1348 15.572 26.001C15.2348 25.8147 14.8994 25.625 14.566 25.432C14.914 25.254 15.258 25.069 15.592 24.887C15.947 24.698 16.264 24.525 16.51 24.387L16.519 24.383L16.526 24.382C16.526 24.382 16.609 24.364 16.686 24.34C16.856 24.288 17.096 24.191 17.381 24.057C17.409 24.174 17.476 24.272 17.576 24.31C17.811 24.401 17.983 24.337 18.098 24.208L18.116 24.198L18.163 24.161C18.213 24.131 18.27 24.094 18.319 24.071C18.3365 24.0632 18.3542 24.0559 18.372 24.049C18.412 24.039 18.45 24.026 18.488 24.012L18.521 24.002C18.376 24.299 18.43 24.583 18.43 24.583C18.473 24.212 18.65 23.975 18.822 23.868C18.886 23.841 18.952 23.818 19.022 23.801C19.086 23.801 19.138 23.824 19.166 23.871C19.236 23.991 19.383 24.065 19.53 24.097C19.554 24.247 19.485 24.501 19.13 24.963L19.22 24.901L19.224 24.898L19.296 24.845C19.439 24.737 19.548 24.635 19.63 24.54C19.7121 24.4511 19.7769 24.3477 19.821 24.235C19.833 24.435 19.778 24.742 19.51 25.271C19.51 25.271 19.827 24.995 20.024 24.641C20.03 24.832 20.014 25.084 19.961 25.426C20.306 24.753 20.286 24.341 20.2 24.1L20.19 24.064C20.1883 24.0421 20.185 24.0204 20.18 23.999L20.222 23.942C20.34 23.776 20.174 23.598 20.068 23.527C20.008 23.487 19.868 23.373 19.614 23.37C19.389 23.1 19.104 23.22 18.656 23.515C18.603 23.55 18.5475 23.5811 18.49 23.608C18.4752 23.5674 18.4568 23.5283 18.435 23.491C18.595 23.395 18.761 23.292 18.929 23.183C19.246 22.976 19.482 22.767 19.657 22.568C20.167 22.051 20.347 21.548 20.867 21.122L20.854 21.123L20.914 21.091C21.768 20.633 22.221 20.544 22.253 20.538L22.25 20.666L22.268 20.541C22.4462 20.6283 22.6088 20.7445 22.749 20.885C22.8924 21.0291 23.0143 21.1931 23.111 21.372L23.155 21.673C23.155 21.673 23.155 21.556 23.145 21.343C23.298 21.191 24.165 20.299 24.869 18.876C25.563 17.472 25.813 16.353 25.886 15.952C26.1652 16.7574 26.3874 17.5814 26.551 18.418C26.551 18.418 26.549 18.285 26.52 18.044C26.617 17.708 27.036 16.172 27.147 14.288C27.247 12.607 27.082 11.508 27.007 11.114C27.655 11.651 28.002 12.421 28.002 12.421C28.002 12.421 27.962 12.258 27.814 11.984L27.834 12.011C27.834 12.011 27.598 11.556 27.19 11.106C27.1387 11.0477 27.0864 10.9904 27.033 10.934C26.601 10.475 26.179 10.317 25.863 10.262C25.763 10.242 25.66 10.232 25.555 10.232H25.536C25.411 10.229 25.335 10.234 25.329 10.206C25.309 10.111 25.439 9.92098 25.439 9.92098C25.439 9.92098 25.262 9.96698 24.885 10.251C24.655 10.418 24.365 10.661 24.032 11.011C23.7193 11.328 23.4223 11.66 23.142 12.006L23.067 12.101C23.0597 12.0948 23.0521 12.0891 23.044 12.084C23.12 11.753 23.406 10.966 24.832 8.97198L24.831 8.97698ZM15.921 20.091C15.925 20.0929 15.929 20.0949 15.933 20.097L15.921 20.091ZM15.658 22.697C15.746 22.741 15.848 22.803 15.961 22.891H15.956C15.9006 22.905 15.8481 22.9287 15.801 22.961C15.7491 22.8923 15.7067 22.817 15.675 22.737L15.658 22.697ZM10.803 24.267C10.935 24.267 11.079 24.281 11.235 24.315L11.255 24.32L11.272 24.324C11.382 24.351 11.495 24.386 11.609 24.426L11.666 24.447C11.857 24.521 12.061 24.603 12.277 24.695C12.597 24.834 12.896 24.972 13.115 25.07L13.298 25.158C13.077 25.264 12.874 25.354 12.721 25.419C11.707 25.835 10.891 25.955 10.383 25.81C9.438 25.541 9.623 24.273 10.803 24.267Z" fill="white"/>
<rect width="69.7119" height="36" transform="translate(32.002)" fill="#181818"/>
<path d="M74.6739 23.96V12.04H76.1139L80.5779 18.392H79.8419L84.2739 12.04H85.7139V23.96H84.1299V14.024L84.6899 14.2L80.2579 20.44H80.1299L75.7459 14.2L76.2419 14.024V23.96H74.6739Z" fill="white"/>
<path d="M67.154 23.96L62.85 12.04H64.53L68.178 22.52H67.842L71.49 12.04H73.17L68.882 23.96H67.154Z" fill="white"/>
<path d="M56.5645 23.96V12.04H58.1325V22.52H63.3645V23.96H56.5645Z" fill="white"/>
<path d="M48.002 23.96V12.04H49.57V22.52H54.802V23.96H48.002Z" fill="white"/>
</g>
<rect x="1" y="1" width="99.7139" height="34" rx="5" stroke="black" stroke-width="2"/>
<defs>
<clipPath id="clip0_9_59">
<rect width="101.714" height="36" rx="6" fill="white"/>
</clipPath>
</defs>
</svg>
