<svg width="117" height="36" viewBox="0 0 117 36" fill="none" xmlns="http://www.w3.org/2000/svg">
<g clip-path="url(#clip0_9_77)">
<rect width="116.736" height="36" rx="6" fill="white"/>
<rect width="32" height="36" fill="black"/>
<path d="M25.2064 15.12C24.7026 14.2868 23.9906 13.6058 23.1437 13.1469C22.2967 12.688 21.3454 12.4678 20.3875 12.5091C19.6642 12.5544 18.9587 12.7568 18.3181 13.1027C17.6774 13.4486 17.1163 13.9301 16.6722 14.515C16.7511 14.6466 16.8367 14.7715 16.9078 14.9089L17.8847 16.7842L18.0337 16.4959C18.261 16.0161 18.6066 15.605 19.0364 15.3027C19.4661 15.0004 19.9654 14.8174 20.4853 14.7715C20.9102 14.7552 21.334 14.8267 21.7312 14.9815C22.1285 15.1364 22.4911 15.3715 22.7973 15.6728C23.1035 15.9741 23.3471 16.3354 23.5135 16.735C23.6799 17.1347 23.7657 17.5646 23.7657 17.9989C23.7657 18.4332 23.6799 18.863 23.5135 19.2627C23.3471 19.6624 23.1035 20.0237 22.7973 20.325C22.4911 20.6263 22.1285 20.8614 21.7312 21.0162C21.334 21.1711 20.9102 21.2425 20.4853 21.2262C19.9657 21.1805 19.4666 20.9976 19.037 20.6955C18.6074 20.3934 18.262 19.9825 18.0348 19.503L17.2524 18L15.9265 15.4345C15.5174 14.6044 14.9035 13.8976 14.1454 13.3838C13.3873 12.87 12.5111 12.5669 11.6033 12.5045C10.8784 12.4744 10.155 12.5943 9.47653 12.8569C8.79808 13.1195 8.17858 13.5194 7.65524 14.0327C7.1319 14.546 6.71551 15.162 6.43107 15.8437C6.14662 16.5255 6 17.2589 6 18C6 18.7411 6.14662 19.4745 6.43107 20.1563C6.71551 20.838 7.1319 21.454 7.65524 21.9673C8.17858 22.4806 8.79808 22.8805 9.47653 23.1431C10.155 23.4057 10.8784 23.5256 11.6033 23.4955C12.3266 23.4501 13.0321 23.2477 13.6728 22.9018C14.3134 22.556 14.8745 22.0745 15.3186 21.4896C15.2397 21.3579 15.1541 21.233 15.083 21.0957L14.1061 19.2158L13.9572 19.5041C13.7298 19.9839 13.3843 20.395 12.9545 20.6973C12.5247 20.9996 12.0254 21.1826 11.5055 21.2285C10.9387 21.2528 10.376 21.1214 9.87578 20.8481C9.37559 20.5748 8.95629 20.1695 8.66153 19.6744C8.36033 19.1709 8.20096 18.5923 8.20096 18.0023C8.20096 17.4122 8.36033 16.8336 8.66153 16.3301C8.94506 15.8543 9.34359 15.4609 9.81885 15.1878C10.2941 14.9147 10.8301 14.7709 11.3755 14.7704H11.51C12.0296 14.8161 12.5287 14.999 12.9583 15.3011C13.3879 15.6032 13.7332 16.0141 13.9605 16.4936L14.7385 18L16.0643 20.5655C16.4734 21.3956 17.0873 22.1024 17.8454 22.6162C18.6036 23.13 19.4797 23.4331 20.3875 23.4955H20.6198C21.5767 23.4945 22.516 23.2331 23.3412 22.7382C24.1663 22.2434 24.8475 21.5329 25.3146 20.6799C25.7818 19.8269 26.018 18.8621 25.9989 17.885C25.9799 16.9078 25.7063 15.9534 25.2064 15.12Z" fill="white"/>
<rect width="84.7355" height="36" transform="translate(32)" fill="#181818"/>
<path d="M97.5995 22.648C96.7355 22.648 95.9835 22.4347 95.3435 22.008C94.7035 21.5813 94.2502 21.0053 93.9835 20.28L95.1675 19.704C95.4128 20.216 95.7488 20.6213 96.1755 20.92C96.6022 21.2187 97.0768 21.368 97.5995 21.368C98.0688 21.368 98.4582 21.256 98.7675 21.032C99.0768 20.808 99.2315 20.5147 99.2315 20.152C99.2315 19.896 99.1568 19.6933 99.0075 19.544C98.8688 19.384 98.6982 19.2613 98.4955 19.176C98.2928 19.08 98.1062 19.0107 97.9355 18.968L96.6395 18.6C95.8608 18.376 95.2902 18.056 94.9275 17.64C94.5755 17.224 94.3995 16.7387 94.3995 16.184C94.3995 15.672 94.5275 15.2293 94.7835 14.856C95.0502 14.472 95.4075 14.1733 95.8555 13.96C96.3142 13.7467 96.8262 13.64 97.3915 13.64C98.1488 13.64 98.8262 13.832 99.4235 14.216C100.031 14.6 100.463 15.1387 100.719 15.832L99.5035 16.392C99.3115 15.944 99.0235 15.592 98.6395 15.336C98.2555 15.0693 97.8235 14.936 97.3435 14.936C96.9062 14.936 96.5595 15.048 96.3035 15.272C96.0475 15.4853 95.9195 15.7573 95.9195 16.088C95.9195 16.3333 95.9835 16.536 96.1115 16.696C96.2395 16.8453 96.3942 16.9627 96.5755 17.048C96.7568 17.1227 96.9328 17.1867 97.1035 17.24L98.5115 17.656C99.2155 17.8587 99.7595 18.1733 100.143 18.6C100.538 19.0267 100.735 19.5387 100.735 20.136C100.735 20.616 100.602 21.048 100.335 21.432C100.069 21.816 99.7008 22.1147 99.2315 22.328C98.7622 22.5413 98.2182 22.648 97.5995 22.648Z" fill="white"/>
<path d="M83.8084 25.656V13.832H85.2644V15.688L85.0724 15.32C85.3924 14.808 85.8297 14.4027 86.3844 14.104C86.939 13.7947 87.5737 13.64 88.2884 13.64C89.099 13.64 89.8244 13.8373 90.4644 14.232C91.115 14.6267 91.627 15.1653 92.0004 15.848C92.3737 16.52 92.5604 17.288 92.5604 18.152C92.5604 18.9947 92.3737 19.7573 92.0004 20.44C91.627 21.1227 91.115 21.6613 90.4644 22.056C89.8244 22.4507 89.0937 22.648 88.2724 22.648C87.579 22.648 86.9444 22.4933 86.3684 22.184C85.803 21.8747 85.3657 21.4373 85.0564 20.872L85.2964 20.616V25.656H83.8084ZM88.1604 21.208C88.7044 21.208 89.1897 21.0747 89.6164 20.808C90.043 20.5413 90.3737 20.1787 90.6084 19.72C90.8537 19.2507 90.9764 18.728 90.9764 18.152C90.9764 17.5547 90.8537 17.032 90.6084 16.584C90.3737 16.1253 90.043 15.7627 89.6164 15.496C89.1897 15.2187 88.7044 15.08 88.1604 15.08C87.6164 15.08 87.1257 15.2133 86.6884 15.48C86.2617 15.7467 85.9204 16.1147 85.6644 16.584C85.419 17.0427 85.2964 17.5653 85.2964 18.152C85.2964 18.728 85.419 19.2507 85.6644 19.72C85.9204 20.1787 86.2617 20.5413 86.6884 20.808C87.1257 21.0747 87.6164 21.208 88.1604 21.208Z" fill="white"/>
<path d="M75.6335 22.648C74.7908 22.648 74.0015 22.4987 73.2655 22.2C72.5295 21.8907 71.8842 21.4587 71.3295 20.904C70.7855 20.3493 70.3588 19.6987 70.0495 18.952C69.7402 18.1947 69.5855 17.3733 69.5855 16.488C69.5855 15.592 69.7402 14.7707 70.0495 14.024C70.3588 13.2773 70.7855 12.6267 71.3295 12.072C71.8842 11.5173 72.5242 11.0907 73.2495 10.792C73.9855 10.4933 74.7802 10.344 75.6335 10.344C76.4868 10.344 77.2762 10.4987 78.0015 10.808C78.7375 11.1067 79.3775 11.5333 79.9215 12.088C80.4762 12.632 80.9082 13.2773 81.2175 14.024C81.5375 14.7707 81.6975 15.592 81.6975 16.488C81.6975 17.3733 81.5375 18.1947 81.2175 18.952C80.9082 19.6987 80.4762 20.3493 79.9215 20.904C79.3775 21.4587 78.7375 21.8907 78.0015 22.2C77.2762 22.4987 76.4868 22.648 75.6335 22.648ZM75.6335 21.192C76.2948 21.192 76.8975 21.0747 77.4415 20.84C77.9855 20.5947 78.4548 20.2587 78.8495 19.832C79.2548 19.3947 79.5642 18.8933 79.7775 18.328C80.0015 17.752 80.1135 17.1387 80.1135 16.488C80.1135 15.8373 80.0015 15.2293 79.7775 14.664C79.5642 14.0987 79.2548 13.6027 78.8495 13.176C78.4548 12.7387 77.9855 12.4027 77.4415 12.168C76.8975 11.9227 76.2948 11.8 75.6335 11.8C74.9828 11.8 74.3855 11.9227 73.8415 12.168C73.2975 12.4027 72.8228 12.7387 72.4175 13.176C72.0228 13.6027 71.7135 14.0987 71.4895 14.664C71.2655 15.2293 71.1535 15.8373 71.1535 16.488C71.1535 17.1387 71.2655 17.752 71.4895 18.328C71.7135 18.8933 72.0228 19.3947 72.4175 19.832C72.8228 20.2587 73.2975 20.5947 73.8415 20.84C74.3855 21.0747 74.9828 21.192 75.6335 21.192Z" fill="white"/>
<path d="M61.6875 22.456V10.536H63.2555V21.016H68.4875V22.456H61.6875Z" fill="white"/>
<path d="M48 22.456V10.536H49.44L53.904 16.888H53.168L57.6 10.536H59.04V22.456H57.456V12.52L58.016 12.696L53.584 18.936H53.456L49.072 12.696L49.568 12.52V22.456H48Z" fill="white"/>
</g>
<rect x="1" y="1" width="114.736" height="34" rx="5" stroke="black" stroke-width="2"/>
<defs>
<clipPath id="clip0_9_77">
<rect width="116.736" height="36" rx="6" fill="white"/>
</clipPath>
</defs>
</svg>
