<svg width="96" height="36" viewBox="0 0 96 36" fill="none" xmlns="http://www.w3.org/2000/svg">
<g clip-path="url(#clip0_9_169)">
<rect width="94" height="34" fill="#181818" rx="6" ry="6" x="1" y="1" stroke-width="2" stroke="black" />
<rect width="31" height="36" fill="black"/>
<path fill-rule="evenodd" clip-rule="evenodd" d="M15.1593 8.88785C13.8929 8.88785 12.6292 9.15415 11.4375 9.68493C9.20295 10.6802 7.48959 12.4865 6.61306 14.7709C5.73653 17.0553 5.8018 19.5444 6.7968 21.7797C7.74565 23.9113 9.43154 25.5687 11.5663 26.4783L13.5478 21.3134C12.7345 20.91 12.0951 20.2121 11.767 19.3573C11.0482 17.4844 11.9867 15.3757 13.8591 14.6567C15.7315 13.9376 17.8395 14.8765 18.5583 16.7494C18.9065 17.6567 18.8806 18.6453 18.4855 19.5331C18.1368 20.3167 17.5372 20.939 16.7777 21.3138L18.7589 26.4781C21.0297 25.5077 22.8243 23.6502 23.7123 21.336C24.5888 19.0516 24.5235 16.5625 23.5285 14.3272C22.5335 12.0918 20.7279 10.3779 18.4442 9.50113C17.3783 9.09189 16.2678 8.88785 15.1593 8.88785Z" fill="white"/>
<path fill-rule="evenodd" clip-rule="evenodd" d="M23.6199 25.8912C23.4968 26.0171 23.4353 26.1664 23.4353 26.3391C23.4353 26.5181 23.4979 26.6702 23.623 26.7954C23.7475 26.9206 23.8979 26.9831 24.0741 26.9831C24.2496 26.9831 24.3996 26.9202 24.5241 26.7943C24.6485 26.6678 24.7108 26.516 24.7108 26.3391C24.7108 26.1671 24.6489 26.0178 24.5251 25.8912C24.3999 25.7625 24.2496 25.6982 24.0741 25.6982C23.8965 25.6982 23.7451 25.7625 23.6199 25.8912ZM24.6153 26.894C24.465 27.0394 24.2846 27.1122 24.0741 27.1122C23.8566 27.1122 23.6734 27.0377 23.5244 26.8887C23.3755 26.7398 23.301 26.5566 23.301 26.3391C23.301 26.1132 23.3814 25.9255 23.5423 25.7758C23.6933 25.636 23.8706 25.566 24.0741 25.566C24.2874 25.566 24.4695 25.6416 24.6206 25.7926C24.7716 25.9437 24.8471 26.1258 24.8471 26.3391C24.8471 26.5587 24.7699 26.7436 24.6153 26.894ZM24.1444 26.0811C24.1136 26.0692 24.0702 26.0632 24.0143 26.0632H23.9597V26.3118H24.0468C24.0993 26.3118 24.1402 26.3013 24.1695 26.2804C24.1989 26.2594 24.2136 26.2255 24.2136 26.1786C24.2136 26.1318 24.1905 26.0992 24.1444 26.0811ZM23.7353 26.7692V25.9122C23.7884 25.9122 23.868 25.9124 23.9739 25.9127C24.0799 25.9131 24.1388 25.9136 24.1507 25.9143C24.2185 25.9192 24.2748 25.9339 24.3195 25.9583C24.3958 26.0003 24.4339 26.0685 24.4339 26.1629C24.4339 26.2349 24.4138 26.287 24.3735 26.3192C24.3333 26.3513 24.2839 26.3706 24.2251 26.3769C24.279 26.388 24.3195 26.4045 24.3468 26.4262C24.3972 26.4667 24.4223 26.5307 24.4223 26.6181V26.6947C24.4223 26.7031 24.4228 26.7115 24.4239 26.7199C24.4249 26.7282 24.4269 26.7366 24.4297 26.745L24.437 26.7692H24.223C24.216 26.7419 24.2115 26.7024 24.2094 26.6506C24.2073 26.5989 24.2027 26.5639 24.1958 26.5457C24.1846 26.5157 24.1636 26.4947 24.1328 26.4828C24.116 26.4758 24.0905 26.4713 24.0563 26.4692L24.007 26.466H23.9597V26.7692H23.7353Z" fill="white"/>
<path d="M75.6858 24.152C74.9284 24.152 74.2351 24.0133 73.6058 23.736C72.9764 23.448 72.4431 23.0587 72.0058 22.568C71.5684 22.0773 71.2538 21.528 71.0618 20.92L72.4218 20.36C72.7098 21.128 73.1364 21.72 73.7018 22.136C74.2778 22.5413 74.9498 22.744 75.7178 22.744C76.1871 22.744 76.5978 22.6693 76.9498 22.52C77.3018 22.3707 77.5738 22.1627 77.7658 21.896C77.9684 21.6187 78.0698 21.2987 78.0698 20.936C78.0698 20.4347 77.9258 20.04 77.6378 19.752C77.3604 19.4533 76.9498 19.2293 76.4058 19.08L74.2138 18.408C73.3498 18.1413 72.6884 17.72 72.2298 17.144C71.7711 16.568 71.5418 15.9067 71.5418 15.16C71.5418 14.5093 71.6964 13.9387 72.0058 13.448C72.3258 12.9467 72.7631 12.5573 73.3178 12.28C73.8831 11.992 74.5231 11.848 75.2378 11.848C75.9524 11.848 76.5978 11.976 77.1738 12.232C77.7604 12.488 78.2564 12.8347 78.6618 13.272C79.0671 13.6987 79.3658 14.1893 79.5578 14.744L78.2138 15.304C77.9578 14.632 77.5738 14.1253 77.0618 13.784C76.5498 13.432 75.9471 13.256 75.2538 13.256C74.8271 13.256 74.4484 13.3307 74.1178 13.48C73.7978 13.6187 73.5471 13.8267 73.3658 14.104C73.1951 14.3707 73.1098 14.6907 73.1098 15.064C73.1098 15.5013 73.2484 15.8907 73.5258 16.232C73.8031 16.5733 74.2244 16.8347 74.7898 17.016L76.7898 17.608C77.7284 17.896 78.4378 18.3067 78.9178 18.84C79.3978 19.3733 79.6378 20.0347 79.6378 20.824C79.6378 21.4747 79.4671 22.0507 79.1258 22.552C78.7951 23.0533 78.3311 23.448 77.7338 23.736C77.1471 24.0133 76.4644 24.152 75.6858 24.152Z" fill="white"/>
<path d="M65.342 24.152C64.5847 24.152 63.8914 24.0133 63.262 23.736C62.6327 23.448 62.0994 23.0587 61.662 22.568C61.2247 22.0773 60.91 21.528 60.718 20.92L62.078 20.36C62.366 21.128 62.7927 21.72 63.358 22.136C63.934 22.5413 64.606 22.744 65.374 22.744C65.8434 22.744 66.254 22.6693 66.606 22.52C66.958 22.3707 67.23 22.1627 67.422 21.896C67.6247 21.6187 67.726 21.2987 67.726 20.936C67.726 20.4347 67.582 20.04 67.294 19.752C67.0167 19.4533 66.606 19.2293 66.062 19.08L63.87 18.408C63.006 18.1413 62.3447 17.72 61.886 17.144C61.4274 16.568 61.198 15.9067 61.198 15.16C61.198 14.5093 61.3527 13.9387 61.662 13.448C61.982 12.9467 62.4194 12.5573 62.974 12.28C63.5394 11.992 64.1794 11.848 64.894 11.848C65.6087 11.848 66.254 11.976 66.83 12.232C67.4167 12.488 67.9127 12.8347 68.318 13.272C68.7234 13.6987 69.022 14.1893 69.214 14.744L67.87 15.304C67.614 14.632 67.23 14.1253 66.718 13.784C66.206 13.432 65.6034 13.256 64.91 13.256C64.4834 13.256 64.1047 13.3307 63.774 13.48C63.454 13.6187 63.2034 13.8267 63.022 14.104C62.8514 14.3707 62.766 14.6907 62.766 15.064C62.766 15.5013 62.9047 15.8907 63.182 16.232C63.4594 16.5733 63.8807 16.8347 64.446 17.016L66.446 17.608C67.3847 17.896 68.094 18.3067 68.574 18.84C69.054 19.3733 69.294 20.0347 69.294 20.824C69.294 21.4747 69.1234 22.0507 68.782 22.552C68.4514 23.0533 67.9874 23.448 67.39 23.736C66.8034 24.0133 66.1207 24.152 65.342 24.152Z" fill="white"/>
<path d="M52.8951 24.152C52.0525 24.152 51.2631 24.0027 50.5271 23.704C49.7911 23.3947 49.1458 22.9627 48.5911 22.408C48.0471 21.8533 47.6205 21.2027 47.3111 20.456C47.0018 19.6987 46.8471 18.8773 46.8471 17.992C46.8471 17.096 47.0018 16.2747 47.3111 15.528C47.6205 14.7813 48.0471 14.1307 48.5911 13.576C49.1458 13.0213 49.7858 12.5947 50.5111 12.296C51.2471 11.9973 52.0418 11.848 52.8951 11.848C53.7485 11.848 54.5378 12.0027 55.2631 12.312C55.9991 12.6107 56.6391 13.0373 57.1831 13.592C57.7378 14.136 58.1698 14.7813 58.4791 15.528C58.7991 16.2747 58.9591 17.096 58.9591 17.992C58.9591 18.8773 58.7991 19.6987 58.4791 20.456C58.1698 21.2027 57.7378 21.8533 57.1831 22.408C56.6391 22.9627 55.9991 23.3947 55.2631 23.704C54.5378 24.0027 53.7485 24.152 52.8951 24.152ZM52.8951 22.696C53.5565 22.696 54.1591 22.5787 54.7031 22.344C55.2471 22.0987 55.7165 21.7627 56.1111 21.336C56.5165 20.8987 56.8258 20.3973 57.0391 19.832C57.2631 19.256 57.3751 18.6427 57.3751 17.992C57.3751 17.3413 57.2631 16.7333 57.0391 16.168C56.8258 15.6027 56.5165 15.1067 56.1111 14.68C55.7165 14.2427 55.2471 13.9067 54.7031 13.672C54.1591 13.4267 53.5565 13.304 52.8951 13.304C52.2445 13.304 51.6471 13.4267 51.1031 13.672C50.5591 13.9067 50.0845 14.2427 49.6791 14.68C49.2845 15.1067 48.9751 15.6027 48.7511 16.168C48.5271 16.7333 48.4151 17.3413 48.4151 17.992C48.4151 18.6427 48.5271 19.256 48.7511 19.832C48.9751 20.3973 49.2845 20.8987 49.6791 21.336C50.0845 21.7627 50.5591 22.0987 51.1031 22.344C51.6471 22.5787 52.2445 22.696 52.8951 22.696Z" fill="white"/>
</g>
<defs>
<clipPath id="clip0_9_169">
<rect width="96" height="36" rx="6"/>
</clipPath>
</defs>
</svg>
