<svg width="116" height="36" viewBox="0 0 116 36" fill="none" xmlns="http://www.w3.org/2000/svg">
<g clip-path="url(#clip0_9_116)">
<rect width="114" height="34" fill="#181818" rx="6" ry="6" x="1" y="1" stroke-width="2" stroke="black" />
<rect width="32" height="36" fill="black"/>
<path d="M15.904 8.07812C10.839 8.07813 11.1553 10.2746 11.1553 10.2746L11.1609 12.5502H15.9944V13.2334H9.24111C9.24111 13.2334 6 12.8658 6 17.9765C6 23.0871 8.82891 22.9059 8.82891 22.9059H10.5172V20.5344C10.5172 20.5344 10.4262 17.7055 13.301 17.7055H18.0949C18.0949 17.7055 20.7883 17.749 20.7883 15.1024V10.7263C20.7883 10.7263 21.1972 8.07812 15.904 8.07812ZM13.2388 9.60833C13.7197 9.60833 14.1084 9.99701 14.1084 10.4779C14.1084 10.9588 13.7197 11.3475 13.2388 11.3475C12.758 11.3475 12.3693 10.9588 12.3693 10.4779C12.3693 9.99701 12.758 9.60833 13.2388 9.60833Z" fill="white"/>
<path d="M16.0479 27.9261C21.1129 27.9261 20.7966 25.7296 20.7966 25.7296L20.7909 23.454H15.9575V22.7708H22.7108C22.7108 22.7708 25.9519 23.1384 25.9519 18.0277C25.9519 12.9171 23.123 13.0983 23.123 13.0983H21.4346V15.4699C21.4346 15.4699 21.5256 18.2988 18.6509 18.2988H13.857C13.857 18.2988 11.1636 18.2552 11.1636 20.9018V25.2779C11.1636 25.2779 10.7547 27.9261 16.0479 27.9261ZM18.713 26.3959C18.2321 26.3959 17.8434 26.0072 17.8434 25.5263C17.8434 25.0454 18.2321 24.6568 18.713 24.6568C19.1939 24.6568 19.5826 25.0454 19.5826 25.5263C19.5826 26.0072 19.1939 26.3959 18.713 26.3959Z" fill="#C1C1C1"/>
<path d="M93.074 22.296V13.672H94.53V15.352L94.29 15.208C94.5033 14.664 94.8447 14.2427 95.314 13.944C95.794 13.6347 96.354 13.48 96.994 13.48C97.6127 13.48 98.162 13.6187 98.642 13.896C99.1327 14.1733 99.5167 14.5573 99.794 15.048C100.082 15.5387 100.226 16.0933 100.226 16.712V22.296H98.722V17.192C98.722 16.712 98.6367 16.3067 98.466 15.976C98.2953 15.6453 98.05 15.3893 97.73 15.208C97.4207 15.016 97.0633 14.92 96.658 14.92C96.2527 14.92 95.89 15.016 95.57 15.208C95.2607 15.3893 95.0153 15.6507 94.834 15.992C94.6527 16.3227 94.562 16.7227 94.562 17.192V22.296H93.074Z" fill="white"/>
<path d="M86.7012 22.488C85.8692 22.488 85.1172 22.296 84.4452 21.912C83.7732 21.5173 83.2399 20.9787 82.8452 20.296C82.4506 19.6133 82.2532 18.84 82.2532 17.976C82.2532 17.112 82.4452 16.344 82.8292 15.672C83.2239 15 83.7572 14.4667 84.4292 14.072C85.1012 13.6773 85.8586 13.48 86.7012 13.48C87.5332 13.48 88.2852 13.6773 88.9572 14.072C89.6292 14.456 90.1572 14.984 90.5412 15.656C90.9359 16.328 91.1332 17.1013 91.1332 17.976C91.1332 18.8507 90.9306 19.6293 90.5252 20.312C90.1199 20.984 89.5812 21.5173 88.9092 21.912C88.2479 22.296 87.5119 22.488 86.7012 22.488ZM86.7012 21.048C87.2346 21.048 87.7146 20.9147 88.1412 20.648C88.5786 20.3813 88.9199 20.0133 89.1652 19.544C89.4212 19.0747 89.5492 18.552 89.5492 17.976C89.5492 17.3893 89.4212 16.872 89.1652 16.424C88.9199 15.9653 88.5786 15.6027 88.1412 15.336C87.7146 15.0587 87.2346 14.92 86.7012 14.92C86.1572 14.92 85.6666 15.0587 85.2292 15.336C84.8026 15.6027 84.4612 15.9653 84.2052 16.424C83.9492 16.872 83.8212 17.3893 83.8212 17.976C83.8212 18.552 83.9492 19.0747 84.2052 19.544C84.4612 20.0133 84.8026 20.3813 85.2292 20.648C85.6666 20.9147 86.1572 21.048 86.7012 21.048Z" fill="white"/>
<path d="M73.324 22.296V10.184H74.812V15.352L74.54 15.208C74.7533 14.664 75.0947 14.2427 75.564 13.944C76.044 13.6347 76.604 13.48 77.244 13.48C77.8627 13.48 78.412 13.6187 78.892 13.896C79.3827 14.1733 79.7667 14.5573 80.044 15.048C80.332 15.5387 80.476 16.0933 80.476 16.712V22.296H78.972V17.192C78.972 16.712 78.8813 16.3067 78.7 15.976C78.5293 15.6453 78.2893 15.3893 77.98 15.208C77.6707 15.016 77.3133 14.92 76.908 14.92C76.5133 14.92 76.156 15.016 75.836 15.208C75.516 15.3893 75.2653 15.6507 75.084 15.992C74.9027 16.3227 74.812 16.7227 74.812 17.192V22.296H73.324Z" fill="white"/>
<path d="M70.4842 22.392C69.6416 22.392 68.9909 22.152 68.5322 21.672C68.0842 21.192 67.8602 20.5147 67.8602 19.64V15.096H66.2922V13.672H66.6122C66.9962 13.672 67.3002 13.5547 67.5242 13.32C67.7482 13.0853 67.8602 12.776 67.8602 12.392V11.688H69.3482V13.672H71.2842V15.096H69.3482V19.592C69.3482 19.88 69.3909 20.1307 69.4762 20.344C69.5722 20.5573 69.7269 20.728 69.9402 20.856C70.1536 20.9733 70.4362 21.032 70.7882 21.032C70.8629 21.032 70.9536 21.0267 71.0602 21.016C71.1776 21.0053 71.2842 20.9947 71.3802 20.984V22.296C71.2416 22.328 71.0869 22.3493 70.9162 22.36C70.7456 22.3813 70.6016 22.392 70.4842 22.392Z" fill="white"/>
<path d="M58.6005 25.816C58.4085 25.816 58.2165 25.8 58.0245 25.768C57.8325 25.736 57.6512 25.6827 57.4805 25.608V24.28C57.5978 24.3013 57.7418 24.3227 57.9125 24.344C58.0938 24.376 58.2698 24.392 58.4405 24.392C58.9418 24.392 59.3205 24.28 59.5765 24.056C59.8432 23.8427 60.0938 23.4693 60.3285 22.936L60.8725 21.64L60.8405 22.936L57.1605 13.672H58.7765L61.6405 21.032H61.1605L64.0085 13.672H65.6565L61.7685 23.32C61.5872 23.7787 61.3525 24.1947 61.0645 24.568C60.7872 24.952 60.4458 25.256 60.0405 25.48C59.6352 25.704 59.1552 25.816 58.6005 25.816Z" fill="white"/>
<path d="M48 22.296V10.376H52.208C52.9973 10.376 53.6907 10.5253 54.288 10.824C54.8853 11.1227 55.3493 11.5493 55.68 12.104C56.0213 12.6587 56.192 13.3093 56.192 14.056C56.192 14.8027 56.0213 15.4533 55.68 16.008C55.3493 16.552 54.8853 16.9787 54.288 17.288C53.7013 17.5867 53.008 17.736 52.208 17.736H49.568V22.296H48ZM49.568 16.296H52.256C52.736 16.296 53.152 16.2053 53.504 16.024C53.856 15.8427 54.128 15.5813 54.32 15.24C54.512 14.8987 54.608 14.504 54.608 14.056C54.608 13.5973 54.512 13.2027 54.32 12.872C54.128 12.5307 53.856 12.2693 53.504 12.088C53.152 11.9067 52.736 11.816 52.256 11.816H49.568V16.296Z" fill="white"/>
</g>
<defs>
<clipPath id="clip0_9_116">
<rect width="116" height="36" rx="6" />
</clipPath>
</defs>
</svg>
