<svg width="118" height="36" viewBox="0 0 118 36" fill="none" xmlns="http://www.w3.org/2000/svg">
<g clip-path="url(#clip0_9_156)">
<rect width="117.786" height="36" rx="6" fill="white"/>
<rect width="32" height="36" fill="black"/>
<path d="M26 18.0001C26 23.5226 21.5229 27.9999 16 27.9999C10.4771 27.9999 6 23.5226 6 18.0001C6 12.4773 10.4771 8.00015 16 8.00015C21.523 8.00015 26 12.4773 26 18.0001Z" fill="white"/>
<path d="M9.20034 16.6647C8.46262 16.6647 7.86496 17.2625 7.86496 18.0001C7.86496 18.7374 8.46262 19.3351 9.20034 19.3351C9.93765 19.3351 10.5353 18.7374 10.5353 18.0001C10.5353 17.2625 9.93765 16.6647 9.20034 16.6647ZM18.7329 22.7328C18.0943 23.1016 17.8753 23.9177 18.2442 24.5559C18.6126 25.1945 19.4287 25.4134 20.0673 25.0446C20.7059 24.6762 20.9248 23.8601 20.556 23.2214C20.1876 22.5832 19.371 22.3643 18.7329 22.7328ZM12.1004 18.0001C12.1004 16.6807 12.7557 15.5151 13.7585 14.8092L12.7824 13.1744C11.6143 13.9552 10.7452 15.1484 10.384 16.5458C10.8054 16.8897 11.0752 17.4132 11.0752 18.0001C11.0752 18.5866 10.8054 19.1101 10.384 19.454C10.7447 20.8518 11.6138 22.045 12.7824 22.8258L13.7585 21.1906C12.7557 20.4852 12.1004 19.3196 12.1004 18.0001ZM16 14.1C18.0373 14.1 19.7088 15.6621 19.8842 17.6542L21.7866 17.6261C21.693 16.1554 21.0506 14.8352 20.0634 13.8643C19.5557 14.0561 18.9694 14.0268 18.4625 13.7346C17.9548 13.4416 17.6365 12.9474 17.5495 12.4109C17.0561 12.2747 16.5368 12.2002 15.9999 12.2002C15.077 12.2002 14.2044 12.4169 13.4296 12.8004L14.3573 14.4628C14.8564 14.2306 15.4131 14.1 16 14.1ZM16 21.8998C15.4131 21.8998 14.8564 21.7692 14.3574 21.537L13.4297 23.1994C14.2044 23.5833 15.077 23.8002 16 23.8002C16.5369 23.8002 17.0562 23.7255 17.5495 23.589C17.6366 23.0524 17.955 22.5587 18.4626 22.2652C18.9698 21.9725 19.5558 21.9437 20.0634 22.1355C21.0506 21.1647 21.6931 19.8444 21.7867 18.3737L19.8838 18.3457C19.7088 20.3383 18.0374 21.8998 16 21.8998ZM18.7324 13.2667C19.371 13.6354 20.1872 13.417 20.5556 12.7784C20.9244 12.1398 20.706 11.3237 20.0673 10.9548C19.4287 10.5864 18.6126 10.8053 18.2437 11.4439C17.8753 12.0821 18.0942 12.8982 18.7324 13.2667Z" fill="black"/>
<rect width="85.7862" height="36" transform="translate(32)" fill="#181818"/>
<path d="M97.8662 24.152C97.2476 24.152 96.6876 24.008 96.1862 23.72C95.6956 23.432 95.3116 23.032 95.0342 22.52C94.7676 21.9973 94.6342 21.4 94.6342 20.728V15.336H96.1222V20.568C96.1222 20.9947 96.2076 21.368 96.3782 21.688C96.5596 22.008 96.8049 22.2587 97.1142 22.44C97.4342 22.6213 97.7969 22.712 98.2022 22.712C98.6076 22.712 98.9649 22.6213 99.2742 22.44C99.5942 22.2587 99.8396 21.9973 100.01 21.656C100.192 21.3147 100.282 20.9093 100.282 20.44V15.336H101.786V23.96H100.33V22.28L100.57 22.424C100.368 22.968 100.021 23.3947 99.5302 23.704C99.0502 24.0027 98.4956 24.152 97.8662 24.152Z" fill="white"/>
<path d="M91.9705 24.056C91.1278 24.056 90.4772 23.816 90.0185 23.336C89.5705 22.856 89.3465 22.1787 89.3465 21.304V16.76H87.7785V15.336H88.0985C88.4825 15.336 88.7865 15.2187 89.0105 14.984C89.2345 14.7493 89.3465 14.44 89.3465 14.056V13.352H90.8345V15.336H92.7705V16.76H90.8345V21.256C90.8345 21.544 90.8772 21.7947 90.9625 22.008C91.0585 22.2213 91.2132 22.392 91.4265 22.52C91.6398 22.6373 91.9225 22.696 92.2745 22.696C92.3492 22.696 92.4398 22.6907 92.5465 22.68C92.6638 22.6693 92.7705 22.6587 92.8665 22.648V23.96C92.7278 23.992 92.5732 24.0133 92.4025 24.024C92.2318 24.0453 92.0878 24.056 91.9705 24.056Z" fill="white"/>
<path d="M79.1852 23.96V15.336H80.6412V17.016L80.4012 16.872C80.6146 16.328 80.9559 15.9067 81.4252 15.608C81.9052 15.2987 82.4652 15.144 83.1052 15.144C83.7239 15.144 84.2732 15.2827 84.7532 15.56C85.2439 15.8373 85.6279 16.2213 85.9052 16.712C86.1932 17.2027 86.3372 17.7573 86.3372 18.376V23.96H84.8332V18.856C84.8332 18.376 84.7479 17.9707 84.5772 17.64C84.4066 17.3093 84.1612 17.0533 83.8412 16.872C83.5319 16.68 83.1746 16.584 82.7692 16.584C82.3639 16.584 82.0012 16.68 81.6812 16.872C81.3719 17.0533 81.1266 17.3147 80.9452 17.656C80.7639 17.9867 80.6732 18.3867 80.6732 18.856V23.96H79.1852Z" fill="white"/>
<path d="M72.96 24.152C72.3413 24.152 71.7813 24.008 71.28 23.72C70.7893 23.432 70.4053 23.032 70.128 22.52C69.8613 21.9973 69.728 21.4 69.728 20.728V15.336H71.216V20.568C71.216 20.9947 71.3013 21.368 71.472 21.688C71.6533 22.008 71.8987 22.2587 72.208 22.44C72.528 22.6213 72.8907 22.712 73.296 22.712C73.7013 22.712 74.0587 22.6213 74.368 22.44C74.688 22.2587 74.9333 21.9973 75.104 21.656C75.2853 21.3147 75.376 20.9093 75.376 20.44V15.336H76.88V23.96H75.424V22.28L75.664 22.424C75.4613 22.968 75.1147 23.3947 74.624 23.704C74.144 24.0027 73.5893 24.152 72.96 24.152Z" fill="white"/>
<path d="M63.6649 24.152C62.9715 24.152 62.3369 23.9973 61.7609 23.688C61.1955 23.3787 60.7582 22.9413 60.4489 22.376L60.6569 22.12V23.96H59.2009V11.848H60.6889V17.192L60.4649 16.824C60.7849 16.312 61.2222 15.9067 61.7769 15.608C62.3315 15.2987 62.9662 15.144 63.6809 15.144C64.4915 15.144 65.2169 15.3413 65.8569 15.736C66.5075 16.1307 67.0195 16.6693 67.3929 17.352C67.7662 18.024 67.9529 18.792 67.9529 19.656C67.9529 20.4987 67.7662 21.2613 67.3929 21.944C67.0195 22.6267 66.5075 23.1653 65.8569 23.56C65.2169 23.9547 64.4862 24.152 63.6649 24.152ZM63.5529 22.712C64.0969 22.712 64.5822 22.5787 65.0089 22.312C65.4355 22.0453 65.7662 21.6827 66.0009 21.224C66.2462 20.7547 66.3689 20.232 66.3689 19.656C66.3689 19.0587 66.2462 18.536 66.0009 18.088C65.7662 17.6293 65.4355 17.2667 65.0089 17C64.5822 16.7227 64.0969 16.584 63.5529 16.584C63.0089 16.584 62.5182 16.7173 62.0809 16.984C61.6542 17.2507 61.3129 17.6187 61.0569 18.088C60.8115 18.5467 60.6889 19.0693 60.6889 19.656C60.6889 20.232 60.8115 20.7547 61.0569 21.224C61.3129 21.6827 61.6542 22.0453 62.0809 22.312C62.5182 22.5787 63.0089 22.712 63.5529 22.712Z" fill="white"/>
<path d="M52.4 24.152C51.536 24.152 50.768 23.9707 50.096 23.608C49.4347 23.2453 48.9173 22.7493 48.544 22.12C48.1813 21.48 48 20.7547 48 19.944V12.04H49.584V19.912C49.584 20.456 49.7013 20.9413 49.936 21.368C50.1813 21.784 50.512 22.1093 50.928 22.344C51.3547 22.5787 51.8453 22.696 52.4 22.696C52.9547 22.696 53.44 22.5787 53.856 22.344C54.2827 22.1093 54.6133 21.784 54.848 21.368C55.0933 20.9413 55.216 20.456 55.216 19.912V12.04H56.8V19.944C56.8 20.7547 56.6133 21.48 56.24 22.12C55.8773 22.7493 55.3653 23.2453 54.704 23.608C54.0427 23.9707 53.2747 24.152 52.4 24.152Z" fill="white"/>
</g>
<rect x="1" y="1" width="116" height="34" rx="5" stroke="black" stroke-width="2"/>
<defs>
<clipPath id="clip0_9_156">
<rect width="118" height="36" rx="6"/>
</clipPath>
</defs>
</svg>
