<svg width="78" height="36" viewBox="0 0 78 36" fill="none" xmlns="http://www.w3.org/2000/svg">
<rect width="76" height="34" fill="white" rx="6" ry="6" x="1" y="1" stroke-width="2" stroke="black" />
<path d="M6 0H36V36H6C2.68629 36 0 33.3137 0 30V6C0 2.68629 2.68629 0 6 0Z" fill="black"/>
<path d="M23.2719 9.58659H26.0831L19.9414 16.6062L27.1667 26.1582H21.5094L17.0784 20.365L12.0083 26.1582H9.19536L15.7645 18.65L8.83334 9.58659H14.6343L18.6395 14.8819L23.2719 9.58659ZM22.2853 24.4756H23.843L13.7878 11.1809H12.1162L22.2853 24.4756Z" fill="white"/>
<path d="M52 23.96L55.888 17.912L52.096 12.04H53.888L57.104 17.048H56.432L59.648 12.04H61.44L57.648 17.912L61.536 23.96H59.744L56.432 18.776H57.104L53.776 23.96H52Z" fill="black"/>
</svg>
