<svg width="78" height="36" viewBox="0 0 78 36" fill="none" xmlns="http://www.w3.org/2000/svg">
<g clip-path="url(#clip0_7_371)">
<rect width="77.536" height="36" rx="6" fill="white"/>
<rect width="36" height="36" fill="black"/>
<path d="M23.2719 9.58659H26.0831L19.9414 16.6062L27.1667 26.1582H21.5094L17.0784 20.365L12.0083 26.1582H9.19536L15.7645 18.65L8.83334 9.58659H14.6343L18.6395 14.8819L23.2719 9.58659ZM22.2853 24.4756H23.843L13.7878 11.1809H12.1162L22.2853 24.4756Z" fill="white"/>
<path d="M52 23.96L55.888 17.912L52.096 12.04H53.888L57.104 17.048H56.432L59.648 12.04H61.44L57.648 17.912L61.536 23.96H59.744L56.432 18.776H57.104L53.776 23.96H52Z" fill="black"/>
</g>
<rect x="1" y="1" width="75.536" height="34" rx="5" stroke="black" stroke-width="2"/>
<defs>
<clipPath id="clip0_7_371">
<rect width="77.536" height="36" rx="6" fill="white"/>
</clipPath>
</defs>
</svg>
