<svg width="103" height="36" viewBox="0 0 103 36" fill="none" xmlns="http://www.w3.org/2000/svg">
<g clip-path="url(#clip0_9_47)">
<rect width="102" height="36" rx="6" fill="white"/>
<rect width="32" height="36" fill="black"/>
<path d="M11.8333 22.1667V14.6667L6 20.5V28H13.5L19.3333 22.1667H11.8333Z" fill="white"/>
<path d="M26 8H6L11.8333 13.8333H20.1667V22.1667L26 28V8Z" fill="white"/>
<rect width="76" height="36" transform="translate(30)" fill="#181818"/>
<path d="M78.5625 24.056L81.5865 19.736L78.5785 15.432H80.3705L82.9465 19.176H82.0345L84.5785 15.432H86.3865L83.3785 19.736L86.3705 24.056H84.5785L82.0345 20.312H82.9305L80.3865 24.056H78.5625Z" fill="white"/>
<path d="M70.2573 24.056V15.432H71.7133V17.112L71.4733 16.968C71.6866 16.424 72.0279 16.0027 72.4973 15.704C72.9773 15.3947 73.5373 15.24 74.1773 15.24C74.7959 15.24 75.3453 15.3787 75.8253 15.656C76.3159 15.9333 76.6999 16.3173 76.9773 16.808C77.2653 17.2987 77.4093 17.8533 77.4093 18.472V24.056H75.9053V18.952C75.9053 18.472 75.8199 18.0667 75.6493 17.736C75.4786 17.4053 75.2333 17.1493 74.9133 16.968C74.6039 16.776 74.2466 16.68 73.8413 16.68C73.4359 16.68 73.0733 16.776 72.7533 16.968C72.4439 17.1493 72.1986 17.4107 72.0173 17.752C71.8359 18.0827 71.7453 18.4827 71.7453 18.952V24.056H70.2573Z" fill="white"/>
<path d="M66.4604 24.056V15.432H67.9484V24.056H66.4604ZM66.4604 14.056V12.136H67.9484V14.056H66.4604Z" fill="white"/>
<path d="M62.6635 24.056V11.944H64.1515V24.056H62.6635Z" fill="white"/>
<path d="M58.8666 24.056V15.432H60.3546V24.056H58.8666ZM58.8666 14.056V12.136H60.3546V14.056H58.8666Z" fill="white"/>
<path d="M48 24.056L51.888 18.008L48.096 12.136H49.888L53.104 17.144H52.432L55.648 12.136H57.44L53.648 18.008L57.536 24.056H55.744L52.432 18.872H53.104L49.776 24.056H48Z" fill="white"/>
</g>
<rect x="1" y="1" width="100" height="34" rx="5" stroke="black" stroke-width="2"/>
<defs>
<clipPath id="clip0_9_47">
<rect width="102" height="36" rx="6"/>
</clipPath>
</defs>
</svg>
