<svg width="133" height="36" viewBox="0 0 133 36" fill="none" xmlns="http://www.w3.org/2000/svg">
<g clip-path="url(#clip0_7_359)">
<rect width="133" height="36" rx="6" fill="white"/>
<rect width="36" height="36" fill="black"/>
<path d="M27.6017 13.1545C27.4886 12.7291 27.2657 12.3407 26.9554 12.0284C26.6451 11.7161 26.2582 11.4908 25.8335 11.375C24.2698 10.9545 18.0198 10.9545 18.0198 10.9545C18.0198 10.9545 11.7698 10.9545 10.2062 11.375C9.78144 11.4908 9.39455 11.7161 9.08424 12.0284C8.77393 12.3407 8.55109 12.7291 8.43802 13.1545C8.01984 14.725 8.01984 18 8.01984 18C8.01984 18 8.01984 21.275 8.43802 22.8455C8.55109 23.2709 8.77393 23.6593 9.08424 23.9716C9.39455 24.2839 9.78144 24.5092 10.2062 24.625C11.7698 25.0455 18.0198 25.0455 18.0198 25.0455C18.0198 25.0455 24.2698 25.0455 25.8335 24.625C26.2582 24.5092 26.6451 24.2839 26.9554 23.9716C27.2657 23.6593 27.4886 23.2709 27.6017 22.8455C28.0198 21.275 28.0198 18 28.0198 18C28.0198 18 28.0198 14.725 27.6017 13.1545Z" fill="white"/>
<path d="M15.9744 20.9739V15.0262L21.2017 18L15.9744 20.9739Z" fill="black"/>
<path d="M113.006 24.152C112.174 24.152 111.433 23.9547 110.782 23.56C110.132 23.1653 109.62 22.6267 109.246 21.944C108.873 21.2507 108.686 20.4773 108.686 19.624C108.686 18.76 108.868 17.992 109.23 17.32C109.604 16.648 110.105 16.12 110.734 15.736C111.374 15.3413 112.089 15.144 112.878 15.144C113.518 15.144 114.084 15.2613 114.574 15.496C115.076 15.72 115.497 16.0293 115.838 16.424C116.19 16.808 116.457 17.2507 116.638 17.752C116.83 18.2427 116.926 18.7547 116.926 19.288C116.926 19.4053 116.916 19.5387 116.894 19.688C116.884 19.8267 116.868 19.96 116.846 20.088H109.774V18.808H115.982L115.278 19.384C115.374 18.8293 115.321 18.3333 115.118 17.896C114.916 17.4587 114.617 17.112 114.222 16.856C113.828 16.6 113.38 16.472 112.878 16.472C112.377 16.472 111.918 16.6 111.502 16.856C111.086 17.112 110.761 17.48 110.526 17.96C110.302 18.4293 110.212 18.9893 110.254 19.64C110.212 20.2693 110.308 20.824 110.542 21.304C110.788 21.7733 111.129 22.1413 111.566 22.408C112.014 22.664 112.5 22.792 113.022 22.792C113.598 22.792 114.084 22.6587 114.478 22.392C114.873 22.1253 115.193 21.784 115.438 21.368L116.686 22.008C116.516 22.4027 116.249 22.7653 115.886 23.096C115.534 23.416 115.113 23.672 114.622 23.864C114.142 24.056 113.604 24.152 113.006 24.152Z" fill="black"/>
<path d="M102.799 24.152C102.106 24.152 101.471 23.9973 100.895 23.688C100.33 23.3787 99.8927 22.9413 99.5834 22.376L99.7914 22.12V23.96H98.3354V11.848H99.8234V17.192L99.5994 16.824C99.9194 16.312 100.357 15.9067 100.911 15.608C101.466 15.2987 102.101 15.144 102.815 15.144C103.626 15.144 104.351 15.3413 104.991 15.736C105.642 16.1307 106.154 16.6693 106.527 17.352C106.901 18.024 107.087 18.792 107.087 19.656C107.087 20.4987 106.901 21.2613 106.527 21.944C106.154 22.6267 105.642 23.1653 104.991 23.56C104.351 23.9547 103.621 24.152 102.799 24.152ZM102.687 22.712C103.231 22.712 103.717 22.5787 104.143 22.312C104.57 22.0453 104.901 21.6827 105.135 21.224C105.381 20.7547 105.503 20.232 105.503 19.656C105.503 19.0587 105.381 18.536 105.135 18.088C104.901 17.6293 104.57 17.2667 104.143 17C103.717 16.7227 103.231 16.584 102.687 16.584C102.143 16.584 101.653 16.7173 101.215 16.984C100.789 17.2507 100.447 17.6187 100.191 18.088C99.946 18.5467 99.8234 19.0693 99.8234 19.656C99.8234 20.232 99.946 20.7547 100.191 21.224C100.447 21.6827 100.789 22.0453 101.215 22.312C101.653 22.5787 102.143 22.712 102.687 22.712Z" fill="black"/>
<path d="M92.1101 24.152C91.4915 24.152 90.9315 24.008 90.4301 23.72C89.9395 23.432 89.5555 23.032 89.2781 22.52C89.0115 21.9973 88.8781 21.4 88.8781 20.728V15.336H90.3661V20.568C90.3661 20.9947 90.4515 21.368 90.6221 21.688C90.8035 22.008 91.0488 22.2587 91.3581 22.44C91.6781 22.6213 92.0408 22.712 92.4461 22.712C92.8515 22.712 93.2088 22.6213 93.5181 22.44C93.8381 22.2587 94.0835 21.9973 94.2541 21.656C94.4355 21.3147 94.5261 20.9093 94.5261 20.44V15.336H96.0301V23.96H94.5741V22.28L94.8141 22.424C94.6115 22.968 94.2648 23.3947 93.7741 23.704C93.2941 24.0027 92.7395 24.152 92.1101 24.152Z" fill="black"/>
<path d="M83.5914 23.96V13.48H80.3594V12.04H88.3594V13.48H85.1754V23.96H83.5914Z" fill="black"/>
<path d="M75.1101 24.152C74.4915 24.152 73.9315 24.008 73.4301 23.72C72.9395 23.432 72.5555 23.032 72.2781 22.52C72.0115 21.9973 71.8781 21.4 71.8781 20.728V15.336H73.3661V20.568C73.3661 20.9947 73.4515 21.368 73.6221 21.688C73.8035 22.008 74.0488 22.2587 74.3581 22.44C74.6781 22.6213 75.0408 22.712 75.4461 22.712C75.8515 22.712 76.2088 22.6213 76.5181 22.44C76.8381 22.2587 77.0835 21.9973 77.2541 21.656C77.4355 21.3147 77.5261 20.9093 77.5261 20.44V15.336H79.0301V23.96H77.5741V22.28L77.8141 22.424C77.6115 22.968 77.2648 23.3947 76.7741 23.704C76.2941 24.0027 75.7395 24.152 75.1101 24.152Z" fill="black"/>
<path d="M65.6814 24.152C64.8494 24.152 64.0974 23.96 63.4254 23.576C62.7534 23.1813 62.22 22.6427 61.8254 21.96C61.4307 21.2773 61.2334 20.504 61.2334 19.64C61.2334 18.776 61.4254 18.008 61.8094 17.336C62.204 16.664 62.7374 16.1307 63.4094 15.736C64.0814 15.3413 64.8387 15.144 65.6814 15.144C66.5134 15.144 67.2654 15.3413 67.9374 15.736C68.6094 16.12 69.1374 16.648 69.5214 17.32C69.916 17.992 70.1134 18.7653 70.1134 19.64C70.1134 20.5147 69.9107 21.2933 69.5054 21.976C69.1 22.648 68.5614 23.1813 67.8894 23.576C67.228 23.96 66.492 24.152 65.6814 24.152ZM65.6814 22.712C66.2147 22.712 66.6947 22.5787 67.1214 22.312C67.5587 22.0453 67.9 21.6773 68.1454 21.208C68.4014 20.7387 68.5294 20.216 68.5294 19.64C68.5294 19.0533 68.4014 18.536 68.1454 18.088C67.9 17.6293 67.5587 17.2667 67.1214 17C66.6947 16.7227 66.2147 16.584 65.6814 16.584C65.1374 16.584 64.6467 16.7227 64.2094 17C63.7827 17.2667 63.4414 17.6293 63.1854 18.088C62.9294 18.536 62.8014 19.0533 62.8014 19.64C62.8014 20.216 62.9294 20.7387 63.1854 21.208C63.4414 21.6773 63.7827 22.0453 64.2094 22.312C64.6467 22.5787 65.1374 22.712 65.6814 22.712Z" fill="black"/>
<path d="M56.128 23.96V18.504L52 12.04H53.776L57.232 17.464H56.592L60.032 12.04H61.808L57.712 18.504V23.96H56.128Z" fill="black"/>
</g>
<rect x="1" y="1" width="131" height="34" rx="5" stroke="black" stroke-width="2"/>
<defs>
<clipPath id="clip0_7_359">
<rect width="133" height="36" rx="6"/>
</clipPath>
</defs>
</svg>
